<svg version="1.1" viewBox="0.0 0.0 960.0 720.0" fill="none" stroke="none" stroke-linecap="square" stroke-miterlimit="10" xmlns:xlink="http://www.w3.org/1999/xlink" xmlns="http://www.w3.org/2000/svg"><clipPath id="p.0"><path d="m0 0l960.0 0l0 720.0l-960.0 0l0 -720.0z" clip-rule="nonzero"/></clipPath><g clip-path="url(#p.0)"><path fill="#000000" fill-opacity="0.0" d="m0 0l960.0 0l0 720.0l-960.0 0z" fill-rule="evenodd"/><path fill="#ffffff" d="m164.55118 199.04199l117.85828 0l0 373.6693l-117.85828 0z" fill-rule="evenodd"/><path stroke="#ffffff" stroke-width="1.0" stroke-linejoin="round" stroke-linecap="butt" d="m164.55118 199.04199l117.85828 0l0 373.6693l-117.85828 0z" fill-rule="evenodd"/><path fill="#ffffff" d="m28.023623 199.04199l130.80315 0l0 381.3858l-130.80315 0z" fill-rule="evenodd"/><path stroke="#ffffff" stroke-width="1.0" stroke-linejoin="round" stroke-linecap="butt" d="m28.023623 199.04199l130.80315 0l0 381.3858l-130.80315 0z" fill-rule="evenodd"/><path fill="#ffffff" d="m74.70497 223.07137l1.625 -0.25q0.125 0.96875 0.75 1.5q0.625 0.515625 1.75 0.515625q1.125 0 1.671875 -0.453125q0.546875 -0.46875 0.546875 -1.09375q0 -0.546875 -0.484375 -0.875q-0.328125 -0.21875 -1.671875 -0.546875q-1.8125 -0.46875 -2.515625 -0.796875q-0.6875 -0.328125 -1.046875 -0.90625q-0.359375 -0.59375 -0.359375 -1.3125q0 -0.640625 0.296875 -1.1875q0.296875 -0.5625 0.8125 -0.921875q0.375 -0.28125 1.03125 -0.46875q0.671875 -0.203125 1.421875 -0.203125q1.140625 0 2.0 0.328125q0.859375 0.328125 1.265625 0.890625q0.421875 0.5625 0.578125 1.5l-1.609375 0.21875q-0.109375 -0.75 -0.640625 -1.171875q-0.515625 -0.421875 -1.46875 -0.421875q-1.140625 0 -1.625 0.375q-0.46875 0.375 -0.46875 0.875q0 0.3125 0.1875 0.578125q0.203125 0.265625 0.640625 0.4375q0.234375 0.09375 1.4375 0.421875q1.75 0.453125 2.4375 0.75q0.6875 0.296875 1.078125 0.859375q0.390625 0.5625 0.390625 1.40625q0 0.828125 -0.484375 1.546875q-0.46875 0.71875 -1.375 1.125q-0.90625 0.390625 -2.046875 0.390625q-1.875 0 -2.875 -0.78125q-0.984375 -0.78125 -1.25 -2.328125zm16.296875 1.703125q-0.921875 0.765625 -1.765625 1.09375q-0.828125 0.3125 -1.796875 0.3125q-1.59375 0 -2.453125 -0.78125q-0.859375 -0.78125 -0.859375 -1.984375q0 -0.71875 0.328125 -1.296875q0.328125 -0.59375 0.84375 -0.9375q0.53125 -0.359375 1.1875 -0.546875q0.46875 -0.125 1.453125 -0.25q1.984375 -0.234375 2.921875 -0.5625q0.015625 -0.34375 0.015625 -0.421875q0 -1.0 -0.46875 -1.421875q-0.625 -0.546875 -1.875 -0.546875q-1.15625 0 -1.703125 0.40625q-0.546875 0.40625 -0.8125 1.421875l-1.609375 -0.21875q0.21875 -1.015625 0.71875 -1.640625q0.5 -0.640625 1.453125 -0.984375q0.953125 -0.34375 2.1875 -0.34375q1.25 0 2.015625 0.296875q0.78125 0.28125 1.140625 0.734375q0.375 0.4375 0.515625 1.109375q0.078125 0.421875 0.078125 1.515625l0 2.1875q0 2.28125 0.109375 2.890625q0.109375 0.59375 0.40625 1.15625l-1.703125 0q-0.265625 -0.515625 -0.328125 -1.1875zm-0.140625 -3.671875q-0.890625 0.375 -2.671875 0.625q-1.015625 0.140625 -1.4375 0.328125q-0.421875 0.1875 -0.65625 0.53125q-0.21875 0.34375 -0.21875 0.78125q0 0.65625 0.5 1.09375q0.5 0.4375 1.453125 0.4375q0.9375 0 1.671875 -0.40625q0.75 -0.421875 1.09375 -1.140625q0.265625 -0.5625 0.265625 -1.640625l0 -0.609375zm4.203842 4.859375l0 -9.671875l1.46875 0l0 1.359375q0.453125 -0.71875 1.203125 -1.140625q0.765625 -0.4375 1.71875 -0.4375q1.078125 0 1.765625 0.453125q0.6875 0.4375 0.96875 1.234375q1.15625 -1.6875 2.984375 -1.6875q1.453125 0 2.21875 0.796875q0.78125 0.796875 0.78125 2.453125l0 6.640625l-1.640625 0l0 -6.09375q0 -0.984375 -0.15625 -1.40625q-0.15625 -0.4375 -0.578125 -0.703125q-0.421875 -0.265625 -0.984375 -0.265625q-1.015625 0 -1.6875 0.6875q-0.671875 0.671875 -0.671875 2.15625l0 5.625l-1.640625 0l0 -6.28125q0 -1.09375 -0.40625 -1.640625q-0.40625 -0.546875 -1.3125 -0.546875q-0.6875 0 -1.28125 0.359375q-0.59375 0.359375 -0.859375 1.0625q-0.25 0.703125 -0.25 2.03125l0 5.015625l-1.640625 0zm15.540802 3.703125l0 -13.375l1.484375 0l0 1.25q0.53125 -0.734375 1.1875 -1.09375q0.671875 -0.375 1.625 -0.375q1.234375 0 2.171875 0.640625q0.953125 0.625 1.4375 1.796875q0.484375 1.15625 0.484375 2.546875q0 1.484375 -0.53125 2.671875q-0.53125 1.1875 -1.546875 1.828125q-1.015625 0.625 -2.140625 0.625q-0.8125 0 -1.46875 -0.34375q-0.65625 -0.34375 -1.0625 -0.875l0 4.703125l-1.640625 0zm1.484375 -8.484375q0 1.859375 0.75 2.765625q0.765625 0.890625 1.828125 0.890625q1.09375 0 1.875 -0.921875q0.78125 -0.9375 0.78125 -2.875q0 -1.84375 -0.765625 -2.765625q-0.75 -0.921875 -1.8125 -0.921875q-1.046875 0 -1.859375 0.984375q-0.796875 0.96875 -0.796875 2.84375zm8.844467 4.78125l0 -13.359375l1.640625 0l0 13.359375l-1.640625 0zm10.816696 -3.109375l1.6875 0.203125q-0.40625 1.484375 -1.484375 2.3125q-1.078125 0.8125 -2.765625 0.8125q-2.125 0 -3.375 -1.296875q-1.234375 -1.3125 -1.234375 -3.671875q0 -2.453125 1.25 -3.796875q1.265625 -1.34375 3.265625 -1.34375q1.9375 0 3.15625 1.328125q1.234375 1.3125 1.234375 3.703125q0 0.15625 0 0.4375l-7.21875 0q0.09375 1.59375 0.90625 2.453125q0.8125 0.84375 2.015625 0.84375q0.90625 0 1.546875 -0.46875q0.640625 -0.484375 1.015625 -1.515625zm-5.390625 -2.65625l5.40625 0q-0.109375 -1.21875 -0.625 -1.828125q-0.78125 -0.953125 -2.03125 -0.953125q-1.125 0 -1.90625 0.765625q-0.765625 0.75 -0.84375 2.015625zm20.043396 5.765625l-1.640625 0l0 -10.453125q-0.59375 0.5625 -1.5625 1.140625q-0.953125 0.5625 -1.71875 0.84375l0 -1.59375q1.375 -0.640625 2.40625 -1.5625q1.03125 -0.921875 1.453125 -1.78125l1.0625 0l0 13.40625z" fill-rule="nonzero"/><path fill="#ffffff" d="m146.33096 248.36198l0 -1.875l1.875 0l0 1.875l-1.875 0z" fill-rule="nonzero"/><path fill="#ffffff" d="m146.33096 270.762l0 -1.875l1.875 0l0 1.875l-1.875 0z" fill-rule="nonzero"/><path fill="#ffffff" d="m146.33096 293.162l0 -1.875l1.875 0l0 1.875l-1.875 0z" fill-rule="nonzero"/><path fill="#ffffff" d="m146.33096 315.56198l0 -1.875l1.875 0l0 1.875l-1.875 0z" fill-rule="nonzero"/><path fill="#ffffff" d="m146.33096 337.96198l0 -1.875l1.875 0l0 1.875l-1.875 0z" fill-rule="nonzero"/><path fill="#ffffff" d="m146.33096 360.36197l0 -1.875l1.875 0l0 1.875l-1.875 0z" fill-rule="nonzero"/><path fill="#ffffff" d="m146.33096 382.76196l0 -1.875l1.875 0l0 1.875l-1.875 0z" fill-rule="nonzero"/><path fill="#ffffff" d="m146.33096 405.16196l0 -1.875l1.875 0l0 1.875l-1.875 0z" fill-rule="nonzero"/><path fill="#ffffff" d="m146.33096 427.56195l0 -1.875l1.875 0l0 1.875l-1.875 0z" fill-rule="nonzero"/><path fill="#ffffff" d="m146.33096 449.96194l0 -1.875l1.875 0l0 1.875l-1.875 0z" fill-rule="nonzero"/><path fill="#ffffff" d="m146.33096 472.36194l0 -1.875l1.875 0l0 1.875l-1.875 0z" fill-rule="nonzero"/><path fill="#ffffff" d="m146.33096 494.76196l0 -1.875l1.875 0l0 1.875l-1.875 0z" fill-rule="nonzero"/><path fill="#ffffff" d="m146.33096 517.162l0 -1.875l1.875 0l0 1.875l-1.875 0z" fill-rule="nonzero"/><path fill="#ffffff" d="m146.33096 539.562l0 -1.875l1.875 0l0 1.875l-1.875 0z" fill-rule="nonzero"/><path fill="#ffffff" d="m59.411575 557.66516l1.65625 -0.140625q0.125 1.0 0.546875 1.640625q0.4375 0.640625 1.34375 1.046875q0.921875 0.390625 2.0625 0.390625q1.0 0 1.78125 -0.296875q0.78125 -0.296875 1.15625 -0.8125q0.375 -0.53125 0.375 -1.15625q0 -0.625 -0.375 -1.09375q-0.359375 -0.46875 -1.1875 -0.796875q-0.546875 -0.203125 -2.390625 -0.640625q-1.828125 -0.453125 -2.5625 -0.84375q-0.96875 -0.5 -1.4375 -1.234375q-0.46875 -0.75 -0.46875 -1.671875q0 -1.0 0.578125 -1.875q0.578125 -0.890625 1.671875 -1.34375q1.109375 -0.453125 2.453125 -0.453125q1.484375 0 2.609375 0.484375q1.140625 0.46875 1.75 1.40625q0.609375 0.921875 0.65625 2.09375l-1.6875 0.125q-0.140625 -1.265625 -0.9375 -1.90625q-0.78125 -0.65625 -2.3125 -0.65625q-1.609375 0 -2.34375 0.59375q-0.734375 0.59375 -0.734375 1.421875q0 0.71875 0.53125 1.171875q0.5 0.46875 2.65625 0.96875q2.15625 0.484375 2.953125 0.84375q1.171875 0.53125 1.71875 1.359375q0.5625 0.828125 0.5625 1.90625q0 1.0625 -0.609375 2.015625q-0.609375 0.9375 -1.75 1.46875q-1.140625 0.515625 -2.578125 0.515625q-1.8125 0 -3.046875 -0.53125q-1.21875 -0.53125 -1.921875 -1.59375q-0.6875 -1.0625 -0.71875 -2.40625zm19.146698 3.109375q-0.921875 0.765625 -1.765625 1.09375q-0.828125 0.3125 -1.796875 0.3125q-1.59375 0 -2.453125 -0.78125q-0.859375 -0.78125 -0.859375 -1.984375q0 -0.71875 0.328125 -1.296875q0.328125 -0.59375 0.84375 -0.9375q0.53125 -0.359375 1.1875 -0.546875q0.46875 -0.125 1.453125 -0.25q1.984375 -0.234375 2.921875 -0.5625q0.015625 -0.34375 0.015625 -0.421875q0 -1.0 -0.46875 -1.421875q-0.625 -0.546875 -1.875 -0.546875q-1.15625 0 -1.703125 0.40625q-0.546875 0.40625 -0.8125 1.421875l-1.609375 -0.21875q0.21875 -1.015625 0.71875 -1.640625q0.5 -0.640625 1.453125 -0.984375q0.953125 -0.34375 2.1875 -0.34375q1.25 0 2.015625 0.296875q0.78125 0.28125 1.140625 0.734375q0.375 0.4375 0.515625 1.109375q0.078125 0.421875 0.078125 1.515625l0 2.1875q0 2.28125 0.109375 2.890625q0.109375 0.59375 0.40625 1.15625l-1.703125 0q-0.265625 -0.515625 -0.328125 -1.1875zm-0.140625 -3.671875q-0.890625 0.375 -2.671875 0.625q-1.015625 0.140625 -1.4375 0.328125q-0.421875 0.1875 -0.65625 0.53125q-0.21875 0.34375 -0.21875 0.78125q0 0.65625 0.5 1.09375q0.5 0.4375 1.453125 0.4375q0.9375 0 1.671875 -0.40625q0.75 -0.421875 1.09375 -1.140625q0.265625 -0.5625 0.265625 -1.640625l0 -0.609375zm4.203842 4.859375l0 -9.671875l1.46875 0l0 1.359375q0.453125 -0.71875 1.203125 -1.140625q0.765625 -0.4375 1.71875 -0.4375q1.078125 0 1.765625 0.453125q0.6875 0.4375 0.96875 1.234375q1.15625 -1.6875 2.984375 -1.6875q1.453125 0 2.21875 0.796875q0.78125 0.796875 0.78125 2.453125l0 6.640625l-1.640625 0l0 -6.09375q0 -0.984375 -0.15625 -1.40625q-0.15625 -0.4375 -0.578125 -0.703125q-0.421875 -0.265625 -0.984375 -0.265625q-1.015625 0 -1.6875 0.6875q-0.671875 0.671875 -0.671875 2.15625l0 5.625l-1.640625 0l0 -6.28125q0 -1.09375 -0.40625 -1.640625q-0.40625 -0.546875 -1.3125 -0.546875q-0.6875 0 -1.28125 0.359375q-0.59375 0.359375 -0.859375 1.0625q-0.25 0.703125 -0.25 2.03125l0 5.015625l-1.640625 0zm15.540802 3.703125l0 -13.375l1.484375 0l0 1.25q0.53125 -0.734375 1.1875 -1.09375q0.671875 -0.375 1.625 -0.375q1.234375 0 2.171875 0.640625q0.953125 0.625 1.4375 1.796875q0.484375 1.15625 0.484375 2.546875q0 1.484375 -0.53125 2.671875q-0.53125 1.1875 -1.546875 1.828125q-1.015625 0.625 -2.140625 0.625q-0.8125 0 -1.46875 -0.34375q-0.65625 -0.34375 -1.0625 -0.875l0 4.703125l-1.640625 0zm1.484375 -8.484375q0 1.859375 0.75 2.765625q0.765625 0.890625 1.828125 0.890625q1.09375 0 1.875 -0.921875q0.78125 -0.9375 0.78125 -2.875q0 -1.84375 -0.765625 -2.765625q-0.75 -0.921875 -1.8125 -0.921875q-1.046875 0 -1.859375 0.984375q-0.796875 0.96875 -0.796875 2.84375zm8.844467 4.78125l0 -13.359375l1.640625 0l0 13.359375l-1.640625 0zm10.816696 -3.109375l1.6875 0.203125q-0.40625 1.484375 -1.484375 2.3125q-1.078125 0.8125 -2.765625 0.8125q-2.125 0 -3.375 -1.296875q-1.234375 -1.3125 -1.234375 -3.671875q0 -2.453125 1.25 -3.796875q1.265625 -1.34375 3.265625 -1.34375q1.9375 0 3.15625 1.328125q1.234375 1.3125 1.234375 3.703125q0 0.15625 0 0.4375l-7.21875 0q0.09375 1.59375 0.90625 2.453125q0.8125 0.84375 2.015625 0.84375q0.90625 0 1.546875 -0.46875q0.640625 -0.484375 1.015625 -1.515625zm-5.390625 -2.65625l5.40625 0q-0.109375 -1.21875 -0.625 -1.828125q-0.78125 -0.953125 -2.03125 -0.953125q-1.125 0 -1.90625 0.765625q-0.765625 0.75 -0.84375 2.015625zm20.043396 5.765625l-1.640625 0l0 -10.453125q-0.59375 0.5625 -1.5625 1.140625q-0.953125 0.5625 -1.71875 0.84375l0 -1.59375q1.375 -0.640625 2.40625 -1.5625q1.03125 -0.921875 1.453125 -1.78125l1.0625 0l0 13.40625zm4.781967 0l0 -13.359375l5.015625 0q1.53125 0 2.453125 0.40625q0.921875 0.40625 1.4375 1.25q0.53125 0.84375 0.53125 1.765625q0 0.859375 -0.46875 1.625q-0.453125 0.75 -1.390625 1.203125q1.203125 0.359375 1.859375 1.21875q0.65625 0.859375 0.65625 2.015625q0 0.9375 -0.40625 1.75q-0.390625 0.796875 -0.984375 1.234375q-0.578125 0.4375 -1.453125 0.671875q-0.875 0.21875 -2.15625 0.21875l-5.09375 0zm1.78125 -7.75l2.875 0q1.1875 0 1.6875 -0.140625q0.671875 -0.203125 1.015625 -0.671875q0.34375 -0.46875 0.34375 -1.171875q0 -0.65625 -0.328125 -1.15625q-0.3125 -0.515625 -0.90625 -0.703125q-0.59375 -0.1875 -2.03125 -0.1875l-2.65625 0l0 4.03125zm0 6.171875l3.3125 0q0.859375 0 1.203125 -0.0625q0.609375 -0.109375 1.015625 -0.359375q0.421875 -0.265625 0.6875 -0.75q0.265625 -0.484375 0.265625 -1.125q0 -0.75 -0.390625 -1.296875q-0.375 -0.546875 -1.0625 -0.765625q-0.671875 -0.234375 -1.953125 -0.234375l-3.078125 0l0 4.59375z" fill-rule="nonzero"/><path fill="#ffffff" d="m164.55118 199.04199l0 -135.08661l132.50394 0l0 135.08661z" fill-rule="evenodd"/><path stroke="#ffffff" stroke-width="1.0" stroke-linejoin="round" stroke-linecap="butt" d="m164.55118 199.04199l0 -135.08661l132.50394 0l0 135.08661z" fill-rule="evenodd"/><path fill="#ffffff" d="m191.47118 188.41699l-8.40625 0l0 1.453125l-1.265625 0l0 -1.453125l-1.03125 0q-0.96875 0 -1.453125 -0.171875q-0.640625 -0.234375 -1.03125 -0.828125q-0.390625 -0.59375 -0.390625 -1.671875q0 -0.6875 0.15625 -1.53125l1.4375 0.25q-0.09375 0.5 -0.09375 0.953125q0 0.75 0.328125 1.0625q0.3125 0.3125 1.1875 0.3125l0.890625 0l0 -1.890625l1.265625 0l0 1.890625l8.40625 0l0 1.625zm-3.109375 -11.417679l0.203125 -1.6875q1.484375 0.40625 2.3125 1.484375q0.8125 1.078125 0.8125 2.765625q0 2.125 -1.296875 3.375q-1.3125 1.234375 -3.671875 1.234375q-2.453125 0 -3.796875 -1.25q-1.34375 -1.265625 -1.34375 -3.265625q0 -1.9375 1.328125 -3.15625q1.3125 -1.234375 3.703125 -1.234375q0.15625 0 0.4375 0l0 7.21875q1.59375 -0.09375 2.453125 -0.90625q0.84375 -0.8125 0.84375 -2.015625q0 -0.90625 -0.46875 -1.546875q-0.484375 -0.640625 -1.515625 -1.015625zm-2.65625 5.390625l0 -5.40625q-1.21875 0.109375 -1.828125 0.625q-0.953125 0.78125 -0.953125 2.03125q0 1.125 0.765625 1.90625q0.75 0.765625 2.015625 0.84375zm4.578125 -15.453842q0.765625 0.921875 1.09375 1.765625q0.3125 0.828125 0.3125 1.796875q0 1.59375 -0.78125 2.453125q-0.78125 0.859375 -1.984375 0.859375q-0.71875 0 -1.296875 -0.328125q-0.59375 -0.328125 -0.9375 -0.84375q-0.359375 -0.53125 -0.546875 -1.1875q-0.125 -0.46875 -0.25 -1.453125q-0.234375 -1.984375 -0.5625 -2.921875q-0.34375 -0.015625 -0.421875 -0.015625q-1.0 0 -1.421875 0.46875q-0.546875 0.625 -0.546875 1.875q0 1.15625 0.40625 1.703125q0.40625 0.546875 1.421875 0.8125l-0.21875 1.609375q-1.015625 -0.21875 -1.640625 -0.71875q-0.640625 -0.5 -0.984375 -1.453125q-0.34375 -0.953125 -0.34375 -2.1875q0 -1.25 0.296875 -2.015625q0.28125 -0.78125 0.734375 -1.140625q0.4375 -0.375 1.109375 -0.515625q0.421875 -0.078125 1.515625 -0.078125l2.1875 0q2.28125 0 2.890625 -0.109375q0.59375 -0.109375 1.15625 -0.40625l0 1.703125q-0.515625 0.265625 -1.1875 0.328125zm-3.671875 0.140625q0.375 0.890625 0.625 2.671875q0.140625 1.015625 0.328125 1.4375q0.1875 0.421875 0.53125 0.65625q0.34375 0.21875 0.78125 0.21875q0.65625 0 1.09375 -0.5q0.4375 -0.5 0.4375 -1.453125q0 -0.9375 -0.40625 -1.671875q-0.421875 -0.75 -1.140625 -1.09375q-0.5625 -0.265625 -1.640625 -0.265625l-0.609375 0zm3.390625 -7.781967l1.453125 -0.234375q0.140625 0.6875 0.140625 1.234375q0 0.890625 -0.28125 1.390625q-0.28125 0.484375 -0.734375 0.6875q-0.46875 0.203125 -1.9375 0.203125l-5.578125 0l0 1.203125l-1.265625 0l0 -1.203125l-2.390625 0l-0.984375 -1.625l3.375 0l0 -1.65625l1.265625 0l0 1.65625l5.671875 0q0.6875 0 0.890625 -0.078125q0.203125 -0.09375 0.328125 -0.28125q0.109375 -0.203125 0.109375 -0.578125q0 -0.265625 -0.0625 -0.71875zm1.46875 -7.933304l-1.421875 0q1.640625 1.125 1.640625 3.0625q0 0.859375 -0.328125 1.609375q-0.328125 0.734375 -0.828125 1.09375q-0.5 0.359375 -1.21875 0.5q-0.46875 0.109375 -1.53125 0.109375l-5.984375 0l0 -1.640625l5.359375 0q1.28125 0 1.734375 -0.109375q0.640625 -0.15625 1.015625 -0.65625q0.375 -0.5 0.375 -1.234375q0 -0.734375 -0.375 -1.375q-0.390625 -0.65625 -1.03125 -0.921875q-0.65625 -0.265625 -1.890625 -0.265625l-5.1875 0l0 -1.640625l9.671875 0l0 1.46875zm0 -4.031967l-9.671875 0l0 -1.46875l1.46875 0q-1.03125 -0.5625 -1.359375 -1.03125q-0.328125 -0.484375 -0.328125 -1.0625q0 -0.828125 0.53125 -1.6875l1.515625 0.5625q-0.359375 0.609375 -0.359375 1.203125q0 0.546875 0.328125 0.96875q0.328125 0.421875 0.890625 0.609375q0.875 0.28125 1.921875 0.28125l5.0625 0l0 1.625zm-3.109375 -12.853302l0.203125 -1.6875q1.484375 0.40625 2.3125 1.484375q0.8125 1.078125 0.8125 2.765625q0 2.125 -1.296875 3.375q-1.3125 1.234375 -3.671875 1.234375q-2.453125 0 -3.796875 -1.25q-1.34375 -1.265625 -1.34375 -3.265625q0 -1.9375 1.328125 -3.15625q1.3125 -1.234375 3.703125 -1.234375q0.15625 0 0.4375 0l0 7.21875q1.59375 -0.09375 2.453125 -0.90625q0.84375 -0.8125 0.84375 -2.015625q0 -0.90625 -0.46875 -1.546875q-0.484375 -0.640625 -1.515625 -1.015625zm-2.65625 5.390625l0 -5.40625q-1.21875 0.109375 -1.828125 0.625q-0.953125 0.78125 -0.953125 2.03125q0 1.125 0.765625 1.90625q0.75 0.765625 2.015625 0.84375zm5.765625 -20.043396l0 1.640625l-10.453125 0q0.5625 0.59375 1.140625 1.5625q0.5625 0.953125 0.84375 1.71875l-1.59375 0q-0.640625 -1.375 -1.5625 -2.40625q-0.921875 -1.03125 -1.78125 -1.453125l0 -1.0625l13.40625 0z" fill-rule="nonzero"/><path fill="#ffffff" d="m213.87117 188.35449l-1.875 0l0 -1.875l1.875 0l0 1.875z" fill-rule="nonzero"/><path fill="#ffffff" d="m236.27118 188.35449l-1.875 0l0 -1.875l1.875 0l0 1.875z" fill-rule="nonzero"/><path fill="#ffffff" d="m258.67117 188.35449l-1.875 0l0 -1.875l1.875 0l0 1.875z" fill-rule="nonzero"/><path fill="#ffffff" d="m281.07117 188.41699l-8.40625 0l0 1.453125l-1.265625 0l0 -1.453125l-1.03125 0q-0.96875 0 -1.453125 -0.171875q-0.640625 -0.234375 -1.03125 -0.828125q-0.390625 -0.59375 -0.390625 -1.671875q0 -0.6875 0.15625 -1.53125l1.4375 0.25q-0.09375 0.5 -0.09375 0.953125q0 0.75 0.328125 1.0625q0.3125 0.3125 1.1875 0.3125l0.890625 0l0 -1.890625l1.265625 0l0 1.890625l8.40625 0l0 1.625zm-3.109375 -11.417679l0.203125 -1.6875q1.484375 0.40625 2.3125 1.484375q0.8125 1.078125 0.8125 2.765625q0 2.125 -1.296875 3.375q-1.3125 1.234375 -3.671875 1.234375q-2.453125 0 -3.796875 -1.25q-1.34375 -1.265625 -1.34375 -3.265625q0 -1.9375 1.328125 -3.15625q1.3125 -1.234375 3.703125 -1.234375q0.15625 0 0.4375 0l0 7.21875q1.59375 -0.09375 2.453125 -0.90625q0.84375 -0.8125 0.84375 -2.015625q0 -0.90625 -0.46875 -1.546875q-0.484375 -0.640625 -1.515625 -1.015625zm-2.65625 5.390625l0 -5.40625q-1.21875 0.109375 -1.828125 0.625q-0.953125 0.78125 -0.953125 2.03125q0 1.125 0.765625 1.90625q0.75 0.765625 2.015625 0.84375zm4.578125 -15.453842q0.765625 0.921875 1.09375 1.765625q0.3125 0.828125 0.3125 1.796875q0 1.59375 -0.78125 2.453125q-0.78125 0.859375 -1.984375 0.859375q-0.71875 0 -1.296875 -0.328125q-0.59375 -0.328125 -0.9375 -0.84375q-0.359375 -0.53125 -0.546875 -1.1875q-0.125 -0.46875 -0.25 -1.453125q-0.234375 -1.984375 -0.5625 -2.921875q-0.34375 -0.015625 -0.421875 -0.015625q-1.0 0 -1.421875 0.46875q-0.546875 0.625 -0.546875 1.875q0 1.15625 0.40625 1.703125q0.40625 0.546875 1.421875 0.8125l-0.21875 1.609375q-1.015625 -0.21875 -1.640625 -0.71875q-0.640625 -0.5 -0.984375 -1.453125q-0.34375 -0.953125 -0.34375 -2.1875q0 -1.25 0.296875 -2.015625q0.28125 -0.78125 0.734375 -1.140625q0.4375 -0.375 1.109375 -0.515625q0.421875 -0.078125 1.515625 -0.078125l2.1875 0q2.28125 0 2.890625 -0.109375q0.59375 -0.109375 1.15625 -0.40625l0 1.703125q-0.515625 0.265625 -1.1875 0.328125zm-3.671875 0.140625q0.375 0.890625 0.625 2.671875q0.140625 1.015625 0.328125 1.4375q0.1875 0.421875 0.53125 0.65625q0.34375 0.21875 0.78125 0.21875q0.65625 0 1.09375 -0.5q0.4375 -0.5 0.4375 -1.453125q0 -0.9375 -0.40625 -1.671875q-0.421875 -0.75 -1.140625 -1.09375q-0.5625 -0.265625 -1.640625 -0.265625l-0.609375 0zm3.390625 -7.781967l1.453125 -0.234375q0.140625 0.6875 0.140625 1.234375q0 0.890625 -0.28125 1.390625q-0.28125 0.484375 -0.734375 0.6875q-0.46875 0.203125 -1.9375 0.203125l-5.578125 0l0 1.203125l-1.265625 0l0 -1.203125l-2.390625 0l-0.984375 -1.625l3.375 0l0 -1.65625l1.265625 0l0 1.65625l5.671875 0q0.6875 0 0.890625 -0.078125q0.203125 -0.09375 0.328125 -0.28125q0.109375 -0.203125 0.109375 -0.578125q0 -0.265625 -0.0625 -0.71875zm1.46875 -7.933304l-1.421875 0q1.640625 1.125 1.640625 3.0625q0 0.859375 -0.328125 1.609375q-0.328125 0.734375 -0.828125 1.09375q-0.5 0.359375 -1.21875 0.5q-0.46875 0.109375 -1.53125 0.109375l-5.984375 0l0 -1.640625l5.359375 0q1.28125 0 1.734375 -0.109375q0.640625 -0.15625 1.015625 -0.65625q0.375 -0.5 0.375 -1.234375q0 -0.734375 -0.375 -1.375q-0.390625 -0.65625 -1.03125 -0.921875q-0.65625 -0.265625 -1.890625 -0.265625l-5.1875 0l0 -1.640625l9.671875 0l0 1.46875zm0 -4.031967l-9.671875 0l0 -1.46875l1.46875 0q-1.03125 -0.5625 -1.359375 -1.03125q-0.328125 -0.484375 -0.328125 -1.0625q0 -0.828125 0.53125 -1.6875l1.515625 0.5625q-0.359375 0.609375 -0.359375 1.203125q0 0.546875 0.328125 0.96875q0.328125 0.421875 0.890625 0.609375q0.875 0.28125 1.921875 0.28125l5.0625 0l0 1.625zm-3.109375 -12.853302l0.203125 -1.6875q1.484375 0.40625 2.3125 1.484375q0.8125 1.078125 0.8125 2.765625q0 2.125 -1.296875 3.375q-1.3125 1.234375 -3.671875 1.234375q-2.453125 0 -3.796875 -1.25q-1.34375 -1.265625 -1.34375 -3.265625q0 -1.9375 1.328125 -3.15625q1.3125 -1.234375 3.703125 -1.234375q0.15625 0 0.4375 0l0 7.21875q1.59375 -0.09375 2.453125 -0.90625q0.84375 -0.8125 0.84375 -2.015625q0 -0.90625 -0.46875 -1.546875q-0.484375 -0.640625 -1.515625 -1.015625zm-2.65625 5.390625l0 -5.40625q-1.21875 0.109375 -1.828125 0.625q-0.953125 0.78125 -0.953125 2.03125q0 1.125 0.765625 1.90625q0.75 0.765625 2.015625 0.84375zm5.765625 -20.043396l0 1.640625l-10.453125 0q0.5625 0.59375 1.140625 1.5625q0.5625 0.953125 0.84375 1.71875l-1.59375 0q-0.640625 -1.375 -1.5625 -2.40625q-0.921875 -1.03125 -1.78125 -1.453125l0 -1.0625l13.40625 0zm-6.59375 -4.203842q-2.359375 0 -3.796875 -0.484375q-1.453125 -0.484375 -2.234375 -1.4375q-0.78125 -0.96875 -0.78125 -2.421875q0 -1.078125 0.4375 -1.890625q0.421875 -0.8125 1.25 -1.328125q0.8125 -0.53125 1.984375 -0.828125q1.15625 -0.3125 3.140625 -0.3125q2.359375 0 3.8125 0.484375q1.4375 0.484375 2.234375 1.453125q0.78125 0.953125 0.78125 2.421875q0 1.921875 -1.390625 3.03125q-1.671875 1.3125 -5.4375 1.3125zm0 -1.671875q3.296875 0 4.390625 -0.765625q1.078125 -0.78125 1.078125 -1.90625q0 -1.140625 -1.09375 -1.90625q-1.09375 -0.765625 -4.375 -0.765625q-3.296875 0 -4.375 0.765625q-1.078125 0.765625 -1.078125 1.921875q0 1.125 0.953125 1.796875q1.21875 0.859375 4.5 0.859375zm0 -8.703842q-2.359375 0 -3.796875 -0.484375q-1.453125 -0.484375 -2.234375 -1.4375q-0.78125 -0.96875 -0.78125 -2.421875q0 -1.078125 0.4375 -1.890625q0.421875 -0.8125 1.25 -1.328125q0.8125 -0.53125 1.984375 -0.828125q1.15625 -0.3125 3.140625 -0.3125q2.359375 0 3.8125 0.484375q1.4375 0.484375 2.234375 1.453125q0.78125 0.953125 0.78125 2.421875q0 1.921875 -1.390625 3.03125q-1.671875 1.3125 -5.4375 1.3125zm0 -1.671875q3.296875 0 4.390625 -0.765625q1.078125 -0.78125 1.078125 -1.90625q0 -1.140625 -1.09375 -1.90625q-1.09375 -0.765625 -4.375 -0.765625q-3.296875 0 -4.375 0.765625q-1.078125 0.765625 -1.078125 1.921875q0 1.125 0.953125 1.796875q1.21875 0.859375 4.5 0.859375z" fill-rule="nonzero"/><path fill="#ffffff" d="m909.9278 383.3189l0 117.858246l-373.66925 0l0 -117.858246z" fill-rule="evenodd"/><path stroke="#ffffff" stroke-width="1.0" stroke-linejoin="round" stroke-linecap="butt" d="m909.9278 383.3189l0 117.858246l-373.66925 0l0 -117.858246z" fill-rule="evenodd"/><path fill="#ffffff" d="m536.25854 383.3189l0 -130.80316l381.3858 0l0 130.80316z" fill-rule="evenodd"/><path stroke="#ffffff" stroke-width="1.0" stroke-linejoin="round" stroke-linecap="butt" d="m536.25854 383.3189l0 -130.80316l381.3858 0l0 130.80316z" fill-rule="evenodd"/><path fill="#ffffff" d="m563.1785 372.6939l-8.40625 0l0 1.453125l-1.265625 0l0 -1.453125l-1.03125 0q-0.96875 0 -1.453125 -0.171875q-0.640625 -0.234375 -1.03125 -0.828125q-0.390625 -0.59375 -0.390625 -1.671875q0 -0.6875 0.15625 -1.53125l1.4375 0.25q-0.09375 0.5 -0.09375 0.953125q0 0.75 0.328125 1.0625q0.3125 0.3125 1.1875 0.3125l0.890625 0l0 -1.890625l1.265625 0l0 1.890625l8.40625 0l0 1.625zm-3.109375 -11.417694l0.203125 -1.6875q1.484375 0.40625 2.3125 1.484375q0.8125 1.078125 0.8125 2.765625q0 2.125 -1.296875 3.375q-1.3125 1.234375 -3.671875 1.234375q-2.453125 0 -3.796875 -1.25q-1.34375 -1.265625 -1.34375 -3.265625q0 -1.9375 1.328125 -3.15625q1.3125 -1.234375 3.703125 -1.234375q0.15625 0 0.4375 0l0 7.21875q1.59375 -0.09375 2.453125 -0.90625q0.84375 -0.8125 0.84375 -2.015625q0 -0.90625 -0.46875 -1.546875q-0.484375 -0.640625 -1.515625 -1.015625zm-2.65625 5.390625l0 -5.40625q-1.21875 0.109375 -1.828125 0.625q-0.953125 0.78125 -0.953125 2.03125q0 1.125 0.765625 1.90625q0.75 0.765625 2.015625 0.84375zm4.578125 -15.453827q0.765625 0.921875 1.09375 1.765625q0.3125 0.828125 0.3125 1.796875q0 1.59375 -0.78125 2.453125q-0.78125 0.859375 -1.984375 0.859375q-0.71875 0 -1.296875 -0.328125q-0.59375 -0.328125 -0.9375 -0.84375q-0.359375 -0.53125 -0.546875 -1.1875q-0.125 -0.46875 -0.25 -1.453125q-0.234375 -1.984375 -0.5625 -2.921875q-0.34375 -0.015625 -0.421875 -0.015625q-1.0 0 -1.421875 0.46875q-0.546875 0.625 -0.546875 1.875q0 1.15625 0.40625 1.703125q0.40625 0.546875 1.421875 0.8125l-0.21875 1.609375q-1.015625 -0.21875 -1.640625 -0.71875q-0.640625 -0.5 -0.984375 -1.453125q-0.34375 -0.953125 -0.34375 -2.1875q0 -1.25 0.296875 -2.015625q0.28125 -0.78125 0.734375 -1.140625q0.4375 -0.375 1.109375 -0.515625q0.421875 -0.078125 1.515625 -0.078125l2.1875 0q2.28125 0 2.890625 -0.109375q0.59375 -0.109375 1.15625 -0.40625l0 1.703125q-0.515625 0.265625 -1.1875 0.328125zm-3.671875 0.140625q0.375 0.890625 0.625 2.671875q0.140625 1.015625 0.328125 1.4375q0.1875 0.421875 0.53125 0.65625q0.34375 0.21875 0.78125 0.21875q0.65625 0 1.09375 -0.5q0.4375 -0.5 0.4375 -1.453125q0 -0.9375 -0.40625 -1.671875q-0.421875 -0.75 -1.140625 -1.09375q-0.5625 -0.265625 -1.640625 -0.265625l-0.609375 0zm3.390625 -7.7819824l1.453125 -0.234375q0.140625 0.6875 0.140625 1.234375q0 0.890625 -0.28125 1.390625q-0.28125 0.484375 -0.734375 0.6875q-0.46875 0.203125 -1.9375 0.203125l-5.578125 0l0 1.203125l-1.265625 0l0 -1.203125l-2.390625 0l-0.984375 -1.625l3.375 0l0 -1.65625l1.265625 0l0 1.65625l5.671875 0q0.6875 0 0.890625 -0.078125q0.203125 -0.09375 0.328125 -0.28125q0.109375 -0.203125 0.109375 -0.578125q0 -0.265625 -0.0625 -0.71875zm1.46875 -7.9332886l-1.421875 0q1.640625 1.125 1.640625 3.0625q0 0.859375 -0.328125 1.609375q-0.328125 0.734375 -0.828125 1.09375q-0.5 0.359375 -1.21875 0.5q-0.46875 0.109375 -1.53125 0.109375l-5.984375 0l0 -1.640625l5.359375 0q1.28125 0 1.734375 -0.109375q0.640625 -0.15625 1.015625 -0.65625q0.375 -0.5 0.375 -1.234375q0 -0.734375 -0.375 -1.375q-0.390625 -0.65625 -1.03125 -0.921875q-0.65625 -0.265625 -1.890625 -0.265625l-5.1875 0l0 -1.640625l9.671875 0l0 1.46875zm0 -4.0319824l-9.671875 0l0 -1.46875l1.46875 0q-1.03125 -0.5625 -1.359375 -1.03125q-0.328125 -0.484375 -0.328125 -1.0625q0 -0.828125 0.53125 -1.6875l1.515625 0.5625q-0.359375 0.609375 -0.359375 1.203125q0 0.546875 0.328125 0.96875q0.328125 0.421875 0.890625 0.609375q0.875 0.28125 1.921875 0.28125l5.0625 0l0 1.625zm-3.109375 -12.853302l0.203125 -1.6875q1.484375 0.40625 2.3125 1.484375q0.8125 1.078125 0.8125 2.765625q0 2.125 -1.296875 3.375q-1.3125 1.234375 -3.671875 1.234375q-2.453125 0 -3.796875 -1.25q-1.34375 -1.265625 -1.34375 -3.265625q0 -1.9375 1.328125 -3.15625q1.3125 -1.234375 3.703125 -1.234375q0.15625 0 0.4375 0l0 7.21875q1.59375 -0.09375 2.453125 -0.90625q0.84375 -0.8125 0.84375 -2.015625q0 -0.90625 -0.46875 -1.546875q-0.484375 -0.640625 -1.515625 -1.015625zm-2.65625 5.390625l0 -5.40625q-1.21875 0.109375 -1.828125 0.625q-0.953125 0.78125 -0.953125 2.03125q0 1.125 0.765625 1.90625q0.75 0.765625 2.015625 0.84375zm5.765625 -20.043396l0 1.640625l-10.453125 0q0.5625 0.59375 1.140625 1.5625q0.5625 0.953125 0.84375 1.71875l-1.59375 0q-0.640625 -1.375 -1.5625 -2.40625q-0.921875 -1.03125 -1.78125 -1.453125l0 -1.0625l13.40625 0z" fill-rule="nonzero"/><path fill="#ffffff" d="m585.57855 372.6314l-1.875 0l0 -1.875l1.875 0l0 1.875z" fill-rule="nonzero"/><path fill="#ffffff" d="m607.9785 372.6314l-1.875 0l0 -1.875l1.875 0l0 1.875z" fill-rule="nonzero"/><path fill="#ffffff" d="m630.37854 372.6314l-1.875 0l0 -1.875l1.875 0l0 1.875z" fill-rule="nonzero"/><path fill="#ffffff" d="m652.7785 372.6314l-1.875 0l0 -1.875l1.875 0l0 1.875z" fill-rule="nonzero"/><path fill="#ffffff" d="m675.1785 372.6314l-1.875 0l0 -1.875l1.875 0l0 1.875z" fill-rule="nonzero"/><path fill="#ffffff" d="m697.5785 372.6314l-1.875 0l0 -1.875l1.875 0l0 1.875z" fill-rule="nonzero"/><path fill="#ffffff" d="m719.9785 372.6314l-1.875 0l0 -1.875l1.875 0l0 1.875z" fill-rule="nonzero"/><path fill="#ffffff" d="m742.3785 372.6314l-1.875 0l0 -1.875l1.875 0l0 1.875z" fill-rule="nonzero"/><path fill="#ffffff" d="m764.7785 372.6314l-1.875 0l0 -1.875l1.875 0l0 1.875z" fill-rule="nonzero"/><path fill="#ffffff" d="m787.17847 372.6314l-1.875 0l0 -1.875l1.875 0l0 1.875z" fill-rule="nonzero"/><path fill="#ffffff" d="m809.5785 372.6314l-1.875 0l0 -1.875l1.875 0l0 1.875z" fill-rule="nonzero"/><path fill="#ffffff" d="m831.9785 372.6314l-1.875 0l0 -1.875l1.875 0l0 1.875z" fill-rule="nonzero"/><path fill="#ffffff" d="m854.37854 372.6314l-1.875 0l0 -1.875l1.875 0l0 1.875z" fill-rule="nonzero"/><path fill="#ffffff" d="m876.77856 372.6314l-1.875 0l0 -1.875l1.875 0l0 1.875z" fill-rule="nonzero"/><path fill="#ffffff" d="m899.1786 372.6939l-8.40625 0l0 1.453125l-1.265625 0l0 -1.453125l-1.03125 0q-0.96875 0 -1.453125 -0.171875q-0.640625 -0.234375 -1.03125 -0.828125q-0.390625 -0.59375 -0.390625 -1.671875q0 -0.6875 0.15625 -1.53125l1.4375 0.25q-0.09375 0.5 -0.09375 0.953125q0 0.75 0.328125 1.0625q0.3125 0.3125 1.1875 0.3125l0.890625 0l0 -1.890625l1.265625 0l0 1.890625l8.40625 0l0 1.625zm-3.109375 -11.417694l0.203125 -1.6875q1.484375 0.40625 2.3125 1.484375q0.8125 1.078125 0.8125 2.765625q0 2.125 -1.296875 3.375q-1.3125 1.234375 -3.671875 1.234375q-2.453125 0 -3.796875 -1.25q-1.34375 -1.265625 -1.34375 -3.265625q0 -1.9375 1.328125 -3.15625q1.3125 -1.234375 3.703125 -1.234375q0.15625 0 0.4375 0l0 7.21875q1.59375 -0.09375 2.453125 -0.90625q0.84375 -0.8125 0.84375 -2.015625q0 -0.90625 -0.46875 -1.546875q-0.484375 -0.640625 -1.515625 -1.015625zm-2.65625 5.390625l0 -5.40625q-1.21875 0.109375 -1.828125 0.625q-0.953125 0.78125 -0.953125 2.03125q0 1.125 0.765625 1.90625q0.75 0.765625 2.015625 0.84375zm4.578125 -15.453827q0.765625 0.921875 1.09375 1.765625q0.3125 0.828125 0.3125 1.796875q0 1.59375 -0.78125 2.453125q-0.78125 0.859375 -1.984375 0.859375q-0.71875 0 -1.296875 -0.328125q-0.59375 -0.328125 -0.9375 -0.84375q-0.359375 -0.53125 -0.546875 -1.1875q-0.125 -0.46875 -0.25 -1.453125q-0.234375 -1.984375 -0.5625 -2.921875q-0.34375 -0.015625 -0.421875 -0.015625q-1.0 0 -1.421875 0.46875q-0.546875 0.625 -0.546875 1.875q0 1.15625 0.40625 1.703125q0.40625 0.546875 1.421875 0.8125l-0.21875 1.609375q-1.015625 -0.21875 -1.640625 -0.71875q-0.640625 -0.5 -0.984375 -1.453125q-0.34375 -0.953125 -0.34375 -2.1875q0 -1.25 0.296875 -2.015625q0.28125 -0.78125 0.734375 -1.140625q0.4375 -0.375 1.109375 -0.515625q0.421875 -0.078125 1.515625 -0.078125l2.1875 0q2.28125 0 2.890625 -0.109375q0.59375 -0.109375 1.15625 -0.40625l0 1.703125q-0.515625 0.265625 -1.1875 0.328125zm-3.671875 0.140625q0.375 0.890625 0.625 2.671875q0.140625 1.015625 0.328125 1.4375q0.1875 0.421875 0.53125 0.65625q0.34375 0.21875 0.78125 0.21875q0.65625 0 1.09375 -0.5q0.4375 -0.5 0.4375 -1.453125q0 -0.9375 -0.40625 -1.671875q-0.421875 -0.75 -1.140625 -1.09375q-0.5625 -0.265625 -1.640625 -0.265625l-0.609375 0zm3.390625 -7.7819824l1.453125 -0.234375q0.140625 0.6875 0.140625 1.234375q0 0.890625 -0.28125 1.390625q-0.28125 0.484375 -0.734375 0.6875q-0.46875 0.203125 -1.9375 0.203125l-5.578125 0l0 1.203125l-1.265625 0l0 -1.203125l-2.390625 0l-0.984375 -1.625l3.375 0l0 -1.65625l1.265625 0l0 1.65625l5.671875 0q0.6875 0 0.890625 -0.078125q0.203125 -0.09375 0.328125 -0.28125q0.109375 -0.203125 0.109375 -0.578125q0 -0.265625 -0.0625 -0.71875zm1.46875 -7.9332886l-1.421875 0q1.640625 1.125 1.640625 3.0625q0 0.859375 -0.328125 1.609375q-0.328125 0.734375 -0.828125 1.09375q-0.5 0.359375 -1.21875 0.5q-0.46875 0.109375 -1.53125 0.109375l-5.984375 0l0 -1.640625l5.359375 0q1.28125 0 1.734375 -0.109375q0.640625 -0.15625 1.015625 -0.65625q0.375 -0.5 0.375 -1.234375q0 -0.734375 -0.375 -1.375q-0.390625 -0.65625 -1.03125 -0.921875q-0.65625 -0.265625 -1.890625 -0.265625l-5.1875 0l0 -1.640625l9.671875 0l0 1.46875zm0 -4.0319824l-9.671875 0l0 -1.46875l1.46875 0q-1.03125 -0.5625 -1.359375 -1.03125q-0.328125 -0.484375 -0.328125 -1.0625q0 -0.828125 0.53125 -1.6875l1.515625 0.5625q-0.359375 0.609375 -0.359375 1.203125q0 0.546875 0.328125 0.96875q0.328125 0.421875 0.890625 0.609375q0.875 0.28125 1.921875 0.28125l5.0625 0l0 1.625zm-3.109375 -12.853302l0.203125 -1.6875q1.484375 0.40625 2.3125 1.484375q0.8125 1.078125 0.8125 2.765625q0 2.125 -1.296875 3.375q-1.3125 1.234375 -3.671875 1.234375q-2.453125 0 -3.796875 -1.25q-1.34375 -1.265625 -1.34375 -3.265625q0 -1.9375 1.328125 -3.15625q1.3125 -1.234375 3.703125 -1.234375q0.15625 0 0.4375 0l0 7.21875q1.59375 -0.09375 2.453125 -0.90625q0.84375 -0.8125 0.84375 -2.015625q0 -0.90625 -0.46875 -1.546875q-0.484375 -0.640625 -1.515625 -1.015625zm-2.65625 5.390625l0 -5.40625q-1.21875 0.109375 -1.828125 0.625q-0.953125 0.78125 -0.953125 2.03125q0 1.125 0.765625 1.90625q0.75 0.765625 2.015625 0.84375zm5.765625 -20.043396l0 1.640625l-10.453125 0q0.5625 0.59375 1.140625 1.5625q0.5625 0.953125 0.84375 1.71875l-1.59375 0q-0.640625 -1.375 -1.5625 -2.40625q-0.921875 -1.03125 -1.78125 -1.453125l0 -1.0625l13.40625 0zm0 -4.781952l-13.359375 0l0 -5.015625q0 -1.53125 0.40625 -2.453125q0.40625 -0.921875 1.25 -1.4375q0.84375 -0.53125 1.765625 -0.53125q0.859375 0 1.625 0.46875q0.75 0.453125 1.203125 1.390625q0.359375 -1.203125 1.21875 -1.859375q0.859375 -0.65625 2.015625 -0.65625q0.9375 0 1.75 0.40625q0.796875 0.390625 1.234375 0.984375q0.4375 0.578125 0.671875 1.453125q0.21875 0.875 0.21875 2.15625l0 5.09375zm-7.75 -1.78125l0 -2.875q0 -1.1875 -0.140625 -1.6875q-0.203125 -0.671875 -0.671875 -1.015625q-0.46875 -0.34375 -1.171875 -0.34375q-0.65625 0 -1.15625 0.328125q-0.515625 0.3125 -0.703125 0.90625q-0.1875 0.59375 -0.1875 2.03125l0 2.65625l4.03125 0zm6.171875 0l0 -3.3125q0 -0.859375 -0.0625 -1.203125q-0.109375 -0.609375 -0.359375 -1.015625q-0.265625 -0.421875 -0.75 -0.6875q-0.484375 -0.265625 -1.125 -0.265625q-0.75 0 -1.296875 0.390625q-0.546875 0.375 -0.765625 1.0625q-0.234375 0.671875 -0.234375 1.953125l0 3.078125l4.59375 0z" fill-rule="nonzero"/><path fill="#ffffff" d="m393.1719 383.3189l135.08664 0l0 132.5039l-135.08664 0z" fill-rule="evenodd"/><path stroke="#ffffff" stroke-width="1.0" stroke-linejoin="round" stroke-linecap="butt" d="m393.1719 383.3189l135.08664 0l0 132.5039l-135.08664 0z" fill-rule="evenodd"/><path fill="#ffffff" d="m444.13675 407.34827l1.625 -0.25q0.125 0.96875 0.75 1.5q0.625 0.515625 1.75 0.515625q1.125 0 1.671875 -0.453125q0.546875 -0.46875 0.546875 -1.09375q0 -0.546875 -0.484375 -0.875q-0.328125 -0.21875 -1.671875 -0.546875q-1.8125 -0.46875 -2.515625 -0.796875q-0.6875 -0.328125 -1.046875 -0.90625q-0.359375 -0.59375 -0.359375 -1.3125q0 -0.640625 0.296875 -1.1875q0.296875 -0.5625 0.8125 -0.921875q0.375 -0.28125 1.03125 -0.46875q0.671875 -0.203125 1.421875 -0.203125q1.140625 0 2.0 0.328125q0.859375 0.328125 1.265625 0.890625q0.421875 0.5625 0.578125 1.5l-1.609375 0.21875q-0.109375 -0.75 -0.640625 -1.171875q-0.515625 -0.421875 -1.46875 -0.421875q-1.140625 0 -1.625 0.375q-0.46875 0.375 -0.46875 0.875q0 0.3125 0.1875 0.578125q0.203125 0.265625 0.640625 0.4375q0.234375 0.09375 1.4375 0.421875q1.75 0.453125 2.4375 0.75q0.6875 0.296875 1.078125 0.859375q0.390625 0.5625 0.390625 1.40625q0 0.828125 -0.484375 1.546875q-0.46875 0.71875 -1.375 1.125q-0.90625 0.390625 -2.046875 0.390625q-1.875 0 -2.875 -0.78125q-0.984375 -0.78125 -1.25 -2.328125zm16.296875 1.703125q-0.921875 0.765625 -1.765625 1.09375q-0.828125 0.3125 -1.796875 0.3125q-1.59375 0 -2.453125 -0.78125q-0.859375 -0.78125 -0.859375 -1.984375q0 -0.71875 0.328125 -1.296875q0.328125 -0.59375 0.84375 -0.9375q0.53125 -0.359375 1.1875 -0.546875q0.46875 -0.125 1.453125 -0.25q1.984375 -0.234375 2.921875 -0.5625q0.015625 -0.34375 0.015625 -0.421875q0 -1.0 -0.46875 -1.421875q-0.625 -0.546875 -1.875 -0.546875q-1.15625 0 -1.703125 0.40625q-0.546875 0.40625 -0.8125 1.421875l-1.609375 -0.21875q0.21875 -1.015625 0.71875 -1.640625q0.5 -0.640625 1.453125 -0.984375q0.953125 -0.34375 2.1875 -0.34375q1.25 0 2.015625 0.296875q0.78125 0.28125 1.140625 0.734375q0.375 0.4375 0.515625 1.109375q0.078125 0.421875 0.078125 1.515625l0 2.1875q0 2.28125 0.109375 2.890625q0.109375 0.59375 0.40625 1.15625l-1.703125 0q-0.265625 -0.515625 -0.328125 -1.1875zm-0.140625 -3.671875q-0.890625 0.375 -2.671875 0.625q-1.015625 0.140625 -1.4375 0.328125q-0.421875 0.1875 -0.65625 0.53125q-0.21875 0.34375 -0.21875 0.78125q0 0.65625 0.5 1.09375q0.5 0.4375 1.453125 0.4375q0.9375 0 1.671875 -0.40625q0.75 -0.421875 1.09375 -1.140625q0.265625 -0.5625 0.265625 -1.640625l0 -0.609375zm4.203827 4.859375l0 -9.671875l1.46875 0l0 1.359375q0.453125 -0.71875 1.203125 -1.140625q0.765625 -0.4375 1.71875 -0.4375q1.078125 0 1.765625 0.453125q0.6875 0.4375 0.96875 1.234375q1.15625 -1.6875 2.984375 -1.6875q1.453125 0 2.21875 0.796875q0.78125 0.796875 0.78125 2.453125l0 6.640625l-1.640625 0l0 -6.09375q0 -0.984375 -0.15625 -1.40625q-0.15625 -0.4375 -0.578125 -0.703125q-0.421875 -0.265625 -0.984375 -0.265625q-1.015625 0 -1.6875 0.6875q-0.671875 0.671875 -0.671875 2.15625l0 5.625l-1.640625 0l0 -6.28125q0 -1.09375 -0.40625 -1.640625q-0.40625 -0.546875 -1.3125 -0.546875q-0.6875 0 -1.28125 0.359375q-0.59375 0.359375 -0.859375 1.0625q-0.25 0.703125 -0.25 2.03125l0 5.015625l-1.640625 0zm15.540802 3.703125l0 -13.375l1.484375 0l0 1.25q0.53125 -0.734375 1.1875 -1.09375q0.671875 -0.375 1.625 -0.375q1.234375 0 2.171875 0.640625q0.953125 0.625 1.4375 1.796875q0.484375 1.15625 0.484375 2.546875q0 1.484375 -0.53125 2.671875q-0.53125 1.1875 -1.546875 1.828125q-1.015625 0.625 -2.140625 0.625q-0.8125 0 -1.46875 -0.34375q-0.65625 -0.34375 -1.0625 -0.875l0 4.703125l-1.640625 0zm1.484375 -8.484375q0 1.859375 0.75 2.765625q0.765625 0.890625 1.828125 0.890625q1.09375 0 1.875 -0.921875q0.78125 -0.9375 0.78125 -2.875q0 -1.84375 -0.765625 -2.765625q-0.75 -0.921875 -1.8125 -0.921875q-1.046875 0 -1.859375 0.984375q-0.796875 0.96875 -0.796875 2.84375zm8.844482 4.78125l0 -13.359375l1.640625 0l0 13.359375l-1.640625 0zm10.816681 -3.109375l1.6875 0.203125q-0.40625 1.484375 -1.484375 2.3125q-1.078125 0.8125 -2.765625 0.8125q-2.125 0 -3.375 -1.296875q-1.234375 -1.3125 -1.234375 -3.671875q0 -2.453125 1.25 -3.796875q1.265625 -1.34375 3.265625 -1.34375q1.9375 0 3.15625 1.328125q1.234375 1.3125 1.234375 3.703125q0 0.15625 0 0.4375l-7.21875 0q0.09375 1.59375 0.90625 2.453125q0.8125 0.84375 2.015625 0.84375q0.90625 0 1.546875 -0.46875q0.640625 -0.484375 1.015625 -1.515625zm-5.390625 -2.65625l5.40625 0q-0.109375 -1.21875 -0.625 -1.828125q-0.78125 -0.953125 -2.03125 -0.953125q-1.125 0 -1.90625 0.765625q-0.765625 0.75 -0.84375 2.015625zm20.043396 5.765625l-1.640625 0l0 -10.453125q-0.59375 0.5625 -1.5625 1.140625q-0.953125 0.5625 -1.71875 0.84375l0 -1.59375q1.375 -0.640625 2.40625 -1.5625q1.03125 -0.921875 1.453125 -1.78125l1.0625 0l0 13.40625z" fill-rule="nonzero"/><path fill="#ffffff" d="m515.76276 432.6389l0 -1.875l1.875 0l0 1.875l-1.875 0z" fill-rule="nonzero"/><path fill="#ffffff" d="m515.76276 455.03888l0 -1.875l1.875 0l0 1.875l-1.875 0z" fill-rule="nonzero"/><path fill="#ffffff" d="m515.76276 477.4389l0 -1.875l1.875 0l0 1.875l-1.875 0z" fill-rule="nonzero"/><path fill="#ffffff" d="m423.3853 496.94827l1.625 -0.25q0.125 0.96875 0.75 1.5q0.625 0.515625 1.75 0.515625q1.125 0 1.671875 -0.453125q0.546875 -0.46875 0.546875 -1.09375q0 -0.546875 -0.484375 -0.875q-0.328125 -0.21875 -1.671875 -0.546875q-1.8125 -0.46875 -2.515625 -0.796875q-0.6875 -0.328125 -1.046875 -0.90625q-0.359375 -0.59375 -0.359375 -1.3125q0 -0.640625 0.296875 -1.1875q0.296875 -0.5625 0.8125 -0.921875q0.375 -0.28125 1.03125 -0.46875q0.671875 -0.203125 1.421875 -0.203125q1.140625 0 2.0 0.328125q0.859375 0.328125 1.265625 0.890625q0.421875 0.5625 0.578125 1.5l-1.609375 0.21875q-0.109375 -0.75 -0.640625 -1.171875q-0.515625 -0.421875 -1.46875 -0.421875q-1.140625 0 -1.625 0.375q-0.46875 0.375 -0.46875 0.875q0 0.3125 0.1875 0.578125q0.203125 0.265625 0.640625 0.4375q0.234375 0.09375 1.4375 0.421875q1.75 0.453125 2.4375 0.75q0.6875 0.296875 1.078125 0.859375q0.390625 0.5625 0.390625 1.40625q0 0.828125 -0.484375 1.546875q-0.46875 0.71875 -1.375 1.125q-0.90625 0.390625 -2.046875 0.390625q-1.875 0 -2.875 -0.78125q-0.984375 -0.78125 -1.25 -2.328125zm16.296875 1.703125q-0.921875 0.765625 -1.765625 1.09375q-0.828125 0.3125 -1.796875 0.3125q-1.59375 0 -2.453125 -0.78125q-0.859375 -0.78125 -0.859375 -1.984375q0 -0.71875 0.328125 -1.296875q0.328125 -0.59375 0.84375 -0.9375q0.53125 -0.359375 1.1875 -0.546875q0.46875 -0.125 1.453125 -0.25q1.984375 -0.234375 2.921875 -0.5625q0.015625 -0.34375 0.015625 -0.421875q0 -1.0 -0.46875 -1.421875q-0.625 -0.546875 -1.875 -0.546875q-1.15625 0 -1.703125 0.40625q-0.546875 0.40625 -0.8125 1.421875l-1.609375 -0.21875q0.21875 -1.015625 0.71875 -1.640625q0.5 -0.640625 1.453125 -0.984375q0.953125 -0.34375 2.1875 -0.34375q1.25 0 2.015625 0.296875q0.78125 0.28125 1.140625 0.734375q0.375 0.4375 0.515625 1.109375q0.078125 0.421875 0.078125 1.515625l0 2.1875q0 2.28125 0.109375 2.890625q0.109375 0.59375 0.40625 1.15625l-1.703125 0q-0.265625 -0.515625 -0.328125 -1.1875zm-0.140625 -3.671875q-0.890625 0.375 -2.671875 0.625q-1.015625 0.140625 -1.4375 0.328125q-0.421875 0.1875 -0.65625 0.53125q-0.21875 0.34375 -0.21875 0.78125q0 0.65625 0.5 1.09375q0.5 0.4375 1.453125 0.4375q0.9375 0 1.671875 -0.40625q0.75 -0.421875 1.09375 -1.140625q0.265625 -0.5625 0.265625 -1.640625l0 -0.609375zm4.203827 4.859375l0 -9.671875l1.46875 0l0 1.359375q0.453125 -0.71875 1.203125 -1.140625q0.765625 -0.4375 1.71875 -0.4375q1.078125 0 1.765625 0.453125q0.6875 0.4375 0.96875 1.234375q1.15625 -1.6875 2.984375 -1.6875q1.453125 0 2.21875 0.796875q0.78125 0.796875 0.78125 2.453125l0 6.640625l-1.640625 0l0 -6.09375q0 -0.984375 -0.15625 -1.40625q-0.15625 -0.4375 -0.578125 -0.703125q-0.421875 -0.265625 -0.984375 -0.265625q-1.015625 0 -1.6875 0.6875q-0.671875 0.671875 -0.671875 2.15625l0 5.625l-1.640625 0l0 -6.28125q0 -1.09375 -0.40625 -1.640625q-0.40625 -0.546875 -1.3125 -0.546875q-0.6875 0 -1.28125 0.359375q-0.59375 0.359375 -0.859375 1.0625q-0.25 0.703125 -0.25 2.03125l0 5.015625l-1.640625 0zm15.540802 3.703125l0 -13.375l1.484375 0l0 1.25q0.53125 -0.734375 1.1875 -1.09375q0.671875 -0.375 1.625 -0.375q1.234375 0 2.171875 0.640625q0.953125 0.625 1.4375 1.796875q0.484375 1.15625 0.484375 2.546875q0 1.484375 -0.53125 2.671875q-0.53125 1.1875 -1.546875 1.828125q-1.015625 0.625 -2.140625 0.625q-0.8125 0 -1.46875 -0.34375q-0.65625 -0.34375 -1.0625 -0.875l0 4.703125l-1.640625 0zm1.484375 -8.484375q0 1.859375 0.75 2.765625q0.765625 0.890625 1.828125 0.890625q1.09375 0 1.875 -0.921875q0.78125 -0.9375 0.78125 -2.875q0 -1.84375 -0.765625 -2.765625q-0.75 -0.921875 -1.8125 -0.921875q-1.046875 0 -1.859375 0.984375q-0.796875 0.96875 -0.796875 2.84375zm8.844482 4.78125l0 -13.359375l1.640625 0l0 13.359375l-1.640625 0zm10.816681 -3.109375l1.6875 0.203125q-0.40625 1.484375 -1.484375 2.3125q-1.078125 0.8125 -2.765625 0.8125q-2.125 0 -3.375 -1.296875q-1.234375 -1.3125 -1.234375 -3.671875q0 -2.453125 1.25 -3.796875q1.265625 -1.34375 3.265625 -1.34375q1.9375 0 3.15625 1.328125q1.234375 1.3125 1.234375 3.703125q0 0.15625 0 0.4375l-7.21875 0q0.09375 1.59375 0.90625 2.453125q0.8125 0.84375 2.015625 0.84375q0.90625 0 1.546875 -0.46875q0.640625 -0.484375 1.015625 -1.515625zm-5.390625 -2.65625l5.40625 0q-0.109375 -1.21875 -0.625 -1.828125q-0.78125 -0.953125 -2.03125 -0.953125q-1.125 0 -1.90625 0.765625q-0.765625 0.75 -0.84375 2.015625zm20.043396 5.765625l-1.640625 0l0 -10.453125q-0.59375 0.5625 -1.5625 1.140625q-0.953125 0.5625 -1.71875 0.84375l0 -1.59375q1.375 -0.640625 2.40625 -1.5625q1.03125 -0.921875 1.453125 -1.78125l1.0625 0l0 13.40625zm4.2038574 -6.59375q0 -2.359375 0.484375 -3.796875q0.484375 -1.453125 1.4375 -2.234375q0.96875 -0.78125 2.421875 -0.78125q1.078125 0 1.890625 0.4375q0.8125 0.421875 1.328125 1.25q0.53125 0.8125 0.828125 1.984375q0.3125 1.15625 0.3125 3.140625q0 2.359375 -0.484375 3.8125q-0.484375 1.4375 -1.453125 2.234375q-0.953125 0.78125 -2.421875 0.78125q-1.921875 0 -3.03125 -1.390625q-1.3125 -1.671875 -1.3125 -5.4375zm1.671875 0q0 3.296875 0.765625 4.390625q0.78125 1.078125 1.90625 1.078125q1.140625 0 1.90625 -1.09375q0.765625 -1.09375 0.765625 -4.375q0 -3.296875 -0.765625 -4.375q-0.765625 -1.078125 -1.921875 -1.078125q-1.125 0 -1.796875 0.953125q-0.859375 1.21875 -0.859375 4.5zm8.703827 0q0 -2.359375 0.484375 -3.796875q0.484375 -1.453125 1.4375 -2.234375q0.96875 -0.78125 2.421875 -0.78125q1.078125 0 1.890625 0.4375q0.8125 0.421875 1.328125 1.25q0.53125 0.8125 0.828125 1.984375q0.3125 1.15625 0.3125 3.140625q0 2.359375 -0.484375 3.8125q-0.484375 1.4375 -1.453125 2.234375q-0.953125 0.78125 -2.421875 0.78125q-1.921875 0 -3.03125 -1.390625q-1.3125 -1.671875 -1.3125 -5.4375zm1.671875 0q0 3.296875 0.765625 4.390625q0.78125 1.078125 1.90625 1.078125q1.140625 0 1.90625 -1.09375q0.765625 -1.09375 0.765625 -4.375q0 -3.296875 -0.765625 -4.375q-0.765625 -1.078125 -1.921875 -1.078125q-1.125 0 -1.796875 0.953125q-0.859375 1.21875 -0.859375 4.5z" fill-rule="nonzero"/></g></svg>