<svg id="Layer_1" data-name="Layer 1" xmlns="http://www.w3.org/2000/svg" xmlns:xlink="http://www.w3.org/1999/xlink" viewBox="0 0 657.87 417.3"><defs><style>.cls-1,.cls-72{fill:none;}.cls-2{stroke:#000;}.cls-18,.cls-2,.cls-20,.cls-21,.cls-24,.cls-3,.cls-4,.cls-67,.cls-72,.cls-74,.cls-75{stroke-miterlimit:10;}.cls-19,.cls-3{fill:#f1f2f2;}.cls-3{stroke:#f1f2f2;}.cls-24,.cls-3,.cls-72,.cls-74{stroke-width:0.75px;}.cls-17,.cls-18,.cls-20,.cls-21,.cls-22,.cls-23,.cls-24,.cls-4,.cls-67,.cls-68{fill:#fff;}.cls-18,.cls-20,.cls-21,.cls-24,.cls-4,.cls-67{stroke:#fff;}.cls-5{clip-path:url(#clip-path);}.cls-6{fill:url(#linear-gradient);}.cls-7{clip-path:url(#clip-path-2);}.cls-8{fill:url(#linear-gradient-2);}.cls-9{clip-path:url(#clip-path-3);}.cls-10{fill:url(#linear-gradient-3);}.cls-11{clip-path:url(#clip-path-4);}.cls-12{fill:url(#linear-gradient-4);}.cls-13{clip-path:url(#clip-path-5);}.cls-14{fill:url(#linear-gradient-5);}.cls-15{clip-path:url(#clip-path-6);}.cls-16{fill:url(#linear-gradient-6);}.cls-17,.cls-18,.cls-19,.cls-20,.cls-22,.cls-69,.cls-70,.cls-71{font-size:16px;}.cls-17,.cls-18,.cls-19{font-family:Arial-BoldMT, Arial;font-weight:700;}.cls-20,.cls-21,.cls-22,.cls-67,.cls-68,.cls-69,.cls-70,.cls-71{font-family:ArialMT, Arial;}.cls-21{font-size:9.33px;}.cls-25{clip-path:url(#clip-path-7);}.cls-26{fill:url(#linear-gradient-7);}.cls-27{clip-path:url(#clip-path-8);}.cls-28{fill:url(#linear-gradient-8);}.cls-29{clip-path:url(#clip-path-9);}.cls-30{fill:url(#linear-gradient-9);}.cls-31{clip-path:url(#clip-path-10);}.cls-32{fill:url(#linear-gradient-10);}.cls-33{clip-path:url(#clip-path-11);}.cls-34{fill:url(#linear-gradient-11);}.cls-35{clip-path:url(#clip-path-12);}.cls-36{fill:url(#linear-gradient-12);}.cls-37{clip-path:url(#clip-path-13);}.cls-38{fill:url(#linear-gradient-13);}.cls-39{clip-path:url(#clip-path-14);}.cls-40{fill:url(#linear-gradient-14);}.cls-41{clip-path:url(#clip-path-15);}.cls-42{fill:url(#linear-gradient-15);}.cls-43{clip-path:url(#clip-path-16);}.cls-44{fill:url(#linear-gradient-16);}.cls-45{clip-path:url(#clip-path-17);}.cls-46{fill:url(#linear-gradient-17);}.cls-47{clip-path:url(#clip-path-18);}.cls-48{fill:url(#linear-gradient-18);}.cls-49{clip-path:url(#clip-path-19);}.cls-50{fill:url(#linear-gradient-19);}.cls-51{clip-path:url(#clip-path-20);}.cls-52{fill:url(#linear-gradient-20);}.cls-53{clip-path:url(#clip-path-21);}.cls-54{fill:url(#linear-gradient-21);}.cls-55{clip-path:url(#clip-path-22);}.cls-56{fill:url(#linear-gradient-22);}.cls-57{clip-path:url(#clip-path-23);}.cls-58{fill:url(#linear-gradient-23);}.cls-59{clip-path:url(#clip-path-24);}.cls-60{fill:url(#linear-gradient-24);}.cls-61{clip-path:url(#clip-path-25);}.cls-62{fill:url(#linear-gradient-25);}.cls-63{clip-path:url(#clip-path-26);}.cls-64{fill:url(#linear-gradient-26);}.cls-65{clip-path:url(#clip-path-27);}.cls-66{fill:url(#linear-gradient-27);}.cls-67,.cls-68{font-size:16px;}.cls-69{fill:#295860;}.cls-70{fill:#96c;}.cls-71{fill:#2b7a4b;}.cls-72{stroke:#f33;}.cls-73{fill:#f33;}.cls-74,.cls-75{fill:#ed1c24;stroke:#ed1c24;}.cls-76{clip-path:url(#clip-path-28);}.cls-77{fill:url(#linear-gradient-28);}.cls-78{clip-path:url(#clip-path-29);}.cls-79{fill:url(#linear-gradient-29);}.cls-80{clip-path:url(#clip-path-30);}.cls-81{fill:url(#linear-gradient-30);}.cls-82{clip-path:url(#clip-path-31);}.cls-83{fill:url(#linear-gradient-31);}.cls-84{clip-path:url(#clip-path-32);}.cls-85{fill:url(#linear-gradient-32);}.cls-86{clip-path:url(#clip-path-33);}.cls-87{fill:url(#linear-gradient-33);}</style><clipPath id="clip-path" transform="translate(-192.85 -87.78)"><path class="cls-1" d="M387.57,422A19.43,19.43,0,1,0,407,402.53,19.42,19.42,0,0,0,387.57,422"/></clipPath><linearGradient id="linear-gradient" x1="-112.32" y1="611.25" x2="-108.43" y2="611.25" gradientTransform="matrix(34.63, 17.64, 17.64, -34.63, -6833.55, 23447.82)" gradientUnits="userSpaceOnUse"><stop offset="0" stop-color="#b86328"/><stop offset="1" stop-color="#d3793c"/></linearGradient><clipPath id="clip-path-2" transform="translate(-192.85 -87.78)"><path class="cls-1" d="M436.56,422A19.43,19.43,0,1,0,456,402.53,19.42,19.42,0,0,0,436.56,422"/></clipPath><linearGradient id="linear-gradient-2" x1="-108.93" y1="612.25" x2="-107.93" y2="612.25" gradientTransform="matrix(0, 38.86, 38.86, 0, -23338.02, 4635.79)" xlink:href="#linear-gradient"/><clipPath id="clip-path-3" transform="translate(-192.85 -87.78)"><path class="cls-1" d="M504.5,422a19.43,19.43,0,1,0,19.43-19.42A19.43,19.43,0,0,0,504.5,422"/></clipPath><linearGradient id="linear-gradient-3" x1="-108.93" y1="612.25" x2="-107.93" y2="612.25" gradientTransform="matrix(0, 38.86, 38.86, 0, -23270.07, 4635.8)" xlink:href="#linear-gradient"/><clipPath id="clip-path-4" transform="translate(-192.85 -87.78)"><path class="cls-1" d="M378.57,220.2A19.43,19.43,0,1,0,398,200.77a19.42,19.42,0,0,0-19.42,19.43"/></clipPath><linearGradient id="linear-gradient-4" x1="-112.32" y1="611.25" x2="-108.43" y2="611.25" gradientTransform="matrix(34.63, 17.64, 17.64, -34.63, -6842.55, 23246.07)" gradientUnits="userSpaceOnUse"><stop offset="0" stop-color="#568da3"/><stop offset="1" stop-color="#6cacc4"/></linearGradient><clipPath id="clip-path-5" transform="translate(-192.85 -87.78)"><path class="cls-1" d="M427.56,220.2A19.43,19.43,0,1,0,447,200.77a19.42,19.42,0,0,0-19.42,19.43"/></clipPath><linearGradient id="linear-gradient-5" x1="-108.93" y1="612.25" x2="-107.93" y2="612.25" gradientTransform="matrix(0, 38.86, 38.86, 0, -23347.02, 4434.04)" xlink:href="#linear-gradient-4"/><clipPath id="clip-path-6" transform="translate(-192.85 -87.78)"><path class="cls-1" d="M495.5,220.2a19.43,19.43,0,1,0,19.43-19.43A19.43,19.43,0,0,0,495.5,220.2"/></clipPath><linearGradient id="linear-gradient-6" x1="-108.93" y1="612.25" x2="-107.93" y2="612.25" gradientTransform="matrix(0, 38.86, 38.86, 0, -23279.07, 4434.04)" xlink:href="#linear-gradient-4"/><clipPath id="clip-path-7" transform="translate(-192.85 -87.78)"><path class="cls-1" d="M387.57,350.4A19.43,19.43,0,1,0,407,331a19.42,19.42,0,0,0-19.42,19.42"/></clipPath><linearGradient id="linear-gradient-7" x1="-112.32" y1="611.25" x2="-108.43" y2="611.25" gradientTransform="matrix(34.63, 17.64, 17.64, -34.63, -6833.55, 23376.27)" gradientUnits="userSpaceOnUse"><stop offset="0" stop-color="#84b397"/><stop offset="1" stop-color="#9bd1b1"/></linearGradient><clipPath id="clip-path-8" transform="translate(-192.85 -87.78)"><path class="cls-1" d="M436.56,350.4A19.43,19.43,0,1,0,456,331a19.42,19.42,0,0,0-19.42,19.42"/></clipPath><linearGradient id="linear-gradient-8" x1="-108.93" y1="612.25" x2="-107.93" y2="612.25" gradientTransform="matrix(0, 38.86, 38.86, 0, -23338.01, 4564.25)" xlink:href="#linear-gradient-7"/><clipPath id="clip-path-9" transform="translate(-192.85 -87.78)"><path class="cls-1" d="M504.5,350.4A19.43,19.43,0,1,0,523.93,331,19.43,19.43,0,0,0,504.5,350.4"/></clipPath><linearGradient id="linear-gradient-9" x1="-108.93" y1="612.25" x2="-107.93" y2="612.25" gradientTransform="matrix(0, 38.86, 38.86, 0, -23270.07, 4564.25)" xlink:href="#linear-gradient-7"/><clipPath id="clip-path-10" transform="translate(-192.85 -87.78)"><path class="cls-1" d="M384.54,290.17A19.43,19.43,0,1,0,404,270.74a19.43,19.43,0,0,0-19.43,19.43"/></clipPath><linearGradient id="linear-gradient-10" x1="-104.79" y1="614.4" x2="-103.79" y2="614.4" gradientTransform="matrix(0, 38.86, 38.86, 0, -23473.79, 4343.3)" xlink:href="#linear-gradient-7"/><clipPath id="clip-path-11" transform="translate(-192.85 -87.78)"><path class="cls-1" d="M430.85,290.17a19.43,19.43,0,1,0,19.43-19.43,19.43,19.43,0,0,0-19.43,19.43"/></clipPath><linearGradient id="linear-gradient-11" x1="-104.79" y1="614.4" x2="-103.79" y2="614.4" gradientTransform="matrix(0, 38.86, 38.86, 0, -23427.48, 4343.31)" xlink:href="#linear-gradient-7"/><clipPath id="clip-path-12" transform="translate(-192.85 -87.78)"><path class="cls-1" d="M495.17,290.17a19.43,19.43,0,1,0,19.43-19.43,19.43,19.43,0,0,0-19.43,19.43"/></clipPath><linearGradient id="linear-gradient-12" x1="-104.79" y1="614.4" x2="-103.79" y2="614.4" gradientTransform="matrix(0, 38.86, 38.86, 0, -23363.16, 4343.31)" xlink:href="#linear-gradient-7"/><clipPath id="clip-path-13" transform="translate(-192.85 -87.78)"><path class="cls-1" d="M571.12,239.23a19.43,19.43,0,1,0,19.43-19.43,19.43,19.43,0,0,0-19.43,19.43"/></clipPath><linearGradient id="linear-gradient-13" x1="-108.35" y1="615.83" x2="-107.35" y2="615.83" gradientTransform="matrix(0, 38.86, 38.86, 0, -23342.23, 4430.71)" gradientUnits="userSpaceOnUse"><stop offset="0" stop-color="#bf85c7"/><stop offset="0.49" stop-color="#bf85c7"/><stop offset="0.64" stop-color="#c290c9"/><stop offset="0.91" stop-color="#caaecf"/><stop offset="1" stop-color="#cdbad1"/></linearGradient><clipPath id="clip-path-14" transform="translate(-192.85 -87.78)"><path class="cls-1" d="M575,423.37a19.43,19.43,0,1,0,19.43-19.43A19.42,19.42,0,0,0,575,423.37"/></clipPath><linearGradient id="linear-gradient-14" x1="-104.61" y1="614.4" x2="-103.61" y2="614.4" gradientTransform="matrix(0, 38.86, 38.86, 0, -23283.43, 4469.58)" xlink:href="#linear-gradient"/><clipPath id="clip-path-15" transform="translate(-192.85 -87.78)"><path class="cls-1" d="M624,423.37a19.43,19.43,0,1,0,19.43-19.43A19.42,19.42,0,0,0,624,423.37"/></clipPath><linearGradient id="linear-gradient-15" x1="-104.61" y1="614.4" x2="-103.61" y2="614.4" gradientTransform="matrix(0, 38.86, 38.86, 0, -23234.44, 4469.58)" xlink:href="#linear-gradient"/><clipPath id="clip-path-16" transform="translate(-192.85 -87.78)"><path class="cls-1" d="M691.9,423.37a19.43,19.43,0,1,0,19.43-19.43,19.42,19.42,0,0,0-19.43,19.43"/></clipPath><linearGradient id="linear-gradient-16" x1="-104.61" y1="614.4" x2="-103.61" y2="614.4" gradientTransform="matrix(0, 38.86, 38.86, 0, -23166.49, 4469.59)" xlink:href="#linear-gradient"/><clipPath id="clip-path-17" transform="translate(-192.85 -87.78)"><path class="cls-1" d="M566.33,229.65a19.43,19.43,0,1,0,19.43-19.42,19.43,19.43,0,0,0-19.43,19.42"/></clipPath><linearGradient id="linear-gradient-17" x1="-108.35" y1="615.83" x2="-107.35" y2="615.83" gradientTransform="matrix(0, 38.86, 38.86, 0, -23347.01, 4421.13)" xlink:href="#linear-gradient-13"/><clipPath id="clip-path-18" transform="translate(-192.85 -87.78)"><path class="cls-1" d="M562.12,160.2a19.43,19.43,0,1,0,19.43-19.43,19.42,19.42,0,0,0-19.43,19.43"/></clipPath><linearGradient id="linear-gradient-18" x1="-105.42" y1="615.77" x2="-104.42" y2="615.77" gradientTransform="matrix(0, 38.86, 38.86, 0, -23349.25, 4237.73)" xlink:href="#linear-gradient-4"/><clipPath id="clip-path-19" transform="translate(-192.85 -87.78)"><path class="cls-1" d="M611.11,160.2a19.43,19.43,0,1,0,19.43-19.43,19.42,19.42,0,0,0-19.43,19.43"/></clipPath><linearGradient id="linear-gradient-19" x1="-105.42" y1="615.77" x2="-104.42" y2="615.77" gradientTransform="matrix(0, 38.86, 38.86, 0, -23300.26, 4237.73)" xlink:href="#linear-gradient-4"/><clipPath id="clip-path-20" transform="translate(-192.85 -87.78)"><path class="cls-1" d="M679.06,160.2a19.43,19.43,0,1,0,19.42-19.43,19.41,19.41,0,0,0-19.42,19.43"/></clipPath><linearGradient id="linear-gradient-20" x1="-105.42" y1="615.77" x2="-104.42" y2="615.77" gradientTransform="matrix(0, 38.86, 38.86, 0, -23232.31, 4237.73)" xlink:href="#linear-gradient-4"/><clipPath id="clip-path-21" transform="translate(-192.85 -87.78)"><path class="cls-1" d="M561.55,220.08A19.43,19.43,0,1,0,581,200.66a19.43,19.43,0,0,0-19.43,19.42"/></clipPath><linearGradient id="linear-gradient-21" x1="-105.42" y1="615.77" x2="-104.42" y2="615.77" gradientTransform="matrix(0, 38.86, 38.86, 0, -23349.82, 4297.61)" gradientUnits="userSpaceOnUse"><stop offset="0" stop-color="#bf85c7"/><stop offset="0.1" stop-color="#c18ec9"/><stop offset="0.44" stop-color="#c8a6cd"/><stop offset="0.74" stop-color="#ccb5d0"/><stop offset="1" stop-color="#cdbad1"/></linearGradient><clipPath id="clip-path-22" transform="translate(-192.85 -87.78)"><path class="cls-1" d="M620.11,239.23a19.43,19.43,0,1,0,19.43-19.43,19.43,19.43,0,0,0-19.43,19.43"/></clipPath><linearGradient id="linear-gradient-22" x1="-108.35" y1="615.83" x2="-107.35" y2="615.83" gradientTransform="matrix(0, 38.86, 38.86, 0, -23293.24, 4430.71)" xlink:href="#linear-gradient-13"/><clipPath id="clip-path-23" transform="translate(-192.85 -87.78)"><path class="cls-1" d="M615.33,229.65a19.43,19.43,0,1,0,19.42-19.42,19.42,19.42,0,0,0-19.42,19.42"/></clipPath><linearGradient id="linear-gradient-23" x1="-108.35" y1="615.83" x2="-107.35" y2="615.83" gradientTransform="matrix(0, 38.86, 38.86, 0, -23298.03, 4421.11)" xlink:href="#linear-gradient-13"/><clipPath id="clip-path-24" transform="translate(-192.85 -87.78)"><path class="cls-1" d="M610.54,220.08A19.43,19.43,0,1,0,630,200.66a19.43,19.43,0,0,0-19.43,19.42"/></clipPath><linearGradient id="linear-gradient-24" x1="-105.42" y1="615.77" x2="-104.42" y2="615.77" gradientTransform="matrix(0, 38.86, 38.86, 0, -23300.83, 4297.63)" xlink:href="#linear-gradient-21"/><clipPath id="clip-path-25" transform="translate(-192.85 -87.78)"><path class="cls-1" d="M688.06,239.23a19.43,19.43,0,1,0,19.42-19.43,19.42,19.42,0,0,0-19.42,19.43"/></clipPath><linearGradient id="linear-gradient-25" x1="-108.35" y1="615.83" x2="-107.35" y2="615.83" gradientTransform="matrix(0, 38.86, 38.86, 0, -23225.29, 4430.7)" xlink:href="#linear-gradient-13"/><clipPath id="clip-path-26" transform="translate(-192.85 -87.78)"><path class="cls-1" d="M683.27,229.65a19.43,19.43,0,1,0,19.43-19.42,19.43,19.43,0,0,0-19.43,19.42"/></clipPath><linearGradient id="linear-gradient-26" x1="-108.35" y1="615.83" x2="-107.35" y2="615.83" gradientTransform="matrix(0, 38.86, 38.86, 0, -23230.08, 4421.11)" xlink:href="#linear-gradient-13"/><clipPath id="clip-path-27" transform="translate(-192.85 -87.78)"><path class="cls-1" d="M678.48,220.08a19.43,19.43,0,1,0,19.43-19.42,19.43,19.43,0,0,0-19.43,19.42"/></clipPath><linearGradient id="linear-gradient-27" x1="-105.42" y1="615.77" x2="-104.42" y2="615.77" gradientTransform="matrix(0, 38.86, 38.86, 0, -23232.89, 4297.62)" xlink:href="#linear-gradient-21"/><clipPath id="clip-path-28" transform="translate(-192.85 -87.78)"><path class="cls-1" d="M571.12,290.4A19.43,19.43,0,1,0,590.55,271a19.43,19.43,0,0,0-19.43,19.43"/></clipPath><linearGradient id="linear-gradient-28" x1="-105.42" y1="615.77" x2="-104.42" y2="615.77" gradientTransform="matrix(0, 38.86, 38.86, 0, -23340.25, 4367.94)" xlink:href="#linear-gradient-7"/><clipPath id="clip-path-29" transform="translate(-192.85 -87.78)"><path class="cls-1" d="M620.11,290.4A19.43,19.43,0,1,0,639.54,271a19.43,19.43,0,0,0-19.43,19.43"/></clipPath><linearGradient id="linear-gradient-29" x1="-105.42" y1="615.77" x2="-104.42" y2="615.77" gradientTransform="matrix(0, 38.86, 38.86, 0, -23291.26, 4367.94)" xlink:href="#linear-gradient-7"/><clipPath id="clip-path-30" transform="translate(-192.85 -87.78)"><path class="cls-1" d="M688.06,290.4A19.43,19.43,0,1,0,707.48,271a19.42,19.42,0,0,0-19.42,19.43"/></clipPath><linearGradient id="linear-gradient-30" x1="-105.42" y1="615.77" x2="-104.42" y2="615.77" gradientTransform="matrix(0, 38.86, 38.86, 0, -23223.31, 4367.94)" xlink:href="#linear-gradient-7"/><clipPath id="clip-path-31" transform="translate(-192.85 -87.78)"><path class="cls-1" d="M575.33,350.32a19.43,19.43,0,1,0,19.43-19.42,19.43,19.43,0,0,0-19.43,19.42"/></clipPath><linearGradient id="linear-gradient-31" x1="-96.32" y1="618.67" x2="-95.32" y2="618.67" gradientTransform="matrix(0, 38.86, 38.86, 0, -23448.89, 4074.37)" xlink:href="#linear-gradient-7"/><clipPath id="clip-path-32" transform="translate(-192.85 -87.78)"><path class="cls-1" d="M622.64,350.32a19.43,19.43,0,1,0,19.42-19.42,19.42,19.42,0,0,0-19.42,19.42"/></clipPath><linearGradient id="linear-gradient-32" x1="-96.32" y1="618.67" x2="-95.32" y2="618.67" gradientTransform="matrix(0, 38.86, 38.86, 0, -23401.59, 4074.36)" xlink:href="#linear-gradient-7"/><clipPath id="clip-path-33" transform="translate(-192.85 -87.78)"><path class="cls-1" d="M687.39,350.32a19.43,19.43,0,1,0,19.43-19.42,19.43,19.43,0,0,0-19.43,19.42"/></clipPath><linearGradient id="linear-gradient-33" x1="-96.32" y1="618.67" x2="-95.32" y2="618.67" gradientTransform="matrix(0, 38.86, 38.86, 0, -23336.83, 4074.36)" xlink:href="#linear-gradient-7"/></defs><rect class="cls-2" x="131.02" y="0.5" width="526.35" height="416.3"/><line class="cls-3" x1="321.75" y1="186.11" x2="321.75" y2="154"/><line class="cls-3" x1="254.87" y1="188.36" x2="254.87" y2="156.25"/><line class="cls-3" x1="208.04" y1="186.11" x2="208.04" y2="154"/><polygon class="cls-4" points="210.51 155.5 208.04 151.23 205.57 155.5 210.51 155.5"/><polygon class="cls-4" points="257.34 156.5 254.87 152.23 252.4 156.5 257.34 156.5"/><polygon class="cls-4" points="324.13 155.5 321.66 151.23 319.19 155.5 324.13 155.5"/><g class="cls-5"><polygon class="cls-6" points="202.72 299.03 249.29 322.75 225.56 369.32 9 345.59 202.72 299.03"/></g><g class="cls-7"><rect class="cls-8" x="429.85" y="395.83" width="52.26" height="52.26" transform="translate(-319.84 548.89) rotate(-63)"/></g><g class="cls-9"><rect class="cls-10" x="497.8" y="395.82" width="52.26" height="52.26" transform="translate(-282.74 609.43) rotate(-63)"/></g><g class="cls-11"><polygon class="cls-12" points="193.72 97.28 240.29 121 216.56 167.56 0 143.84 193.72 97.28"/></g><g class="cls-13"><rect class="cls-14" x="420.85" y="194.07" width="52.26" height="52.26" transform="translate(-144.99 430.71) rotate(-63)"/></g><g class="cls-15"><rect class="cls-16" x="488.8" y="194.07" width="52.26" height="52.26" transform="translate(-107.89 491.25) rotate(-63)"/></g><text class="cls-17" transform="translate(290.14 264.03)">...</text><text class="cls-18" transform="translate(291.39 378.79)">...</text><text class="cls-17" transform="translate(290.15 334.99)">...</text><text class="cls-19" transform="translate(280.78 133.95)">...</text><text class="cls-20" transform="translate(212.34 379.84)">T</text><text class="cls-21" transform="translate(222.11 385.17)">1</text><text class="cls-20" transform="translate(260.77 379.84)">T</text><text class="cls-21" transform="translate(270.54 385.17)">2</text><text class="cls-20" transform="translate(324.96 379.84)">T</text><text class="cls-21" transform="translate(334.74 385.17)">j</text><text class="cls-22" transform="translate(162.68 100.42)">Progressive Neural Network</text><path class="cls-23" d="M403.05,298.75" transform="translate(-192.85 -87.78)"/><path class="cls-23" d="M523.45,331" transform="translate(-192.85 -87.78)"/><path class="cls-4" d="M406,330.91v0Z" transform="translate(-192.85 -87.78)"/><path class="cls-4" d="M454.89,330.91v0Z" transform="translate(-192.85 -87.78)"/><polygon class="cls-4" points="264.24 226 261.77 221.73 259.3 226 264.24 226"/><polygon class="cls-4" points="330.87 225 328.4 220.73 325.93 225 330.87 225"/><line class="cls-4" x1="214.1" y1="243.22" x2="258" y2="221.52"/><line class="cls-24" x1="214.1" y1="243.22" x2="254.82" y2="223.09"/><polygon class="cls-4" points="255.26 225.63 258 221.52 253.07 221.2 255.26 225.63"/><line class="cls-4" x1="263" y1="247.56" x2="314.04" y2="223.72"/><line class="cls-4" x1="214.9" y1="243.22" x2="324.73" y2="212.23"/><polygon points="321.29 215.76 324.73 212.23 319.95 211.01 321.29 215.76"/><path class="cls-23" d="M407,402.7v0Z" transform="translate(-192.85 -87.78)"/><line class="cls-24" x1="214.17" y1="314.92" x2="214.17" y2="286.54"/><polygon class="cls-4" points="216.63 287.27 214.17 282.99 211.7 287.27 216.63 287.27"/><path class="cls-23" d="M523.45,402.7v0Z" transform="translate(-192.85 -87.78)"/><line class="cls-24" x1="330.6" y1="314.92" x2="330.6" y2="286.54"/><polygon class="cls-4" points="333.07 287.27 330.6 282.99 328.13 287.27 333.07 287.27"/><path class="cls-23" d="M454.89,402.7v0Z" transform="translate(-192.85 -87.78)"/><line class="cls-24" x1="262.05" y1="314.92" x2="262.05" y2="286.54"/><polygon class="cls-4" points="264.51 287.27 262.05 282.99 259.58 287.27 264.51 287.27"/><line class="cls-23" x1="214.1" y1="315.01" x2="258.14" y2="282.62"/><line class="cls-24" x1="214.1" y1="315.01" x2="255.28" y2="284.72"/><polygon class="cls-4" points="256.16 287.14 258.14 282.62 253.23 283.16 256.16 287.14"/><line class="cls-23" x1="261.7" y1="315.37" x2="325.01" y2="282.9"/><line class="cls-24" x1="261.7" y1="315.37" x2="321.85" y2="284.52"/><polygon class="cls-4" points="322.34 287.05 325.01 282.9 320.08 282.65 322.34 287.05"/><line class="cls-23" x1="214.9" y1="315.01" x2="317.97" y2="279.24"/><line class="cls-24" x1="214.9" y1="315.01" x2="314.62" y2="280.4"/><polygon class="cls-4" points="314.75 282.97 317.97 279.24 313.13 278.31 314.75 282.97"/><g class="cls-25"><polygon class="cls-26" points="202.72 227.48 249.29 251.2 225.56 297.77 9 274.04 202.72 227.48"/></g><g class="cls-27"><rect class="cls-28" x="429.85" y="324.28" width="52.26" height="52.26" transform="translate(-256.09 509.83) rotate(-63)"/></g><g class="cls-29"><rect class="cls-30" x="497.8" y="324.27" width="52.26" height="52.26" transform="translate(-218.99 570.36) rotate(-63)"/></g><g class="cls-31"><rect class="cls-32" x="377.84" y="264.04" width="52.26" height="52.26" transform="translate(-230.82 430.59) rotate(-63)"/></g><g class="cls-33"><rect class="cls-34" x="424.15" y="264.04" width="52.26" height="52.26" transform="translate(-205.53 471.86) rotate(-63)"/></g><g class="cls-35"><rect class="cls-36" x="488.47" y="264.04" width="52.26" height="52.26" transform="translate(-170.42 529.16) rotate(-63)"/></g><text class="cls-17" transform="translate(283.01 204.79)">...</text><line class="cls-24" x1="213.34" y1="242.63" x2="213.34" y2="224.52"/><polygon class="cls-4" points="215.81 226.06 213.34 221.79 210.87 226.06 215.81 226.06"/><line class="cls-24" x1="262.05" y1="243.67" x2="262.05" y2="225.57"/><line class="cls-24" x1="328.4" y1="243.13" x2="328.4" y2="225.02"/><polygon class="cls-4" points="304.67 220.3 308.3 216.95 303.58 215.49 304.67 220.3"/><g class="cls-37"><rect class="cls-38" x="564.14" y="212.82" width="52.82" height="52.82" transform="translate(-234.78 228.51) rotate(-29)"/></g><line class="cls-23" x1="389.13" y1="126.88" x2="389.13" y2="91.22"/><line class="cls-3" x1="389.13" y1="126.88" x2="389.13" y2="94.77"/><polygon class="cls-4" points="391.6 95.5 389.13 91.22 386.66 95.5 391.6 95.5"/><line class="cls-23" x1="435.3" y1="126.88" x2="435.3" y2="91.22"/><line class="cls-3" x1="435.3" y1="126.88" x2="435.3" y2="94.77"/><polygon class="cls-4" points="437.77 95.5 435.3 91.22 432.83 95.5 437.77 95.5"/><line class="cls-23" x1="505.22" y1="126.88" x2="505.22" y2="91.22"/><line class="cls-3" x1="505.22" y1="126.88" x2="505.22" y2="94.77"/><polygon class="cls-4" points="507.69 95.5 505.22 91.22 502.75 95.5 507.69 95.5"/><g class="cls-39"><rect class="cls-40" x="568.27" y="397.24" width="52.26" height="52.26" transform="translate(-245.52 672.99) rotate(-63)"/></g><g class="cls-41"><rect class="cls-42" x="617.26" y="397.24" width="52.26" height="52.26" transform="translate(-218.77 716.64) rotate(-63)"/></g><g class="cls-43"><rect class="cls-44" x="685.2" y="397.24" width="52.26" height="52.26" transform="translate(-181.68 777.18) rotate(-63)"/></g><g class="cls-45"><rect class="cls-46" x="559.35" y="203.24" width="52.82" height="52.82" transform="translate(-230.74 224.99) rotate(-29)"/></g><g class="cls-47"><rect class="cls-48" x="555.42" y="134.07" width="52.26" height="52.26" transform="translate(-18.05 517.85) rotate(-63)"/></g><g class="cls-49"><rect class="cls-50" x="604.41" y="134.07" width="52.26" height="52.26" transform="translate(8.7 561.5) rotate(-63)"/></g><g class="cls-51"><rect class="cls-52" x="672.35" y="134.07" width="52.26" height="52.26" transform="translate(45.79 622.04) rotate(-63)"/></g><g class="cls-53"><rect class="cls-54" x="554.85" y="193.95" width="52.26" height="52.26" transform="translate(-71.72 550.04) rotate(-63)"/></g><g class="cls-55"><rect class="cls-56" x="613.13" y="212.82" width="52.82" height="52.82" transform="translate(-228.64 252.27) rotate(-29)"/></g><g class="cls-57"><rect class="cls-58" x="608.34" y="203.24" width="52.82" height="52.82" transform="translate(-224.6 248.75) rotate(-29)"/></g><g class="cls-59"><rect class="cls-60" x="603.84" y="193.95" width="52.26" height="52.26" transform="translate(-44.98 593.69) rotate(-63)"/></g><g class="cls-61"><rect class="cls-62" x="681.07" y="212.82" width="52.82" height="52.82" transform="translate(-220.12 285.21) rotate(-29)"/></g><g class="cls-63"><rect class="cls-64" x="676.29" y="203.24" width="52.82" height="52.82" transform="translate(-216.08 281.69) rotate(-29)"/></g><g class="cls-65"><rect class="cls-66" x="671.78" y="193.95" width="52.26" height="52.26" transform="translate(-7.88 654.23) rotate(-63)"/></g><text class="cls-17" transform="translate(470.69 145.74)">...</text><text class="cls-17" transform="translate(473.69 204.03)">...</text><text class="cls-18" transform="translate(478.79 380.2)">...</text><text class="cls-17" transform="translate(477.56 336.41)">...</text><text class="cls-19" transform="translate(464.33 73.95)">...</text><text class="cls-67" transform="translate(399.74 381.25)">T</text><text class="cls-21" transform="translate(409.52 386.58)">1</text><text class="cls-67" transform="translate(448.17 381.25)">T</text><text class="cls-21" transform="translate(457.95 386.58)">2</text><text class="cls-67" transform="translate(512.37 381.25)">T</text><text class="cls-21" transform="translate(522.14 386.58)">j</text><text class="cls-68" transform="translate(399.93 39.4)">Progressive</text><text class="cls-69" transform="translate(539.23 82.6)">Decider</text><text class="cls-70" transform="translate(539.23 147.57)">Voters<tspan x="0" y="19.2">(hidden)</tspan></text><text class="cls-71" transform="translate(539.11 230.45)">Representers<tspan x="0" y="19.2">(hidden)</tspan></text><line class="cls-23" x1="445.82" y1="183.76" x2="397.07" y2="161.23"/><line class="cls-72" x1="445.82" y1="183.76" x2="400.29" y2="162.72"/><polygon class="cls-73" points="401.99 160.78 397.07 161.23 399.92 165.26 401.99 160.78"/><line class="cls-23" x1="514.16" y1="183.21" x2="441.69" y2="151.66"/><line class="cls-72" x1="514.16" y1="183.21" x2="444.95" y2="153.08"/><polygon class="cls-73" points="446.6 151.1 441.69 151.66 444.63 155.63 446.6 151.1"/><line class="cls-23" x1="514.16" y1="183.21" x2="393.76" y2="150.97"/><line class="cls-72" x1="514.16" y1="183.21" x2="397.19" y2="151.89"/><polygon class="cls-73" points="398.52 149.69 393.76 150.97 397.25 154.46 398.52 149.69"/><path class="cls-23" d="M590.57,270.9v0Z" transform="translate(-192.85 -87.78)"/><line class="cls-24" x1="397.72" y1="183.12" x2="397.72" y2="174"/><polygon class="cls-4" points="400.19 174.72 397.72 170.44 395.25 174.72 400.19 174.72"/><path class="cls-23" d="M638.45,270.9v0Z" transform="translate(-192.85 -87.78)"/><line class="cls-24" x1="445.6" y1="183.12" x2="445.6" y2="174"/><polygon class="cls-4" points="448.07 174.72 445.6 170.44 443.13 174.72 448.07 174.72"/><path class="cls-23" d="M707.48,270.9v0Z" transform="translate(-192.85 -87.78)"/><line class="cls-24" x1="514.63" y1="183.12" x2="514.63" y2="174"/><polygon class="cls-4" points="517.1 174.72 514.63 170.44 512.16 174.72 517.1 174.72"/><line class="cls-23" x1="397.65" y1="183.21" x2="441.56" y2="161.51"/><line class="cls-24" x1="397.65" y1="183.21" x2="438.37" y2="163.09"/><polygon class="cls-4" points="438.82 165.62 441.56 161.51 436.63 161.19 438.82 165.62"/><line class="cls-23" x1="445.26" y1="183.57" x2="514.96" y2="161.27"/><line class="cls-24" x1="445.26" y1="183.57" x2="511.57" y2="162.35"/><polygon class="cls-4" points="511.64 164.92 514.96 161.27 510.13 160.22 511.64 164.92"/><line class="cls-23" x1="398.45" y1="183.21" x2="508.29" y2="152.22"/><line class="cls-24" x1="398.45" y1="183.21" x2="504.87" y2="153.19"/><polygon class="cls-4" points="504.84 155.76 508.29 152.22 503.5 151.01 504.84 155.76"/><line class="cls-23" x1="449.67" y1="316.97" x2="405.37" y2="283.65"/><line class="cls-74" x1="449.67" y1="316.97" x2="408.21" y2="285.79"/><polygon class="cls-75" points="410.27 284.25 405.37 283.65 407.3 288.19 410.27 284.25"/><line class="cls-23" x1="518.01" y1="316.43" x2="412.5" y2="281.78"/><line class="cls-74" x1="518.01" y1="316.43" x2="415.88" y2="282.88"/><polygon class="cls-75" points="417.33 280.76 412.5 281.77 415.8 285.45 417.33 280.76"/><line class="cls-23" x1="518.01" y1="316.43" x2="454.55" y2="284.78"/><line class="cls-74" x1="518.01" y1="316.43" x2="457.73" y2="286.36"/><polygon class="cls-75" points="459.48 284.48 454.55 284.78 457.27 288.89 459.48 284.48"/><path class="cls-23" d="M594.42,404.12v0Z" transform="translate(-192.85 -87.78)"/><line class="cls-24" x1="401.57" y1="316.33" x2="401.57" y2="287.96"/><polygon class="cls-4" points="404.04 288.68 401.57 284.4 399.1 288.68 404.04 288.68"/><path class="cls-23" d="M710.86,404.12v0Z" transform="translate(-192.85 -87.78)"/><line class="cls-24" x1="518.01" y1="316.33" x2="518.01" y2="287.96"/><polygon class="cls-4" points="520.48 288.68 518.01 284.4 515.54 288.68 520.48 288.68"/><path class="cls-23" d="M642.3,404.12v0Z" transform="translate(-192.85 -87.78)"/><line class="cls-24" x1="449.45" y1="316.33" x2="449.45" y2="287.96"/><polygon class="cls-4" points="451.92 288.68 449.45 284.4 446.98 288.68 451.92 288.68"/><line class="cls-23" x1="401.5" y1="316.43" x2="445.54" y2="284.03"/><line class="cls-24" x1="401.5" y1="316.43" x2="442.68" y2="286.13"/><polygon class="cls-4" points="443.56 288.55 445.54 284.03 440.63 284.57 443.56 288.55"/><line class="cls-23" x1="449.11" y1="316.78" x2="512.42" y2="284.31"/><line class="cls-24" x1="449.11" y1="316.78" x2="509.25" y2="285.93"/><polygon class="cls-4" points="509.74 288.46 512.42 284.31 507.49 284.06 509.74 288.46"/><line class="cls-23" x1="402.3" y1="316.43" x2="505.38" y2="280.65"/><line class="cls-24" x1="402.3" y1="316.43" x2="502.02" y2="281.81"/><polygon class="cls-4" points="502.15 284.38 505.38 280.65 500.53 279.72 502.15 284.38"/><g class="cls-76"><rect class="cls-77" x="564.42" y="264.27" width="52.26" height="52.26" transform="translate(-129.15 596.96) rotate(-63)"/></g><g class="cls-78"><rect class="cls-79" x="613.41" y="264.27" width="52.26" height="52.26" transform="translate(-102.4 640.61) rotate(-63)"/></g><g class="cls-80"><rect class="cls-81" x="681.35" y="264.27" width="52.26" height="52.26" transform="translate(-65.3 701.15) rotate(-63)"/></g><polygon class="cls-4" points="311.65 222.63 315.12 226.14 316.43 221.38 311.65 222.63"/><line class="cls-4" x1="401.91" y1="245.58" x2="401.91" y2="223.92"/><line class="cls-24" x1="401.91" y1="245.58" x2="401.91" y2="227.47"/><polygon class="cls-23" points="404.38 228.2 401.91 223.92 399.44 228.2 404.38 228.2"/><g class="cls-82"><rect class="cls-83" x="568.63" y="324.19" width="52.26" height="52.26" transform="translate(-180.24 633.43) rotate(-63)"/></g><line class="cls-4" x1="449.22" y1="245.58" x2="449.22" y2="223.92"/><line class="cls-24" x1="449.22" y1="245.58" x2="449.22" y2="227.47"/><polygon class="cls-23" points="451.68 228.2 449.22 223.92 446.75 228.2 451.68 228.2"/><g class="cls-84"><rect class="cls-85" x="615.93" y="324.19" width="52.26" height="52.26" transform="translate(-154.42 675.58) rotate(-63)"/></g><line class="cls-4" x1="513.97" y1="245.58" x2="513.97" y2="223.92"/><line class="cls-24" x1="513.97" y1="245.58" x2="513.97" y2="227.47"/><polygon class="cls-23" points="516.44 228.2 513.98 223.92 511.51 228.2 516.44 228.2"/><g class="cls-86"><rect class="cls-87" x="680.69" y="324.19" width="52.26" height="52.26" transform="translate(-119.06 733.28) rotate(-63)"/></g><text class="cls-17" transform="translate(475.8 263.95)">...</text></svg>