<svg version="1.1" viewBox="0.0 0.0 1066.8661417322835 514.6325459317585" fill="none" stroke="none" stroke-linecap="square" stroke-miterlimit="10" xmlns:xlink="http://www.w3.org/1999/xlink" xmlns="http://www.w3.org/2000/svg"><clipPath id="p.0"><path d="m0 0l1066.8661 0l0 514.63257l-1066.8661 0l0 -514.63257z" clip-rule="nonzero"/></clipPath><g clip-path="url(#p.0)"><path fill="#000000" fill-opacity="0.0" d="m0 0l1066.8661 0l0 514.63257l-1066.8661 0z" fill-rule="evenodd"/><path fill="#000000" d="m0.6456693 0.19685039l1065.5748 0l0 513.22833l-1065.5748 0z" fill-rule="evenodd"/><path stroke="#000000" stroke-width="1.0" stroke-linejoin="round" stroke-linecap="butt" d="m0.6456693 0.19685039l1065.5748 0l0 513.22833l-1065.5748 0z" fill-rule="evenodd"/><path fill="#cccccc" d="m158.86351 363.8689l0 0c0 -3.742859 3.034195 -6.7770386 6.7770386 -6.7770386l27.107346 0l0 0c1.7973785 0 3.5211487 0.7140198 4.792099 1.9849548c1.270935 1.270935 1.9849396 2.9947205 1.9849396 4.7920837l0 43.296326c0 3.742859 -3.0341797 6.7770386 -6.7770386 6.7770386l-27.107346 0c-3.7428436 0 -6.7770386 -3.0341797 -6.7770386 -6.7770386z" fill-rule="evenodd"/><path stroke="#ffffff" stroke-width="1.0" stroke-linejoin="round" stroke-linecap="butt" d="m158.86351 363.8689l0 0c0 -3.742859 3.034195 -6.7770386 6.7770386 -6.7770386l27.107346 0l0 0c1.7973785 0 3.5211487 0.7140198 4.792099 1.9849548c1.270935 1.270935 1.9849396 2.9947205 1.9849396 4.7920837l0 43.296326c0 3.742859 -3.0341797 6.7770386 -6.7770386 6.7770386l-27.107346 0c-3.7428436 0 -6.7770386 -3.0341797 -6.7770386 -6.7770386z" fill-rule="evenodd"/><path fill="#000000" fill-opacity="0.0" d="m16.721785 356.9029l94.74016 0l0 41.228333l-94.74016 0z" fill-rule="evenodd"/><path fill="#ffffff" d="m62.70256 383.82288l0 -13.359375l1.765625 0l0 13.359375l-1.765625 0zm4.683304 0l0 -9.671875l1.46875 0l0 1.375q1.0625 -1.59375 3.078125 -1.59375q0.875 0 1.609375 0.3125q0.734375 0.3125 1.09375 0.828125q0.375 0.5 0.515625 1.203125q0.09375 0.453125 0.09375 1.59375l0 5.953125l-1.640625 0l0 -5.890625q0 -1.0 -0.203125 -1.484375q-0.1875 -0.5 -0.671875 -0.796875q-0.484375 -0.296875 -1.140625 -0.296875q-1.046875 0 -1.8125 0.671875q-0.75 0.65625 -0.75 2.515625l0 5.28125l-1.640625 0zm10.375717 3.703125l0 -13.375l1.484375 0l0 1.25q0.53125 -0.734375 1.1875 -1.09375q0.671875 -0.375 1.625 -0.375q1.234375 0 2.171875 0.640625q0.953125 0.625 1.4375 1.796875q0.484375 1.15625 0.484375 2.546875q0 1.484375 -0.53125 2.671875q-0.53125 1.1875 -1.546875 1.828125q-1.015625 0.625 -2.140625 0.625q-0.8125 0 -1.46875 -0.34375q-0.65625 -0.34375 -1.0625 -0.875l0 4.703125l-1.640625 0zm1.484375 -8.484375q0 1.859375 0.75 2.765625q0.765625 0.890625 1.828125 0.890625q1.09375 0 1.875 -0.921875q0.78125 -0.9375 0.78125 -2.875q0 -1.84375 -0.765625 -2.765625q-0.75 -0.921875 -1.8125 -0.921875q-1.046875 0 -1.859375 0.984375q-0.796875 0.96875 -0.796875 2.84375zm15.219467 4.78125l0 -1.421875q-1.125 1.640625 -3.0625 1.640625q-0.859375 0 -1.609375 -0.328125q-0.734375 -0.328125 -1.09375 -0.828125q-0.359375 -0.5 -0.5 -1.21875q-0.109375 -0.46875 -0.109375 -1.53125l0 -5.984375l1.640625 0l0 5.359375q0 1.28125 0.109375 1.734375q0.15625 0.640625 0.65625 1.015625q0.5 0.375 1.234375 0.375q0.734375 0 1.375 -0.375q0.65625 -0.390625 0.921875 -1.03125q0.265625 -0.65625 0.265625 -1.890625l0 -5.1875l1.640625 0l0 9.671875l-1.46875 0zm7.625717 -1.46875l0.234375 1.453125q-0.6875 0.140625 -1.234375 0.140625q-0.890625 0 -1.390625 -0.28125q-0.484375 -0.28125 -0.6875 -0.734375q-0.203125 -0.46875 -0.203125 -1.9375l0 -5.578125l-1.203125 0l0 -1.265625l1.203125 0l0 -2.390625l1.625 -0.984375l0 3.375l1.65625 0l0 1.265625l-1.65625 0l0 5.671875q0 0.6875 0.078125 0.890625q0.09375 0.203125 0.28125 0.328125q0.203125 0.109375 0.578125 0.109375q0.265625 0 0.71875 -0.0625z" fill-rule="nonzero"/><path fill="#cccccc" d="m158.86351 269.52768l0 0c0 -3.7428284 3.034195 -6.777008 6.7770386 -6.777008l27.107346 0l0 0c1.7973785 0 3.5211487 0.71398926 4.792099 1.9849243c1.270935 1.270935 1.9849396 2.9947205 1.9849396 4.7920837l0 43.296326c0 3.742859 -3.0341797 6.7770386 -6.7770386 6.7770386l-27.107346 0c-3.7428436 0 -6.7770386 -3.0341797 -6.7770386 -6.7770386z" fill-rule="evenodd"/><path stroke="#ffffff" stroke-width="1.0" stroke-linejoin="round" stroke-linecap="butt" d="m158.86351 269.52768l0 0c0 -3.7428284 3.034195 -6.777008 6.7770386 -6.777008l27.107346 0l0 0c1.7973785 0 3.5211487 0.71398926 4.792099 1.9849243c1.270935 1.270935 1.9849396 2.9947205 1.9849396 4.7920837l0 43.296326c0 3.742859 -3.0341797 6.7770386 -6.7770386 6.7770386l-27.107346 0c-3.7428436 0 -6.7770386 -3.0341797 -6.7770386 -6.7770386z" fill-rule="evenodd"/><path fill="#cccccc" d="m158.86351 175.1865l0 0c0 -3.742859 3.034195 -6.7770386 6.7770386 -6.7770386l27.107346 0l0 0c1.7973785 0 3.5211487 0.7140045 4.792099 1.9849396c1.270935 1.2709503 1.9849396 2.9947052 1.9849396 4.792099l0 43.29631c0 3.742859 -3.0341797 6.7770386 -6.7770386 6.7770386l-27.107346 0c-3.7428436 0 -6.7770386 -3.0341797 -6.7770386 -6.7770386z" fill-rule="evenodd"/><path stroke="#ffffff" stroke-width="1.0" stroke-linejoin="round" stroke-linecap="butt" d="m158.86351 175.1865l0 0c0 -3.742859 3.034195 -6.7770386 6.7770386 -6.7770386l27.107346 0l0 0c1.7973785 0 3.5211487 0.7140045 4.792099 1.9849396c1.270935 1.2709503 1.9849396 2.9947052 1.9849396 4.792099l0 43.29631c0 3.742859 -3.0341797 6.7770386 -6.7770386 6.7770386l-27.107346 0c-3.7428436 0 -6.7770386 -3.0341797 -6.7770386 -6.7770386z" fill-rule="evenodd"/><path fill="#000000" fill-opacity="0.0" d="m179.19423 357.09186l0 -37.480316" fill-rule="evenodd"/><path stroke="#ffffff" stroke-width="1.0" stroke-linejoin="round" stroke-linecap="butt" d="m179.19423 357.09186l0 -31.480316" fill-rule="evenodd"/><path fill="#ffffff" stroke="#ffffff" stroke-width="1.0" stroke-linecap="butt" d="m180.84596 325.61154l-1.6517334 -4.538086l-1.6517334 4.538086z" fill-rule="evenodd"/><path fill="#000000" fill-opacity="0.0" d="m179.19423 262.75067l0 -37.48033" fill-rule="evenodd"/><path stroke="#ffffff" stroke-width="1.0" stroke-linejoin="round" stroke-linecap="butt" d="m179.19423 262.75067l0 -31.480331" fill-rule="evenodd"/><path fill="#ffffff" stroke="#ffffff" stroke-width="1.0" stroke-linecap="butt" d="m180.84596 231.27034l-1.6517334 -4.538101l-1.6517334 4.538101z" fill-rule="evenodd"/><path fill="#000000" fill-opacity="0.0" d="m16.721785 262.56168l94.74016 0l0 41.228363l-94.74016 0z" fill-rule="evenodd"/><path fill="#ffffff" d="m44.84131 289.4817l0 -13.359375l1.765625 0l0 5.484375l6.9375 0l0 -5.484375l1.765625 0l0 13.359375l-1.765625 0l0 -6.296875l-6.9375 0l0 6.296875l-1.765625 0zm13.207321 -11.46875l0 -1.890625l1.640625 0l0 1.890625l-1.640625 0zm0 11.46875l0 -9.671875l1.640625 0l0 9.671875l-1.640625 0zm10.410446 0l0 -1.21875q-0.90625 1.4375 -2.703125 1.4375q-1.15625 0 -2.125 -0.640625q-0.96875 -0.640625 -1.5 -1.78125q-0.53125 -1.140625 -0.53125 -2.625q0 -1.453125 0.484375 -2.625q0.484375 -1.1875 1.4375 -1.8125q0.96875 -0.625 2.171875 -0.625q0.875 0 1.546875 0.375q0.6875 0.359375 1.109375 0.953125l0 -4.796875l1.640625 0l0 13.359375l-1.53125 0zm-5.171875 -4.828125q0 1.859375 0.78125 2.78125q0.78125 0.921875 1.84375 0.921875q1.078125 0 1.828125 -0.875q0.75 -0.890625 0.75 -2.6875q0 -1.984375 -0.765625 -2.90625q-0.765625 -0.9375 -1.890625 -0.9375q-1.078125 0 -1.8125 0.890625q-0.734375 0.890625 -0.734375 2.8125zm15.547592 4.828125l0 -1.21875q-0.90625 1.4375 -2.703125 1.4375q-1.15625 0 -2.125 -0.640625q-0.96875 -0.640625 -1.5 -1.78125q-0.53125 -1.140625 -0.53125 -2.625q0 -1.453125 0.484375 -2.625q0.484375 -1.1875 1.4375 -1.8125q0.96875 -0.625 2.171875 -0.625q0.875 0 1.546875 0.375q0.6875 0.359375 1.109375 0.953125l0 -4.796875l1.640625 0l0 13.359375l-1.53125 0zm-5.171875 -4.828125q0 1.859375 0.78125 2.78125q0.78125 0.921875 1.84375 0.921875q1.078125 0 1.828125 -0.875q0.75 -0.890625 0.75 -2.6875q0 -1.984375 -0.765625 -2.90625q-0.765625 -0.9375 -1.890625 -0.9375q-1.078125 0 -1.8125 0.890625q-0.734375 0.890625 -0.734375 2.8125zm15.906967 1.71875l1.6875 0.203125q-0.40625 1.484375 -1.484375 2.3125q-1.078125 0.8125 -2.765625 0.8125q-2.125 0 -3.375 -1.296875q-1.234375 -1.3125 -1.234375 -3.671875q0 -2.453125 1.25 -3.796875q1.265625 -1.34375 3.265625 -1.34375q1.9375 0 3.15625 1.328125q1.234375 1.3125 1.234375 3.703125q0 0.15625 0 0.4375l-7.21875 0q0.09375 1.59375 0.90625 2.453125q0.8125 0.84375 2.015625 0.84375q0.90625 0 1.546875 -0.46875q0.640625 -0.484375 1.015625 -1.515625zm-5.390625 -2.65625l5.40625 0q-0.109375 -1.21875 -0.625 -1.828125q-0.78125 -0.953125 -2.03125 -0.953125q-1.125 0 -1.90625 0.765625q-0.765625 0.75 -0.84375 2.015625zm9.141342 5.765625l0 -9.671875l1.46875 0l0 1.375q1.0625 -1.59375 3.078125 -1.59375q0.875 0 1.609375 0.3125q0.734375 0.3125 1.09375 0.828125q0.375 0.5 0.515625 1.203125q0.09375 0.453125 0.09375 1.59375l0 5.953125l-1.640625 0l0 -5.890625q0 -1.0 -0.203125 -1.484375q-0.1875 -0.5 -0.671875 -0.796875q-0.484375 -0.296875 -1.140625 -0.296875q-1.046875 0 -1.8125 0.671875q-0.75 0.65625 -0.75 2.515625l0 5.28125l-1.640625 0z" fill-rule="nonzero"/><path fill="#000000" fill-opacity="0.0" d="m16.721785 168.22047l94.74016 0l0 41.228348l-94.74016 0z" fill-rule="evenodd"/><path fill="#ffffff" d="m47.363007 188.64047q0 -3.328125 1.78125 -5.203125q1.78125 -1.890625 4.609375 -1.890625q1.84375 0 3.328125 0.890625q1.484375 0.875 2.265625 2.46875q0.78125 1.578125 0.78125 3.578125q0 2.03125 -0.828125 3.640625q-0.8125 1.59375 -2.3125 2.421875q-1.5 0.828125 -3.25 0.828125q-1.875 0 -3.359375 -0.90625q-1.484375 -0.921875 -2.25 -2.5q-0.765625 -1.578125 -0.765625 -3.328125zm1.8125 0.015625q0 2.421875 1.296875 3.8125q1.296875 1.390625 3.265625 1.390625q2.0 0 3.28125 -1.40625q1.28125 -1.40625 1.28125 -3.984375q0 -1.625 -0.546875 -2.84375q-0.546875 -1.21875 -1.609375 -1.875q-1.0625 -0.671875 -2.375 -0.671875q-1.890625 0 -3.25 1.296875q-1.34375 1.28125 -1.34375 4.28125zm19.355179 6.484375l0 -1.421875q-1.125 1.640625 -3.0625 1.640625q-0.859375 0 -1.609375 -0.328125q-0.734375 -0.328125 -1.09375 -0.828125q-0.359375 -0.5 -0.5 -1.21875q-0.109375 -0.46875 -0.109375 -1.53125l0 -5.984375l1.640625 0l0 5.359375q0 1.28125 0.109375 1.734375q0.15625 0.640625 0.65625 1.015625q0.5 0.375 1.234375 0.375q0.734375 0 1.375 -0.375q0.65625 -0.390625 0.921875 -1.03125q0.265625 -0.65625 0.265625 -1.890625l0 -5.1875l1.640625 0l0 9.671875l-1.46875 0zm7.625717 -1.46875l0.234375 1.453125q-0.6875 0.140625 -1.234375 0.140625q-0.890625 0 -1.390625 -0.28125q-0.484375 -0.28125 -0.6875 -0.734375q-0.203125 -0.46875 -0.203125 -1.9375l0 -5.578125l-1.203125 0l0 -1.265625l1.203125 0l0 -2.390625l1.625 -0.984375l0 3.375l1.65625 0l0 1.265625l-1.65625 0l0 5.671875q0 0.6875 0.078125 0.890625q0.09375 0.203125 0.28125 0.328125q0.203125 0.109375 0.578125 0.109375q0.265625 0 0.71875 -0.0625zm1.6051788 5.171875l0 -13.375l1.484375 0l0 1.25q0.53125 -0.734375 1.1875 -1.09375q0.671875 -0.375 1.625 -0.375q1.234375 0 2.171875 0.640625q0.953125 0.625 1.4375 1.796875q0.484375 1.15625 0.484375 2.546875q0 1.484375 -0.53125 2.671875q-0.53125 1.1875 -1.546875 1.828125q-1.015625 0.625 -2.140625 0.625q-0.8125 0 -1.46875 -0.34375q-0.65625 -0.34375 -1.0625 -0.875l0 4.703125l-1.640625 0zm1.484375 -8.484375q0 1.859375 0.75 2.765625q0.765625 0.890625 1.828125 0.890625q1.09375 0 1.875 -0.921875q0.78125 -0.9375 0.78125 -2.875q0 -1.84375 -0.765625 -2.765625q-0.75 -0.921875 -1.8125 -0.921875q-1.046875 0 -1.859375 0.984375q-0.796875 0.96875 -0.796875 2.84375zm15.219467 4.78125l0 -1.421875q-1.125 1.640625 -3.0625 1.640625q-0.859375 0 -1.609375 -0.328125q-0.734375 -0.328125 -1.09375 -0.828125q-0.359375 -0.5 -0.5 -1.21875q-0.109375 -0.46875 -0.109375 -1.53125l0 -5.984375l1.640625 0l0 5.359375q0 1.28125 0.109375 1.734375q0.15625 0.640625 0.65625 1.015625q0.5 0.375 1.234375 0.375q0.734375 0 1.375 -0.375q0.65625 -0.390625 0.921875 -1.03125q0.265625 -0.65625 0.265625 -1.890625l0 -5.1875l1.640625 0l0 9.671875l-1.46875 0zm7.625717 -1.46875l0.234375 1.453125q-0.6875 0.140625 -1.234375 0.140625q-0.890625 0 -1.390625 -0.28125q-0.484375 -0.28125 -0.6875 -0.734375q-0.203125 -0.46875 -0.203125 -1.9375l0 -5.578125l-1.203125 0l0 -1.265625l1.203125 0l0 -2.390625l1.625 -0.984375l0 3.375l1.65625 0l0 1.265625l-1.65625 0l0 5.671875q0 0.6875 0.078125 0.890625q0.09375 0.203125 0.28125 0.328125q0.203125 0.109375 0.578125 0.109375q0.265625 0 0.71875 -0.0625z" fill-rule="nonzero"/><path fill="#000000" fill-opacity="0.0" d="m98.12336 18.795275l162.14175 0l0 41.228348l-162.14175 0z" fill-rule="evenodd"/><path fill="#ffffff" d="m132.5053 41.4184l1.65625 -0.140625q0.125 1.0 0.546875 1.640625q0.4375 0.640625 1.34375 1.046875q0.921875 0.390625 2.0625 0.390625q1.0 0 1.78125 -0.296875q0.78125 -0.296875 1.15625 -0.8125q0.375 -0.53125 0.375 -1.15625q0 -0.625 -0.375 -1.09375q-0.359375 -0.46875 -1.1875 -0.796875q-0.546875 -0.203125 -2.390625 -0.640625q-1.828125 -0.453125 -2.5625 -0.84375q-0.96875 -0.5 -1.4375 -1.234375q-0.46875 -0.75 -0.46875 -1.671875q0 -1.0 0.578125 -1.875q0.578125 -0.890625 1.671875 -1.34375q1.109375 -0.453125 2.453125 -0.453125q1.484375 0 2.609375 0.484375q1.140625 0.46875 1.75 1.40625q0.609375 0.921875 0.65625 2.09375l-1.6875 0.125q-0.140625 -1.265625 -0.9375 -1.90625q-0.78125 -0.65625 -2.3125 -0.65625q-1.609375 0 -2.34375 0.59375q-0.734375 0.59375 -0.734375 1.421875q0 0.71875 0.53125 1.171875q0.5 0.46875 2.65625 0.96875q2.15625 0.484375 2.953125 0.84375q1.171875 0.53125 1.71875 1.359375q0.5625 0.828125 0.5625 1.90625q0 1.0625 -0.609375 2.015625q-0.609375 0.9375 -1.75 1.46875q-1.140625 0.515625 -2.578125 0.515625q-1.8125 0 -3.046875 -0.53125q-1.21875 -0.53125 -1.921875 -1.59375q-0.6875 -1.0625 -0.71875 -2.40625zm12.834198 -7.171875l0 -1.890625l1.640625 0l0 1.890625l-1.640625 0zm0 11.46875l0 -9.671875l1.640625 0l0 9.671875l-1.640625 0zm4.144821 0l0 -9.671875l1.46875 0l0 1.375q1.0625 -1.59375 3.078125 -1.59375q0.875 0 1.609375 0.3125q0.734375 0.3125 1.09375 0.828125q0.375 0.5 0.515625 1.203125q0.09375 0.453125 0.09375 1.59375l0 5.953125l-1.640625 0l0 -5.890625q0 -1.0 -0.203125 -1.484375q-0.1875 -0.5 -0.671875 -0.796875q-0.484375 -0.296875 -1.140625 -0.296875q-1.046875 0 -1.8125 0.671875q-0.75 0.65625 -0.75 2.515625l0 5.28125l-1.640625 0zm10.063217 0.796875l1.59375 0.234375q0.109375 0.75 0.5625 1.078125q0.609375 0.453125 1.671875 0.453125q1.140625 0 1.75 -0.453125q0.625 -0.453125 0.84375 -1.265625q0.125 -0.5 0.109375 -2.109375q-1.0625 1.265625 -2.671875 1.265625q-2.0 0 -3.09375 -1.4375q-1.09375 -1.4375 -1.09375 -3.453125q0 -1.390625 0.5 -2.5625q0.515625 -1.171875 1.453125 -1.796875q0.953125 -0.640625 2.25 -0.640625q1.703125 0 2.8125 1.375l0 -1.15625l1.515625 0l0 8.359375q0 2.265625 -0.46875 3.203125q-0.453125 0.9375 -1.453125 1.484375q-0.984375 0.546875 -2.453125 0.546875q-1.71875 0 -2.796875 -0.78125q-1.0625 -0.765625 -1.03125 -2.34375zm1.359375 -5.8125q0 1.90625 0.75 2.78125q0.765625 0.875 1.90625 0.875q1.125 0 1.890625 -0.859375q0.765625 -0.875 0.765625 -2.734375q0 -1.78125 -0.796875 -2.671875q-0.78125 -0.90625 -1.890625 -0.90625q-1.09375 0 -1.859375 0.890625q-0.765625 0.875 -0.765625 2.625zm9.281967 5.015625l0 -13.359375l1.640625 0l0 13.359375l-1.640625 0zm10.816696 -3.109375l1.6875 0.203125q-0.40625 1.484375 -1.484375 2.3125q-1.078125 0.8125 -2.765625 0.8125q-2.125 0 -3.375 -1.296875q-1.234375 -1.3125 -1.234375 -3.671875q0 -2.453125 1.25 -3.796875q1.265625 -1.34375 3.265625 -1.34375q1.9375 0 3.15625 1.328125q1.234375 1.3125 1.234375 3.703125q0 0.15625 0 0.4375l-7.21875 0q0.09375 1.59375 0.90625 2.453125q0.8125 0.84375 2.015625 0.84375q0.90625 0 1.546875 -0.46875q0.640625 -0.484375 1.015625 -1.515625zm-5.390625 -2.65625l5.40625 0q-0.109375 -1.21875 -0.625 -1.828125q-0.78125 -0.953125 -2.03125 -0.953125q-1.125 0 -1.90625 0.765625q-0.765625 0.75 -0.84375 2.015625zm17.596786 5.765625l0 -11.78125l-4.40625 0l0 -1.578125l10.578125 0l0 1.578125l-4.40625 0l0 11.78125l-1.765625 0zm12.03009 -1.1875q-0.921875 0.765625 -1.765625 1.09375q-0.828125 0.3125 -1.796875 0.3125q-1.59375 0 -2.453125 -0.78125q-0.859375 -0.78125 -0.859375 -1.984375q0 -0.71875 0.328125 -1.296875q0.328125 -0.59375 0.84375 -0.9375q0.53125 -0.359375 1.1875 -0.546875q0.46875 -0.125 1.453125 -0.25q1.984375 -0.234375 2.921875 -0.5625q0.015625 -0.34375 0.015625 -0.421875q0 -1.0 -0.46875 -1.421875q-0.625 -0.546875 -1.875 -0.546875q-1.15625 0 -1.703125 0.40625q-0.546875 0.40625 -0.8125 1.421875l-1.609375 -0.21875q0.21875 -1.015625 0.71875 -1.640625q0.5 -0.640625 1.453125 -0.984375q0.953125 -0.34375 2.1875 -0.34375q1.25 0 2.015625 0.296875q0.78125 0.28125 1.140625 0.734375q0.375 0.4375 0.515625 1.109375q0.078125 0.421875 0.078125 1.515625l0 2.1875q0 2.28125 0.109375 2.890625q0.109375 0.59375 0.40625 1.15625l-1.703125 0q-0.265625 -0.515625 -0.328125 -1.1875zm-0.140625 -3.671875q-0.890625 0.375 -2.671875 0.625q-1.015625 0.140625 -1.4375 0.328125q-0.421875 0.1875 -0.65625 0.53125q-0.21875 0.34375 -0.21875 0.78125q0 0.65625 0.5 1.09375q0.5 0.4375 1.453125 0.4375q0.9375 0 1.671875 -0.40625q0.75 -0.421875 1.09375 -1.140625q0.265625 -0.5625 0.265625 -1.640625l0 -0.609375zm3.5475922 1.96875l1.625 -0.25q0.125 0.96875 0.75 1.5q0.625 0.515625 1.75 0.515625q1.125 0 1.671875 -0.453125q0.546875 -0.46875 0.546875 -1.09375q0 -0.546875 -0.484375 -0.875q-0.328125 -0.21875 -1.671875 -0.546875q-1.8125 -0.46875 -2.515625 -0.796875q-0.6875 -0.328125 -1.046875 -0.90625q-0.359375 -0.59375 -0.359375 -1.3125q0 -0.640625 0.296875 -1.1875q0.296875 -0.5625 0.8125 -0.921875q0.375 -0.28125 1.03125 -0.46875q0.671875 -0.203125 1.421875 -0.203125q1.140625 0 2.0 0.328125q0.859375 0.328125 1.265625 0.890625q0.421875 0.5625 0.578125 1.5l-1.609375 0.21875q-0.109375 -0.75 -0.640625 -1.171875q-0.515625 -0.421875 -1.46875 -0.421875q-1.140625 0 -1.625 0.375q-0.46875 0.375 -0.46875 0.875q0 0.3125 0.1875 0.578125q0.203125 0.265625 0.640625 0.4375q0.234375 0.09375 1.4375 0.421875q1.75 0.453125 2.4375 0.75q0.6875 0.296875 1.078125 0.859375q0.390625 0.5625 0.390625 1.40625q0 0.828125 -0.484375 1.546875q-0.46875 0.71875 -1.375 1.125q-0.90625 0.390625 -2.046875 0.390625q-1.875 0 -2.875 -0.78125q-0.984375 -0.78125 -1.25 -2.328125zm9.984375 2.890625l0 -13.359375l1.640625 0l0 7.625l3.890625 -3.9375l2.1093597 0l-3.6874847 3.59375l4.0624847 6.078125l-2.0156097 0l-3.203125 -4.953125l-1.15625 1.125l0 3.828125l-1.640625 0z" fill-rule="nonzero"/><path fill="#cccccc" d="m276.7063 363.867l0 0c0 -3.7417908 3.0333557 -6.7751465 6.775177 -6.7751465l27.099762 0l0 0c1.7969055 0 3.520172 0.71380615 4.7907715 1.9844055c1.2705688 1.2705688 1.984375 2.993866 1.984375 4.790741l0 43.30011c0 3.7417908 -3.0333252 6.7751465 -6.7751465 6.7751465l-27.099762 0c-3.7418213 0 -6.775177 -3.0333557 -6.775177 -6.7751465z" fill-rule="evenodd"/><path stroke="#ffffff" stroke-width="1.0" stroke-linejoin="round" stroke-linecap="butt" d="m276.7063 363.867l0 0c0 -3.7417908 3.0333557 -6.7751465 6.775177 -6.7751465l27.099762 0l0 0c1.7969055 0 3.520172 0.71380615 4.7907715 1.9844055c1.2705688 1.2705688 1.984375 2.993866 1.984375 4.790741l0 43.30011c0 3.7417908 -3.0333252 6.7751465 -6.7751465 6.7751465l-27.099762 0c-3.7418213 0 -6.775177 -3.0333557 -6.775177 -6.7751465z" fill-rule="evenodd"/><path fill="#cccccc" d="m276.7063 269.52582l0 0c0 -3.7418213 3.0333557 -6.7751465 6.775177 -6.7751465l27.099762 0l0 0c1.7969055 0 3.520172 0.71380615 4.7907715 1.984375c1.2705688 1.2705994 1.984375 2.993866 1.984375 4.7907715l0 43.30008c0 3.7418213 -3.0333252 6.7751465 -6.7751465 6.7751465l-27.099762 0c-3.7418213 0 -6.775177 -3.0333252 -6.775177 -6.7751465z" fill-rule="evenodd"/><path stroke="#ffffff" stroke-width="1.0" stroke-linejoin="round" stroke-linecap="butt" d="m276.7063 269.52582l0 0c0 -3.7418213 3.0333557 -6.7751465 6.775177 -6.7751465l27.099762 0l0 0c1.7969055 0 3.520172 0.71380615 4.7907715 1.984375c1.2705688 1.2705994 1.984375 2.993866 1.984375 4.7907715l0 43.30008c0 3.7418213 -3.0333252 6.7751465 -6.7751465 6.7751465l-27.099762 0c-3.7418213 0 -6.775177 -3.0333252 -6.775177 -6.7751465z" fill-rule="evenodd"/><path fill="#cccccc" d="m276.7063 175.1846l0 0c0 -3.7418213 3.0333557 -6.7751465 6.775177 -6.7751465l27.099762 0l0 0c1.7969055 0 3.520172 0.71380615 4.7907715 1.9843903c1.2705688 1.2705841 1.984375 2.993866 1.984375 4.790756l0 43.300095c0 3.741806 -3.0333252 6.7751465 -6.7751465 6.7751465l-27.099762 0c-3.7418213 0 -6.775177 -3.0333405 -6.775177 -6.7751465z" fill-rule="evenodd"/><path stroke="#ffffff" stroke-width="1.0" stroke-linejoin="round" stroke-linecap="butt" d="m276.7063 175.1846l0 0c0 -3.7418213 3.0333557 -6.7751465 6.775177 -6.7751465l27.099762 0l0 0c1.7969055 0 3.520172 0.71380615 4.7907715 1.9843903c1.2705688 1.2705841 1.984375 2.993866 1.984375 4.790756l0 43.300095c0 3.741806 -3.0333252 6.7751465 -6.7751465 6.7751465l-27.099762 0c-3.7418213 0 -6.775177 -3.0333405 -6.775177 -6.7751465z" fill-rule="evenodd"/><path fill="#000000" fill-opacity="0.0" d="m297.03134 357.09186l0 -37.480316" fill-rule="evenodd"/><path stroke="#ffffff" stroke-width="1.0" stroke-linejoin="round" stroke-linecap="butt" d="m297.03134 357.09186l0 -31.480316" fill-rule="evenodd"/><path fill="#ffffff" stroke="#ffffff" stroke-width="1.0" stroke-linecap="butt" d="m298.68307 325.61154l-1.6517334 -4.538086l-1.6517334 4.538086z" fill-rule="evenodd"/><path fill="#000000" fill-opacity="0.0" d="m297.03134 262.75067l0 -37.48033" fill-rule="evenodd"/><path stroke="#ffffff" stroke-width="1.0" stroke-linejoin="round" stroke-linecap="butt" d="m297.03134 262.75067l0 -31.480331" fill-rule="evenodd"/><path fill="#ffffff" stroke="#ffffff" stroke-width="1.0" stroke-linecap="butt" d="m298.68307 231.27034l-1.6517334 -4.538101l-1.6517334 4.538101z" fill-rule="evenodd"/><path fill="#000000" fill-opacity="0.0" d="m276.70602 20.66929l176.8504 0l0 37.480316l-176.8504 0z" fill-rule="evenodd"/><path fill="#ffffff" d="m308.11243 47.58929l0 -13.359375l2.65625 0l3.15625 9.453125q0.4375 1.328125 0.640625 1.984375q0.234375 -0.734375 0.703125 -2.140625l3.203125 -9.296875l2.375 0l0 13.359375l-1.703125 0l0 -11.171875l-3.875 11.171875l-1.59375 0l-3.859375 -11.375l0 11.375l-1.703125 0zm21.712677 0l0 -1.421875q-1.125 1.640625 -3.0625 1.640625q-0.859375 0 -1.609375 -0.328125q-0.734375 -0.328125 -1.09375 -0.828125q-0.359375 -0.5 -0.5 -1.21875q-0.109375 -0.46875 -0.109375 -1.53125l0 -5.984375l1.640625 0l0 5.359375q0 1.28125 0.109375 1.734375q0.15625 0.640625 0.65625 1.015625q0.5 0.375 1.234375 0.375q0.734375 0 1.375 -0.375q0.65625 -0.390625 0.921875 -1.03125q0.265625 -0.65625 0.265625 -1.890625l0 -5.1875l1.640625 0l0 9.671875l-1.46875 0zm4.0007324 0l0 -13.359375l1.640625 0l0 13.359375l-1.640625 0zm7.769806 -1.46875l0.234375 1.453125q-0.6875 0.140625 -1.234375 0.140625q-0.890625 0 -1.390625 -0.28125q-0.484375 -0.28125 -0.6875 -0.734375q-0.203125 -0.46875 -0.203125 -1.9375l0 -5.578125l-1.203125 0l0 -1.265625l1.203125 0l0 -2.390625l1.625 -0.984375l0 3.375l1.65625 0l0 1.265625l-1.65625 0l0 5.671875q0 0.6875 0.078125 0.890625q0.09375 0.203125 0.28125 0.328125q0.203125 0.109375 0.578125 0.109375q0.265625 0 0.71875 -0.0625zm1.6051941 -10.0l0 -1.890625l1.640625 0l0 1.890625l-1.640625 0zm0 11.46875l0 -9.671875l1.640625 0l0 9.671875l-1.640625 0zm4.144806 3.703125l0 -13.375l1.484375 0l0 1.25q0.53125 -0.734375 1.1875 -1.09375q0.671875 -0.375 1.625 -0.375q1.234375 0 2.171875 0.640625q0.953125 0.625 1.4375 1.796875q0.484375 1.15625 0.484375 2.546875q0 1.484375 -0.53125 2.671875q-0.53125 1.1875 -1.546875 1.828125q-1.015625 0.625 -2.140625 0.625q-0.8125 0 -1.46875 -0.34375q-0.65625 -0.34375 -1.0625 -0.875l0 4.703125l-1.640625 0zm1.484375 -8.484375q0 1.859375 0.75 2.765625q0.765625 0.890625 1.828125 0.890625q1.09375 0 1.875 -0.921875q0.78125 -0.9375 0.78125 -2.875q0 -1.84375 -0.765625 -2.765625q-0.75 -0.921875 -1.8125 -0.921875q-1.046875 0 -1.859375 0.984375q-0.796875 0.96875 -0.796875 2.84375zm8.844482 4.78125l0 -13.359375l1.640625 0l0 13.359375l-1.640625 0zm10.816681 -3.109375l1.6875 0.203125q-0.40625 1.484375 -1.484375 2.3125q-1.078125 0.8125 -2.765625 0.8125q-2.125 0 -3.375 -1.296875q-1.234375 -1.3125 -1.234375 -3.671875q0 -2.453125 1.25 -3.796875q1.265625 -1.34375 3.265625 -1.34375q1.9375 0 3.15625 1.328125q1.234375 1.3125 1.234375 3.703125q0 0.15625 0 0.4375l-7.21875 0q0.09375 1.59375 0.90625 2.453125q0.8125 0.84375 2.015625 0.84375q0.90625 0 1.546875 -0.46875q0.640625 -0.484375 1.015625 -1.515625zm-5.390625 -2.65625l5.40625 0q-0.109375 -1.21875 -0.625 -1.828125q-0.78125 -0.953125 -2.03125 -0.953125q-1.125 0 -1.90625 0.765625q-0.765625 0.75 -0.84375 2.015625zm17.596802 5.765625l0 -11.78125l-4.40625 0l0 -1.578125l10.578125 0l0 1.578125l-4.40625 0l0 11.78125l-1.765625 0zm12.03009 -1.1875q-0.921875 0.765625 -1.765625 1.09375q-0.828125 0.3125 -1.796875 0.3125q-1.59375 0 -2.453125 -0.78125q-0.859375 -0.78125 -0.859375 -1.984375q0 -0.71875 0.328125 -1.296875q0.328125 -0.59375 0.84375 -0.9375q0.53125 -0.359375 1.1875 -0.546875q0.46875 -0.125 1.453125 -0.25q1.984375 -0.234375 2.921875 -0.5625q0.015625 -0.34375 0.015625 -0.421875q0 -1.0 -0.46875 -1.421875q-0.625 -0.546875 -1.875 -0.546875q-1.15625 0 -1.703125 0.40625q-0.546875 0.40625 -0.8125 1.421875l-1.609375 -0.21875q0.21875 -1.015625 0.71875 -1.640625q0.5 -0.640625 1.453125 -0.984375q0.953125 -0.34375 2.1875 -0.34375q1.25 0 2.015625 0.296875q0.78125 0.28125 1.140625 0.734375q0.375 0.4375 0.515625 1.109375q0.078125 0.421875 0.078125 1.515625l0 2.1875q0 2.28125 0.109375 2.890625q0.109375 0.59375 0.40625 1.15625l-1.703125 0q-0.265625 -0.515625 -0.328125 -1.1875zm-0.140625 -3.671875q-0.890625 0.375 -2.671875 0.625q-1.015625 0.140625 -1.4375 0.328125q-0.421875 0.1875 -0.65625 0.53125q-0.21875 0.34375 -0.21875 0.78125q0 0.65625 0.5 1.09375q0.5 0.4375 1.453125 0.4375q0.9375 0 1.671875 -0.40625q0.75 -0.421875 1.09375 -1.140625q0.265625 -0.5625 0.265625 -1.640625l0 -0.609375zm3.547577 1.96875l1.625 -0.25q0.125 0.96875 0.75 1.5q0.625 0.515625 1.75 0.515625q1.125 0 1.671875 -0.453125q0.546875 -0.46875 0.546875 -1.09375q0 -0.546875 -0.484375 -0.875q-0.328125 -0.21875 -1.671875 -0.546875q-1.8125 -0.46875 -2.515625 -0.796875q-0.6875 -0.328125 -1.046875 -0.90625q-0.359375 -0.59375 -0.359375 -1.3125q0 -0.640625 0.296875 -1.1875q0.296875 -0.5625 0.8125 -0.921875q0.375 -0.28125 1.03125 -0.46875q0.671875 -0.203125 1.421875 -0.203125q1.140625 0 2.0 0.328125q0.859375 0.328125 1.265625 0.890625q0.421875 0.5625 0.578125 1.5l-1.609375 0.21875q-0.109375 -0.75 -0.640625 -1.171875q-0.515625 -0.421875 -1.46875 -0.421875q-1.140625 0 -1.625 0.375q-0.46875 0.375 -0.46875 0.875q0 0.3125 0.1875 0.578125q0.203125 0.265625 0.640625 0.4375q0.234375 0.09375 1.4375 0.421875q1.75 0.453125 2.4375 0.75q0.6875 0.296875 1.078125 0.859375q0.390625 0.5625 0.390625 1.40625q0 0.828125 -0.484375 1.546875q-0.46875 0.71875 -1.375 1.125q-0.90625 0.390625 -2.046875 0.390625q-1.875 0 -2.875 -0.78125q-0.984375 -0.78125 -1.25 -2.328125zm9.984375 2.890625l0 -13.359375l1.640625 0l0 7.625l3.890625 -3.9375l2.109375 0l-3.6875 3.59375l4.0625 6.078125l-2.015625 0l-3.203125 -4.953125l-1.15625 1.125l0 3.828125l-1.640625 0zm8.671875 -2.890625l1.625 -0.25q0.125 0.96875 0.75 1.5q0.625 0.515625 1.75 0.515625q1.125 0 1.671875 -0.453125q0.546875 -0.46875 0.546875 -1.09375q0 -0.546875 -0.484375 -0.875q-0.328125 -0.21875 -1.671875 -0.546875q-1.8125 -0.46875 -2.515625 -0.796875q-0.6875 -0.328125 -1.046875 -0.90625q-0.359375 -0.59375 -0.359375 -1.3125q0 -0.640625 0.296875 -1.1875q0.296875 -0.5625 0.8125 -0.921875q0.375 -0.28125 1.03125 -0.46875q0.671875 -0.203125 1.421875 -0.203125q1.140625 0 2.0 0.328125q0.859375 0.328125 1.265625 0.890625q0.421875 0.5625 0.578125 1.5l-1.609375 0.21875q-0.109375 -0.75 -0.640625 -1.171875q-0.515625 -0.421875 -1.46875 -0.421875q-1.140625 0 -1.625 0.375q-0.46875 0.375 -0.46875 0.875q0 0.3125 0.1875 0.578125q0.203125 0.265625 0.640625 0.4375q0.234375 0.09375 1.4375 0.421875q1.75 0.453125 2.4375 0.75q0.6875 0.296875 1.078125 0.859375q0.390625 0.5625 0.390625 1.40625q0 0.828125 -0.484375 1.546875q-0.46875 0.71875 -1.375 1.125q-0.90625 0.390625 -2.046875 0.390625q-1.875 0 -2.875 -0.78125q-0.984375 -0.78125 -1.25 -2.328125z" fill-rule="nonzero"/><path fill="#cccccc" d="m336.5273 363.867l0 0c0 -3.7417908 3.0333252 -6.7751465 6.7751465 -6.7751465l27.099762 0l0 0c1.7969055 0 3.520172 0.71380615 4.7907715 1.9844055c1.2705994 1.2705688 1.9844055 2.993866 1.9844055 4.790741l0 43.30011c0 3.7417908 -3.0333557 6.7751465 -6.775177 6.7751465l-27.099762 0c-3.7418213 0 -6.7751465 -3.0333557 -6.7751465 -6.7751465z" fill-rule="evenodd"/><path stroke="#ffffff" stroke-width="1.0" stroke-linejoin="round" stroke-linecap="butt" d="m336.5273 363.867l0 0c0 -3.7417908 3.0333252 -6.7751465 6.7751465 -6.7751465l27.099762 0l0 0c1.7969055 0 3.520172 0.71380615 4.7907715 1.9844055c1.2705994 1.2705688 1.9844055 2.993866 1.9844055 4.790741l0 43.30011c0 3.7417908 -3.0333557 6.7751465 -6.775177 6.7751465l-27.099762 0c-3.7418213 0 -6.7751465 -3.0333557 -6.7751465 -6.7751465z" fill-rule="evenodd"/><path fill="#cccccc" d="m336.5273 269.52582l0 0c0 -3.7418213 3.0333252 -6.7751465 6.7751465 -6.7751465l27.099762 0l0 0c1.7969055 0 3.520172 0.71380615 4.7907715 1.984375c1.2705994 1.2705994 1.9844055 2.993866 1.9844055 4.7907715l0 43.30008c0 3.7418213 -3.0333557 6.7751465 -6.775177 6.7751465l-27.099762 0c-3.7418213 0 -6.7751465 -3.0333252 -6.7751465 -6.7751465z" fill-rule="evenodd"/><path stroke="#ffffff" stroke-width="1.0" stroke-linejoin="round" stroke-linecap="butt" d="m336.5273 269.52582l0 0c0 -3.7418213 3.0333252 -6.7751465 6.7751465 -6.7751465l27.099762 0l0 0c1.7969055 0 3.520172 0.71380615 4.7907715 1.984375c1.2705994 1.2705994 1.9844055 2.993866 1.9844055 4.7907715l0 43.30008c0 3.7418213 -3.0333557 6.7751465 -6.775177 6.7751465l-27.099762 0c-3.7418213 0 -6.7751465 -3.0333252 -6.7751465 -6.7751465z" fill-rule="evenodd"/><path fill="#cccccc" d="m336.5273 175.1846l0 0c0 -3.7418213 3.0333252 -6.7751465 6.7751465 -6.7751465l27.099762 0l0 0c1.7969055 0 3.520172 0.71380615 4.7907715 1.9843903c1.2705994 1.2705841 1.9844055 2.993866 1.9844055 4.790756l0 43.300095c0 3.741806 -3.0333557 6.7751465 -6.775177 6.7751465l-27.099762 0c-3.7418213 0 -6.7751465 -3.0333405 -6.7751465 -6.7751465z" fill-rule="evenodd"/><path stroke="#ffffff" stroke-width="1.0" stroke-linejoin="round" stroke-linecap="butt" d="m336.5273 175.1846l0 0c0 -3.7418213 3.0333252 -6.7751465 6.7751465 -6.7751465l27.099762 0l0 0c1.7969055 0 3.520172 0.71380615 4.7907715 1.9843903c1.2705994 1.2705841 1.9844055 2.993866 1.9844055 4.790756l0 43.300095c0 3.741806 -3.0333557 6.7751465 -6.775177 6.7751465l-27.099762 0c-3.7418213 0 -6.7751465 -3.0333405 -6.7751465 -6.7751465z" fill-rule="evenodd"/><path fill="#000000" fill-opacity="0.0" d="m356.85236 357.09186l0 -37.480316" fill-rule="evenodd"/><path stroke="#ffffff" stroke-width="1.0" stroke-linejoin="round" stroke-linecap="butt" d="m356.85236 357.09186l0 -31.480316" fill-rule="evenodd"/><path fill="#ffffff" stroke="#ffffff" stroke-width="1.0" stroke-linecap="butt" d="m358.5041 325.61154l-1.6517334 -4.538086l-1.6517334 4.538086z" fill-rule="evenodd"/><path fill="#000000" fill-opacity="0.0" d="m356.85236 262.75067l0 -37.48033" fill-rule="evenodd"/><path stroke="#ffffff" stroke-width="1.0" stroke-linejoin="round" stroke-linecap="butt" d="m356.85236 262.75067l0 -31.480331" fill-rule="evenodd"/><path fill="#ffffff" stroke="#ffffff" stroke-width="1.0" stroke-linecap="butt" d="m358.5041 231.27034l-1.6517334 -4.538101l-1.6517334 4.538101z" fill-rule="evenodd"/><path fill="#cccccc" d="m412.61008 363.867l0 0c0 -3.7417908 3.0333252 -6.7751465 6.7751465 -6.7751465l27.099792 0l0 0c1.796875 0 3.5201416 0.71380615 4.790741 1.9844055c1.2705994 1.2705688 1.9844055 2.993866 1.9844055 4.790741l0 43.30011c0 3.7417908 -3.0333557 6.7751465 -6.7751465 6.7751465l-27.099792 0c-3.7418213 0 -6.7751465 -3.0333557 -6.7751465 -6.7751465z" fill-rule="evenodd"/><path stroke="#ffffff" stroke-width="1.0" stroke-linejoin="round" stroke-linecap="butt" d="m412.61008 363.867l0 0c0 -3.7417908 3.0333252 -6.7751465 6.7751465 -6.7751465l27.099792 0l0 0c1.796875 0 3.5201416 0.71380615 4.790741 1.9844055c1.2705994 1.2705688 1.9844055 2.993866 1.9844055 4.790741l0 43.30011c0 3.7417908 -3.0333557 6.7751465 -6.7751465 6.7751465l-27.099792 0c-3.7418213 0 -6.7751465 -3.0333557 -6.7751465 -6.7751465z" fill-rule="evenodd"/><path fill="#cccccc" d="m412.61008 269.52582l0 0c0 -3.7418213 3.0333252 -6.7751465 6.7751465 -6.7751465l27.099792 0l0 0c1.796875 0 3.5201416 0.71380615 4.790741 1.984375c1.2705994 1.2705994 1.9844055 2.993866 1.9844055 4.7907715l0 43.30008c0 3.7418213 -3.0333557 6.7751465 -6.7751465 6.7751465l-27.099792 0c-3.7418213 0 -6.7751465 -3.0333252 -6.7751465 -6.7751465z" fill-rule="evenodd"/><path stroke="#ffffff" stroke-width="1.0" stroke-linejoin="round" stroke-linecap="butt" d="m412.61008 269.52582l0 0c0 -3.7418213 3.0333252 -6.7751465 6.7751465 -6.7751465l27.099792 0l0 0c1.796875 0 3.5201416 0.71380615 4.790741 1.984375c1.2705994 1.2705994 1.9844055 2.993866 1.9844055 4.7907715l0 43.30008c0 3.7418213 -3.0333557 6.7751465 -6.7751465 6.7751465l-27.099792 0c-3.7418213 0 -6.7751465 -3.0333252 -6.7751465 -6.7751465z" fill-rule="evenodd"/><path fill="#cccccc" d="m412.61008 175.1846l0 0c0 -3.7418213 3.0333252 -6.7751465 6.7751465 -6.7751465l27.099792 0l0 0c1.796875 0 3.5201416 0.71380615 4.790741 1.9843903c1.2705994 1.2705841 1.9844055 2.993866 1.9844055 4.790756l0 43.300095c0 3.741806 -3.0333557 6.7751465 -6.7751465 6.7751465l-27.099792 0c-3.7418213 0 -6.7751465 -3.0333405 -6.7751465 -6.7751465z" fill-rule="evenodd"/><path stroke="#ffffff" stroke-width="1.0" stroke-linejoin="round" stroke-linecap="butt" d="m412.61008 175.1846l0 0c0 -3.7418213 3.0333252 -6.7751465 6.7751465 -6.7751465l27.099792 0l0 0c1.796875 0 3.5201416 0.71380615 4.790741 1.9843903c1.2705994 1.2705841 1.9844055 2.993866 1.9844055 4.790756l0 43.300095c0 3.741806 -3.0333557 6.7751465 -6.7751465 6.7751465l-27.099792 0c-3.7418213 0 -6.7751465 -3.0333405 -6.7751465 -6.7751465z" fill-rule="evenodd"/><path fill="#000000" fill-opacity="0.0" d="m432.93512 357.09186l0 -37.480316" fill-rule="evenodd"/><path stroke="#ffffff" stroke-width="1.0" stroke-linejoin="round" stroke-linecap="butt" d="m432.93512 357.09186l0 -31.480316" fill-rule="evenodd"/><path fill="#ffffff" stroke="#ffffff" stroke-width="1.0" stroke-linecap="butt" d="m434.58685 325.61154l-1.6517334 -4.538086l-1.6517334 4.538086z" fill-rule="evenodd"/><path fill="#000000" fill-opacity="0.0" d="m432.93512 262.75067l0 -37.48033" fill-rule="evenodd"/><path stroke="#ffffff" stroke-width="1.0" stroke-linejoin="round" stroke-linecap="butt" d="m432.93512 262.75067l0 -31.480331" fill-rule="evenodd"/><path fill="#ffffff" stroke="#ffffff" stroke-width="1.0" stroke-linecap="butt" d="m434.58685 231.27034l-1.6517334 -4.538101l-1.6517334 4.538101z" fill-rule="evenodd"/><path fill="#000000" fill-opacity="0.0" d="m550.80054 18.795275l147.81104 0l0 41.228348l-147.81104 0z" fill-rule="evenodd"/><path fill="#ffffff" d="m589.2943 45.715275l0 -13.359375l2.65625 0l3.15625 9.453125q0.4375 1.328125 0.640625 1.984375q0.234375 -0.734375 0.703125 -2.140625l3.203125 -9.296875l2.375 0l0 13.359375l-1.703125 0l0 -11.171875l-3.875 11.171875l-1.59375 0l-3.859375 -11.375l0 11.375l-1.703125 0zm21.712646 0l0 -1.421875q-1.125 1.640625 -3.0625 1.640625q-0.859375 0 -1.609375 -0.328125q-0.734375 -0.328125 -1.09375 -0.828125q-0.359375 -0.5 -0.5 -1.21875q-0.109375 -0.46875 -0.109375 -1.53125l0 -5.984375l1.640625 0l0 5.359375q0 1.28125 0.109375 1.734375q0.15625 0.640625 0.65625 1.015625q0.5 0.375 1.234375 0.375q0.734375 0 1.375 -0.375q0.65625 -0.390625 0.921875 -1.03125q0.265625 -0.65625 0.265625 -1.890625l0 -5.1875l1.640625 0l0 9.671875l-1.46875 0zm4.0007324 0l0 -13.359375l1.640625 0l0 13.359375l-1.640625 0zm7.7698364 -1.46875l0.234375 1.453125q-0.6875 0.140625 -1.234375 0.140625q-0.890625 0 -1.390625 -0.28125q-0.484375 -0.28125 -0.6875 -0.734375q-0.203125 -0.46875 -0.203125 -1.9375l0 -5.578125l-1.203125 0l0 -1.265625l1.203125 0l0 -2.390625l1.625 -0.984375l0 3.375l1.65625 0l0 1.265625l-1.65625 0l0 5.671875q0 0.6875 0.078125 0.890625q0.09375 0.203125 0.28125 0.328125q0.203125 0.109375 0.578125 0.109375q0.265625 0 0.71875 -0.0625zm1.6051636 -10.0l0 -1.890625l1.640625 0l0 1.890625l-1.640625 0zm0 11.46875l0 -9.671875l1.640625 0l0 9.671875l-1.640625 0zm7.7229614 -1.46875l0.234375 1.453125q-0.6875 0.140625 -1.234375 0.140625q-0.890625 0 -1.390625 -0.28125q-0.484375 -0.28125 -0.6875 -0.734375q-0.203125 -0.46875 -0.203125 -1.9375l0 -5.578125l-1.203125 0l0 -1.265625l1.203125 0l0 -2.390625l1.625 -0.984375l0 3.375l1.65625 0l0 1.265625l-1.65625 0l0 5.671875q0 0.6875 0.078125 0.890625q0.09375 0.203125 0.28125 0.328125q0.203125 0.109375 0.578125 0.109375q0.265625 0 0.71875 -0.0625zm7.9176636 0.28125q-0.921875 0.765625 -1.765625 1.09375q-0.828125 0.3125 -1.796875 0.3125q-1.59375 0 -2.453125 -0.78125q-0.859375 -0.78125 -0.859375 -1.984375q0 -0.71875 0.328125 -1.296875q0.328125 -0.59375 0.84375 -0.9375q0.53125 -0.359375 1.1875 -0.546875q0.46875 -0.125 1.453125 -0.25q1.984375 -0.234375 2.921875 -0.5625q0.015625 -0.34375 0.015625 -0.421875q0 -1.0 -0.46875 -1.421875q-0.625 -0.546875 -1.875 -0.546875q-1.15625 0 -1.703125 0.40625q-0.546875 0.40625 -0.8125 1.421875l-1.609375 -0.21875q0.21875 -1.015625 0.71875 -1.640625q0.5 -0.640625 1.453125 -0.984375q0.953125 -0.34375 2.1875 -0.34375q1.25 0 2.015625 0.296875q0.78125 0.28125 1.140625 0.734375q0.375 0.4375 0.515625 1.109375q0.078125 0.421875 0.078125 1.515625l0 2.1875q0 2.28125 0.109375 2.890625q0.109375 0.59375 0.40625 1.15625l-1.703125 0q-0.265625 -0.515625 -0.328125 -1.1875zm-0.140625 -3.671875q-0.890625 0.375 -2.671875 0.625q-1.015625 0.140625 -1.4375 0.328125q-0.421875 0.1875 -0.65625 0.53125q-0.21875 0.34375 -0.21875 0.78125q0 0.65625 0.5 1.09375q0.5 0.4375 1.453125 0.4375q0.9375 0 1.671875 -0.40625q0.75 -0.421875 1.09375 -1.140625q0.265625 -0.5625 0.265625 -1.640625l0 -0.609375zm3.5476074 1.96875l1.625 -0.25q0.125 0.96875 0.75 1.5q0.625 0.515625 1.75 0.515625q1.125 0 1.671875 -0.453125q0.546875 -0.46875 0.546875 -1.09375q0 -0.546875 -0.484375 -0.875q-0.328125 -0.21875 -1.671875 -0.546875q-1.8125 -0.46875 -2.515625 -0.796875q-0.6875 -0.328125 -1.046875 -0.90625q-0.359375 -0.59375 -0.359375 -1.3125q0 -0.640625 0.296875 -1.1875q0.296875 -0.5625 0.8125 -0.921875q0.375 -0.28125 1.03125 -0.46875q0.671875 -0.203125 1.421875 -0.203125q1.140625 0 2.0 0.328125q0.859375 0.328125 1.265625 0.890625q0.421875 0.5625 0.578125 1.5l-1.609375 0.21875q-0.109375 -0.75 -0.640625 -1.171875q-0.515625 -0.421875 -1.46875 -0.421875q-1.140625 0 -1.625 0.375q-0.46875 0.375 -0.46875 0.875q0 0.3125 0.1875 0.578125q0.203125 0.265625 0.640625 0.4375q0.234375 0.09375 1.4375 0.421875q1.75 0.453125 2.4375 0.75q0.6875 0.296875 1.078125 0.859375q0.390625 0.5625 0.390625 1.40625q0 0.828125 -0.484375 1.546875q-0.46875 0.71875 -1.375 1.125q-0.90625 0.390625 -2.046875 0.390625q-1.875 0 -2.875 -0.78125q-0.984375 -0.78125 -1.25 -2.328125zm9.984375 2.890625l0 -13.359375l1.640625 0l0 7.625l3.890625 -3.9375l2.109375 0l-3.6875 3.59375l4.0625 6.078125l-2.015625 0l-3.203125 -4.953125l-1.15625 1.125l0 3.828125l-1.640625 0z" fill-rule="nonzero"/><path fill="#cccccc" d="m548.51184 363.029l0 0c0 -3.2065125 2.5993652 -5.805908 5.805847 -5.805908l23.2229 0l0 0c1.5397949 0 3.0165405 0.61169434 4.1053467 1.700531c1.0888062 1.0888062 1.7005005 2.5655518 1.7005005 4.105377l0 45.238617c0 3.206482 -2.5993652 5.8058777 -5.805847 5.8058777l-23.2229 0c-3.206482 0 -5.805847 -2.5993958 -5.805847 -5.8058777z" fill-rule="evenodd"/><path stroke="#ffffff" stroke-width="1.0" stroke-linejoin="round" stroke-linecap="butt" d="m548.51184 363.029l0 0c0 -3.2065125 2.5993652 -5.805908 5.805847 -5.805908l23.2229 0l0 0c1.5397949 0 3.0165405 0.61169434 4.1053467 1.700531c1.0888062 1.0888062 1.7005005 2.5655518 1.7005005 4.105377l0 45.238617c0 3.206482 -2.5993652 5.8058777 -5.805847 5.8058777l-23.2229 0c-3.206482 0 -5.805847 -2.5993958 -5.805847 -5.8058777z" fill-rule="evenodd"/><path fill="#cccccc" d="m548.51184 272.35715l0 0c0 -5.233032 4.2421875 -9.47525 9.47522 -9.47525l132.32507 0c2.5130005 0 4.9230957 0.9982605 6.700012 2.775238c1.7769775 1.776947 2.7752686 4.1870117 2.7752686 6.700012l0 37.89987c0 5.2330627 -4.2422485 9.47525 -9.475281 9.47525l-132.32507 0l0 0c-5.233032 0 -9.47522 -4.2421875 -9.47522 -9.47525z" fill-rule="evenodd"/><path stroke="#ffffff" stroke-width="1.0" stroke-linejoin="round" stroke-linecap="butt" d="m548.51184 272.35715l0 0c0 -5.233032 4.2421875 -9.47525 9.47522 -9.47525l132.32507 0c2.5130005 0 4.9230957 0.9982605 6.700012 2.775238c1.7769775 1.776947 2.7752686 4.1870117 2.7752686 6.700012l0 37.89987c0 5.2330627 -4.2422485 9.47525 -9.475281 9.47525l-132.32507 0l0 0c-5.233032 0 -9.47522 -4.2421875 -9.47522 -9.47525z" fill-rule="evenodd"/><path fill="#cccccc" d="m548.51184 174.34657l0 0c0 -3.2064972 2.5993652 -5.805893 5.805847 -5.805893l23.2229 0l0 0c1.5397949 0 3.0165405 0.61169434 4.1053467 1.7005157c1.0888062 1.0888062 1.7005005 2.5655518 1.7005005 4.105377l0 45.238617c0 3.2064972 -2.5993652 5.805893 -5.805847 5.805893l-23.2229 0c-3.206482 0 -5.805847 -2.5993958 -5.805847 -5.805893z" fill-rule="evenodd"/><path stroke="#ffffff" stroke-width="1.0" stroke-linejoin="round" stroke-linecap="butt" d="m548.51184 174.34657l0 0c0 -3.2064972 2.5993652 -5.805893 5.805847 -5.805893l23.2229 0l0 0c1.5397949 0 3.0165405 0.61169434 4.1053467 1.7005157c1.0888062 1.0888062 1.7005005 2.5655518 1.7005005 4.105377l0 45.238617c0 3.2064972 -2.5993652 5.805893 -5.805847 5.805893l-23.2229 0c-3.206482 0 -5.805847 -2.5993958 -5.805847 -5.805893z" fill-rule="evenodd"/><path fill="#000000" fill-opacity="0.0" d="m565.92914 357.22308l58.236206 -37.480316" fill-rule="evenodd"/><path stroke="#ffffff" stroke-width="1.0" stroke-linejoin="round" stroke-linecap="butt" d="m565.92914 357.22308l53.190796 -34.233124" fill-rule="evenodd"/><path fill="#ffffff" stroke="#ffffff" stroke-width="1.0" stroke-linecap="butt" d="m620.01385 324.37888l2.9221802 -3.8449097l-4.709961 1.0670471z" fill-rule="evenodd"/><path fill="#000000" fill-opacity="0.0" d="m624.1496 262.8819l-58.236206 -37.480316" fill-rule="evenodd"/><path stroke="#ffffff" stroke-width="1.0" stroke-linejoin="round" stroke-linecap="butt" d="m624.1496 262.8819l-53.190796 -34.233154" fill-rule="evenodd"/><path fill="#ffffff" stroke="#ffffff" stroke-width="1.0" stroke-linecap="butt" d="m571.85266 227.2598l-4.709961 -1.0670471l2.9221802 3.844925z" fill-rule="evenodd"/><path fill="#cccccc" d="m599.762 363.029l0 0c0 -3.2065125 2.5994263 -5.805908 5.805908 -5.805908l23.22284 0l0 0c1.539856 0 3.0166016 0.61169434 4.1054077 1.700531c1.0888062 1.0888062 1.7005005 2.5655518 1.7005005 4.105377l0 45.238617c0 3.206482 -2.5993652 5.8058777 -5.805908 5.8058777l-23.22284 0c-3.206482 0 -5.805908 -2.5993958 -5.805908 -5.8058777z" fill-rule="evenodd"/><path stroke="#ffffff" stroke-width="1.0" stroke-linejoin="round" stroke-linecap="butt" d="m599.762 363.029l0 0c0 -3.2065125 2.5994263 -5.805908 5.805908 -5.805908l23.22284 0l0 0c1.539856 0 3.0166016 0.61169434 4.1054077 1.700531c1.0888062 1.0888062 1.7005005 2.5655518 1.7005005 4.105377l0 45.238617c0 3.206482 -2.5993652 5.8058777 -5.805908 5.8058777l-23.22284 0c-3.206482 0 -5.805908 -2.5993958 -5.805908 -5.8058777z" fill-rule="evenodd"/><path fill="#cccccc" d="m599.762 174.34657l0 0c0 -3.2064972 2.5994263 -5.805893 5.805908 -5.805893l23.22284 0l0 0c1.539856 0 3.0166016 0.61169434 4.1054077 1.7005157c1.0888062 1.0888062 1.7005005 2.5655518 1.7005005 4.105377l0 45.238617c0 3.2064972 -2.5993652 5.805893 -5.805908 5.805893l-23.22284 0c-3.206482 0 -5.805908 -2.5993958 -5.805908 -5.805893z" fill-rule="evenodd"/><path stroke="#ffffff" stroke-width="1.0" stroke-linejoin="round" stroke-linecap="butt" d="m599.762 174.34657l0 0c0 -3.2064972 2.5994263 -5.805893 5.805908 -5.805893l23.22284 0l0 0c1.539856 0 3.0166016 0.61169434 4.1054077 1.7005157c1.0888062 1.0888062 1.7005005 2.5655518 1.7005005 4.105377l0 45.238617c0 3.2064972 -2.5993652 5.805893 -5.805908 5.805893l-23.22284 0c-3.206482 0 -5.805908 -2.5993958 -5.805908 -5.805893z" fill-rule="evenodd"/><path fill="#cccccc" d="m664.94415 363.029l0 0c0 -3.2065125 2.5994263 -5.805908 5.805908 -5.805908l23.22284 0l0 0c1.539856 0 3.0166016 0.61169434 4.1054077 1.700531c1.0888062 1.0888062 1.7005005 2.5655518 1.7005005 4.105377l0 45.238617c0 3.206482 -2.5993652 5.8058777 -5.805908 5.8058777l-23.22284 0c-3.206482 0 -5.805908 -2.5993958 -5.805908 -5.8058777z" fill-rule="evenodd"/><path stroke="#ffffff" stroke-width="1.0" stroke-linejoin="round" stroke-linecap="butt" d="m664.94415 363.029l0 0c0 -3.2065125 2.5994263 -5.805908 5.805908 -5.805908l23.22284 0l0 0c1.539856 0 3.0166016 0.61169434 4.1054077 1.700531c1.0888062 1.0888062 1.7005005 2.5655518 1.7005005 4.105377l0 45.238617c0 3.206482 -2.5993652 5.8058777 -5.805908 5.8058777l-23.22284 0c-3.206482 0 -5.805908 -2.5993958 -5.805908 -5.8058777z" fill-rule="evenodd"/><path fill="#cccccc" d="m664.94415 174.34657l0 0c0 -3.2064972 2.5994263 -5.805893 5.805908 -5.805893l23.22284 0l0 0c1.539856 0 3.0166016 0.61169434 4.1054077 1.7005157c1.0888062 1.0888062 1.7005005 2.5655518 1.7005005 4.105377l0 45.238617c0 3.2064972 -2.5993652 5.805893 -5.805908 5.805893l-23.22284 0c-3.206482 0 -5.805908 -2.5993958 -5.805908 -5.805893z" fill-rule="evenodd"/><path stroke="#ffffff" stroke-width="1.0" stroke-linejoin="round" stroke-linecap="butt" d="m664.94415 174.34657l0 0c0 -3.2064972 2.5994263 -5.805893 5.805908 -5.805893l23.22284 0l0 0c1.539856 0 3.0166016 0.61169434 4.1054077 1.7005157c1.0888062 1.0888062 1.7005005 2.5655518 1.7005005 4.105377l0 45.238617c0 3.2064972 -2.5993652 5.805893 -5.805908 5.805893l-23.22284 0c-3.206482 0 -5.805908 -2.5993958 -5.805908 -5.805893z" fill-rule="evenodd"/><path fill="#000000" fill-opacity="0.0" d="m276.70602 449.06824l176.8504 0l0 41.228363l-176.8504 0z" fill-rule="evenodd"/><path fill="#ffffff" d="m290.54977 475.98825l0 -11.78125l-4.40625 0l0 -1.578125l10.578125 0l0 1.578125l-4.40625 0l0 11.78125l-1.765625 0z" fill-rule="nonzero"/><path fill="#ffffff" d="m301.74265 482.98825l-1.09375 0l0 -6.96875q-0.40625 0.375 -1.046875 0.75q-0.640625 0.375 -1.140625 0.578125l0 -1.0625q0.90625 -0.4375 1.59375 -1.046875q0.6875 -0.609375 0.96875 -1.1875l0.71875 0l0 8.9375z" fill-rule="nonzero"/><path fill="#ffffff" d="m344.8087 475.98825l0 -11.78125l-4.40625 0l0 -1.578125l10.578125 0l0 1.578125l-4.40625 0l0 11.78125l-1.765625 0z" fill-rule="nonzero"/><path fill="#ffffff" d="m357.62656 481.94138l0 1.046875l-5.890625 0q-0.015625 -0.390625 0.125 -0.765625q0.234375 -0.59375 0.71875 -1.171875q0.5 -0.59375 1.4375 -1.359375q1.453125 -1.1875 1.953125 -1.875q0.515625 -0.703125 0.515625 -1.3125q0 -0.65625 -0.46875 -1.09375q-0.453125 -0.453125 -1.203125 -0.453125q-0.796875 0 -1.265625 0.46875q-0.46875 0.46875 -0.484375 1.3125l-1.125 -0.109375q0.125 -1.265625 0.875 -1.921875q0.75 -0.65625 2.015625 -0.65625q1.28125 0 2.03125 0.71875q0.75 0.703125 0.75 1.75q0 0.53125 -0.21875 1.046875q-0.21875 0.515625 -0.734375 1.09375q-0.5 0.5625 -1.671875 1.5625q-0.984375 0.828125 -1.265625 1.125q-0.28125 0.296875 -0.46875 0.59375l4.375 0z" fill-rule="nonzero"/><path fill="#ffffff" d="m385.882 475.98825l0 -1.875l1.875 0l0 1.875l-1.875 0zm5.1832886 0l0 -1.875l1.875 0l0 1.875l-1.875 0zm5.183319 0l0 -1.875l1.875 0l0 1.875l-1.875 0zm23.552216 0l0 -11.78125l-4.40625 0l0 -1.578125l10.578125 0l0 1.578125l-4.40625 0l0 11.78125l-1.765625 0z" fill-rule="nonzero"/><path fill="#ffffff" d="m426.71243 480.457l1.0625 -0.140625q0.046875 1.015625 0.375 1.390625q0.34375 0.375 0.953125 0.375q0.4375 0 0.75 -0.203125q0.328125 -0.203125 0.453125 -0.546875q0.125 -0.34375 0.125 -1.109375l0 -6.140625l1.171875 0l0 6.0625q0 1.125 -0.265625 1.75q-0.265625 0.609375 -0.859375 0.9375q-0.578125 0.3125 -1.375 0.3125q-1.171875 0 -1.796875 -0.671875q-0.625 -0.6875 -0.59375 -2.015625z" fill-rule="nonzero"/><path fill="#000000" fill-opacity="0.0" d="m617.1794 357.22308l6.9606323 -37.480316" fill-rule="evenodd"/><path stroke="#ffffff" stroke-width="1.0" stroke-linejoin="round" stroke-linecap="butt" d="m617.1794 357.22308l5.8650513 -31.581177" fill-rule="evenodd"/><path fill="#ffffff" stroke="#ffffff" stroke-width="1.0" stroke-linecap="butt" d="m624.6684 325.9435l-0.7952881 -4.763397l-2.4526367 4.1602173z" fill-rule="evenodd"/><path fill="#000000" fill-opacity="0.0" d="m682.3615 357.22308l-58.204712 -37.480316" fill-rule="evenodd"/><path stroke="#ffffff" stroke-width="1.0" stroke-linejoin="round" stroke-linecap="butt" d="m682.3615 357.22308l-53.160156 -34.231903" fill-rule="evenodd"/><path fill="#ffffff" stroke="#ffffff" stroke-width="1.0" stroke-linecap="butt" d="m630.09564 321.60248l-4.709717 -1.0682068l2.9212036 3.845642z" fill-rule="evenodd"/><path fill="#000000" fill-opacity="0.0" d="m624.1496 262.8819l-6.9606323 -37.480316" fill-rule="evenodd"/><path stroke="#ffffff" stroke-width="1.0" stroke-linejoin="round" stroke-linecap="butt" d="m624.1496 262.8819l-5.8650513 -31.581192" fill-rule="evenodd"/><path fill="#ffffff" stroke="#ffffff" stroke-width="1.0" stroke-linecap="butt" d="m619.9085 230.99911l-2.4525757 -4.1602173l-0.7953491 4.763397z" fill-rule="evenodd"/><path fill="#000000" fill-opacity="0.0" d="m624.1496 262.8819l58.204712 -37.480316" fill-rule="evenodd"/><path stroke="#ffffff" stroke-width="1.0" stroke-linejoin="round" stroke-linecap="butt" d="m624.1496 262.8819l53.160156 -34.23192" fill-rule="evenodd"/><path fill="#ffffff" stroke="#ffffff" stroke-width="1.0" stroke-linecap="butt" d="m678.204 230.0387l2.9212646 -3.845642l-4.709778 1.0682068z" fill-rule="evenodd"/><path fill="#cccccc" d="m769.84296 377.4301l0 0c0 -3.8426208 3.1150513 -6.957672 6.9576416 -6.957672l27.829834 0l0 0c1.8452759 0 3.6149902 0.7330322 4.9198 2.0378418c1.3048096 1.3048096 2.0378418 3.074524 2.0378418 4.9198303l0 42.93506c0 3.8426208 -3.1150513 6.957672 -6.9576416 6.957672l-27.829834 0c-3.8425903 0 -6.9576416 -3.1150513 -6.9576416 -6.957672z" fill-rule="evenodd"/><path stroke="#ffffff" stroke-width="1.0" stroke-linejoin="round" stroke-linecap="butt" d="m769.84296 377.4301l0 0c0 -3.8426208 3.1150513 -6.957672 6.9576416 -6.957672l27.829834 0l0 0c1.8452759 0 3.6149902 0.7330322 4.9198 2.0378418c1.3048096 1.3048096 2.0378418 3.074524 2.0378418 4.9198303l0 42.93506c0 3.8426208 -3.1150513 6.957672 -6.9576416 6.957672l-27.829834 0c-3.8425903 0 -6.9576416 -3.1150513 -6.9576416 -6.957672z" fill-rule="evenodd"/><path fill="#cccccc" d="m769.84296 283.0889l0 0c0 -3.8426208 3.1150513 -6.957672 6.9576416 -6.957672l27.829834 0l0 0c1.8452759 0 3.6149902 0.7330322 4.9198 2.0378723c1.3048096 1.3048096 2.0378418 3.074524 2.0378418 4.9198l0 42.93506c0 3.8426208 -3.1150513 6.957672 -6.9576416 6.957672l-27.829834 0c-3.8425903 0 -6.9576416 -3.1150513 -6.9576416 -6.957672z" fill-rule="evenodd"/><path stroke="#ffffff" stroke-width="1.0" stroke-linejoin="round" stroke-linecap="butt" d="m769.84296 283.0889l0 0c0 -3.8426208 3.1150513 -6.957672 6.9576416 -6.957672l27.829834 0l0 0c1.8452759 0 3.6149902 0.7330322 4.9198 2.0378723c1.3048096 1.3048096 2.0378418 3.074524 2.0378418 4.9198l0 42.93506c0 3.8426208 -3.1150513 6.957672 -6.9576416 6.957672l-27.829834 0c-3.8425903 0 -6.9576416 -3.1150513 -6.9576416 -6.957672z" fill-rule="evenodd"/><path fill="#cccccc" d="m769.84296 188.74768l0 0c0 -3.8426056 3.1150513 -6.957657 6.9576416 -6.957657l27.829834 0l0 0c1.8452759 0 3.6149902 0.7330322 4.9198 2.037857c1.3048096 1.3048096 2.0378418 3.074524 2.0378418 4.9198l0 42.935074c0 3.8426208 -3.1150513 6.957672 -6.9576416 6.957672l-27.829834 0c-3.8425903 0 -6.9576416 -3.1150513 -6.9576416 -6.957672z" fill-rule="evenodd"/><path stroke="#ffffff" stroke-width="1.0" stroke-linejoin="round" stroke-linecap="butt" d="m769.84296 188.74768l0 0c0 -3.8426056 3.1150513 -6.957657 6.9576416 -6.957657l27.829834 0l0 0c1.8452759 0 3.6149902 0.7330322 4.9198 2.037857c1.3048096 1.3048096 2.0378418 3.074524 2.0378418 4.9198l0 42.935074c0 3.8426208 -3.1150513 6.957672 -6.9576416 6.957672l-27.829834 0c-3.8425903 0 -6.9576416 -3.1150513 -6.9576416 -6.957672z" fill-rule="evenodd"/><path fill="#000000" fill-opacity="0.0" d="m790.7155 370.47244l0 -37.480316" fill-rule="evenodd"/><path stroke="#ffffff" stroke-width="1.0" stroke-linejoin="round" stroke-linecap="butt" d="m790.7156 370.47244l0 -31.480316" fill-rule="evenodd"/><path fill="#ffffff" stroke="#ffffff" stroke-width="1.0" stroke-linecap="butt" d="m792.3673 338.99213l-1.6517334 -4.538086l-1.6517334 4.538086z" fill-rule="evenodd"/><path fill="#000000" fill-opacity="0.0" d="m790.7155 276.13123l0 -37.4803" fill-rule="evenodd"/><path stroke="#ffffff" stroke-width="1.0" stroke-linejoin="round" stroke-linecap="butt" d="m790.7156 276.13123l0 -31.4803" fill-rule="evenodd"/><path fill="#ffffff" stroke="#ffffff" stroke-width="1.0" stroke-linecap="butt" d="m792.3673 244.65092l-1.6517334 -4.538101l-1.6517334 4.538101z" fill-rule="evenodd"/><path fill="#cccccc" d="m831.27234 377.4301l0 0c0 -3.8426208 3.1150513 -6.957672 6.9576416 -6.957672l27.829834 0l0 0c1.8452759 0 3.6149902 0.7330322 4.9198 2.0378418c1.3048096 1.3048096 2.0378418 3.074524 2.0378418 4.9198303l0 42.93506c0 3.8426208 -3.1150513 6.957672 -6.9576416 6.957672l-27.829834 0c-3.8425903 0 -6.9576416 -3.1150513 -6.9576416 -6.957672z" fill-rule="evenodd"/><path stroke="#ffffff" stroke-width="1.0" stroke-linejoin="round" stroke-linecap="butt" d="m831.27234 377.4301l0 0c0 -3.8426208 3.1150513 -6.957672 6.9576416 -6.957672l27.829834 0l0 0c1.8452759 0 3.6149902 0.7330322 4.9198 2.0378418c1.3048096 1.3048096 2.0378418 3.074524 2.0378418 4.9198303l0 42.93506c0 3.8426208 -3.1150513 6.957672 -6.9576416 6.957672l-27.829834 0c-3.8425903 0 -6.9576416 -3.1150513 -6.9576416 -6.957672z" fill-rule="evenodd"/><path fill="#cccccc" d="m831.27234 283.0889l0 0c0 -3.8426208 3.1150513 -6.957672 6.9576416 -6.957672l27.829834 0l0 0c1.8452759 0 3.6149902 0.7330322 4.9198 2.0378723c1.3048096 1.3048096 2.0378418 3.074524 2.0378418 4.9198l0 42.93506c0 3.8426208 -3.1150513 6.957672 -6.9576416 6.957672l-27.829834 0c-3.8425903 0 -6.9576416 -3.1150513 -6.9576416 -6.957672z" fill-rule="evenodd"/><path stroke="#ffffff" stroke-width="1.0" stroke-linejoin="round" stroke-linecap="butt" d="m831.27234 283.0889l0 0c0 -3.8426208 3.1150513 -6.957672 6.9576416 -6.957672l27.829834 0l0 0c1.8452759 0 3.6149902 0.7330322 4.9198 2.0378723c1.3048096 1.3048096 2.0378418 3.074524 2.0378418 4.9198l0 42.93506c0 3.8426208 -3.1150513 6.957672 -6.9576416 6.957672l-27.829834 0c-3.8425903 0 -6.9576416 -3.1150513 -6.9576416 -6.957672z" fill-rule="evenodd"/><path fill="#cccccc" d="m831.27234 188.74768l0 0c0 -3.8426056 3.1150513 -6.957657 6.9576416 -6.957657l27.829834 0l0 0c1.8452759 0 3.6149902 0.7330322 4.9198 2.037857c1.3048096 1.3048096 2.0378418 3.074524 2.0378418 4.9198l0 42.935074c0 3.8426208 -3.1150513 6.957672 -6.9576416 6.957672l-27.829834 0c-3.8425903 0 -6.9576416 -3.1150513 -6.9576416 -6.957672z" fill-rule="evenodd"/><path stroke="#ffffff" stroke-width="1.0" stroke-linejoin="round" stroke-linecap="butt" d="m831.27234 188.74768l0 0c0 -3.8426056 3.1150513 -6.957657 6.9576416 -6.957657l27.829834 0l0 0c1.8452759 0 3.6149902 0.7330322 4.9198 2.037857c1.3048096 1.3048096 2.0378418 3.074524 2.0378418 4.9198l0 42.935074c0 3.8426208 -3.1150513 6.957672 -6.9576416 6.957672l-27.829834 0c-3.8425903 0 -6.9576416 -3.1150513 -6.9576416 -6.957672z" fill-rule="evenodd"/><path fill="#000000" fill-opacity="0.0" d="m852.1449 370.47244l0 -37.480316" fill-rule="evenodd"/><path stroke="#ffffff" stroke-width="1.0" stroke-linejoin="round" stroke-linecap="butt" d="m852.14496 370.47244l0 -31.480316" fill-rule="evenodd"/><path fill="#ffffff" stroke="#ffffff" stroke-width="1.0" stroke-linecap="butt" d="m853.7967 338.99213l-1.6517334 -4.538086l-1.6517334 4.538086z" fill-rule="evenodd"/><path fill="#000000" fill-opacity="0.0" d="m852.1449 276.13123l0 -37.4803" fill-rule="evenodd"/><path stroke="#ffffff" stroke-width="1.0" stroke-linejoin="round" stroke-linecap="butt" d="m852.14496 276.13123l0 -31.4803" fill-rule="evenodd"/><path fill="#ffffff" stroke="#ffffff" stroke-width="1.0" stroke-linecap="butt" d="m853.7967 244.65092l-1.6517334 -4.538101l-1.6517334 4.538101z" fill-rule="evenodd"/><path fill="#cccccc" d="m909.4007 377.4301l0 0c0 -3.8426208 3.1150513 -6.957672 6.9577026 -6.957672l27.829773 0l0 0c1.8452759 0 3.6149902 0.7330322 4.9198 2.0378418c1.3048096 1.3048096 2.0378418 3.074524 2.0378418 4.9198303l0 42.93506c0 3.8426208 -3.1150513 6.957672 -6.9576416 6.957672l-27.829773 0c-3.8426514 0 -6.9577026 -3.1150513 -6.9577026 -6.957672z" fill-rule="evenodd"/><path stroke="#ffffff" stroke-width="1.0" stroke-linejoin="round" stroke-linecap="butt" d="m909.4007 377.4301l0 0c0 -3.8426208 3.1150513 -6.957672 6.9577026 -6.957672l27.829773 0l0 0c1.8452759 0 3.6149902 0.7330322 4.9198 2.0378418c1.3048096 1.3048096 2.0378418 3.074524 2.0378418 4.9198303l0 42.93506c0 3.8426208 -3.1150513 6.957672 -6.9576416 6.957672l-27.829773 0c-3.8426514 0 -6.9577026 -3.1150513 -6.9577026 -6.957672z" fill-rule="evenodd"/><path fill="#cccccc" d="m909.4007 283.0889l0 0c0 -3.8426208 3.1150513 -6.957672 6.9577026 -6.957672l27.829773 0l0 0c1.8452759 0 3.6149902 0.7330322 4.9198 2.0378723c1.3048096 1.3048096 2.0378418 3.074524 2.0378418 4.9198l0 42.93506c0 3.8426208 -3.1150513 6.957672 -6.9576416 6.957672l-27.829773 0c-3.8426514 0 -6.9577026 -3.1150513 -6.9577026 -6.957672z" fill-rule="evenodd"/><path stroke="#ffffff" stroke-width="1.0" stroke-linejoin="round" stroke-linecap="butt" d="m909.4007 283.0889l0 0c0 -3.8426208 3.1150513 -6.957672 6.9577026 -6.957672l27.829773 0l0 0c1.8452759 0 3.6149902 0.7330322 4.9198 2.0378723c1.3048096 1.3048096 2.0378418 3.074524 2.0378418 4.9198l0 42.93506c0 3.8426208 -3.1150513 6.957672 -6.9576416 6.957672l-27.829773 0c-3.8426514 0 -6.9577026 -3.1150513 -6.9577026 -6.957672z" fill-rule="evenodd"/><path fill="#cccccc" d="m909.4007 188.74768l0 0c0 -3.8426056 3.1150513 -6.957657 6.9577026 -6.957657l27.829773 0l0 0c1.8452759 0 3.6149902 0.7330322 4.9198 2.037857c1.3048096 1.3048096 2.0378418 3.074524 2.0378418 4.9198l0 42.935074c0 3.8426208 -3.1150513 6.957672 -6.9576416 6.957672l-27.829773 0c-3.8426514 0 -6.9577026 -3.1150513 -6.9577026 -6.957672z" fill-rule="evenodd"/><path stroke="#ffffff" stroke-width="1.0" stroke-linejoin="round" stroke-linecap="butt" d="m909.4007 188.74768l0 0c0 -3.8426056 3.1150513 -6.957657 6.9577026 -6.957657l27.829773 0l0 0c1.8452759 0 3.6149902 0.7330322 4.9198 2.037857c1.3048096 1.3048096 2.0378418 3.074524 2.0378418 4.9198l0 42.935074c0 3.8426208 -3.1150513 6.957672 -6.9576416 6.957672l-27.829773 0c-3.8426514 0 -6.9577026 -3.1150513 -6.9577026 -6.957672z" fill-rule="evenodd"/><path fill="#000000" fill-opacity="0.0" d="m930.27325 370.47244l0 -37.480316" fill-rule="evenodd"/><path stroke="#ffffff" stroke-width="1.0" stroke-linejoin="round" stroke-linecap="butt" d="m930.2733 370.47244l0 -31.480316" fill-rule="evenodd"/><path fill="#ffffff" stroke="#ffffff" stroke-width="1.0" stroke-linecap="butt" d="m931.92505 338.99213l-1.6517334 -4.538086l-1.6517334 4.538086z" fill-rule="evenodd"/><path fill="#000000" fill-opacity="0.0" d="m930.27325 276.13123l0 -37.4803" fill-rule="evenodd"/><path stroke="#ffffff" stroke-width="1.0" stroke-linejoin="round" stroke-linecap="butt" d="m930.2733 276.13123l0 -31.4803" fill-rule="evenodd"/><path fill="#ffffff" stroke="#ffffff" stroke-width="1.0" stroke-linecap="butt" d="m931.92505 244.65092l-1.6517334 -4.538101l-1.6517334 4.538101z" fill-rule="evenodd"/><path fill="#000000" fill-opacity="0.0" d="m867.7909 284.38846l47.30713 0l0 41.228333l-47.30713 0z" fill-rule="evenodd"/><path fill="#ffffff" d="m885.357 311.30844l0 -1.875l1.875 0l0 1.875l-1.875 0zm5.1832886 0l0 -1.875l1.875 0l0 1.875l-1.875 0zm5.1833496 0l0 -1.875l1.875 0l0 1.875l-1.875 0z" fill-rule="nonzero"/><path fill="#000000" fill-opacity="0.0" d="m790.7155 370.47244l61.417297 -37.480316" fill-rule="evenodd"/><path stroke="#ffffff" stroke-width="1.0" stroke-linejoin="round" stroke-linecap="butt" d="m790.7156 370.47244l56.295654 -34.354797" fill-rule="evenodd"/><path fill="#ffffff" stroke="#ffffff" stroke-width="1.0" stroke-linecap="butt" d="m847.87164 337.52756l3.0133667 -3.7738953l-4.734192 0.9540405z" fill-rule="evenodd"/><path fill="#000000" fill-opacity="0.0" d="m790.7155 370.47244l139.55908 -37.480316" fill-rule="evenodd"/><path stroke="#ffffff" stroke-width="1.0" stroke-linejoin="round" stroke-linecap="butt" d="m790.7156 370.47244l133.76434 -35.924103" fill-rule="evenodd"/><path fill="#ffffff" stroke="#ffffff" stroke-width="1.0" stroke-linecap="butt" d="m924.9083 336.14355l3.9544067 -2.7722473l-4.8112183 -0.41815186z" fill-rule="evenodd"/><path fill="#000000" fill-opacity="0.0" d="m852.1449 370.47244l-61.417297 -37.480316" fill-rule="evenodd"/><path stroke="#ffffff" stroke-width="1.0" stroke-linejoin="round" stroke-linecap="butt" d="m852.14496 370.47244l-56.295715 -34.354797" fill-rule="evenodd"/><path fill="#ffffff" stroke="#ffffff" stroke-width="1.0" stroke-linecap="butt" d="m796.70966 334.7077l-4.734131 -0.9540405l3.0133057 3.7738953z" fill-rule="evenodd"/><path fill="#000000" fill-opacity="0.0" d="m790.7155 276.13123l56.188965 -48.661407" fill-rule="evenodd"/><path stroke="#ffffff" stroke-width="1.0" stroke-linejoin="round" stroke-linecap="butt" d="m790.7156 276.13123l51.65338 -44.73346" fill-rule="evenodd"/><path fill="#ffffff" stroke="#ffffff" stroke-width="1.0" stroke-linecap="butt" d="m843.45026 232.64635l2.3491821 -4.2194824l-4.51178 1.7223053z" fill-rule="evenodd"/><path fill="#000000" fill-opacity="0.0" d="m852.1449 370.47244l78.14172 -37.480316" fill-rule="evenodd"/><path stroke="#ffffff" stroke-width="1.0" stroke-linejoin="round" stroke-linecap="butt" d="m852.14496 370.47244l72.73187 -34.885468" fill-rule="evenodd"/><path fill="#ffffff" stroke="#ffffff" stroke-width="1.0" stroke-linecap="butt" d="m925.5911 337.07623l3.3774414 -3.4518738l-4.8060913 0.47332764z" fill-rule="evenodd"/><path fill="#000000" fill-opacity="0.0" d="m930.27325 370.47244l-139.55902 -37.480316" fill-rule="evenodd"/><path stroke="#ffffff" stroke-width="1.0" stroke-linejoin="round" stroke-linecap="butt" d="m930.2733 370.47244l-133.7644 -35.924103" fill-rule="evenodd"/><path fill="#ffffff" stroke="#ffffff" stroke-width="1.0" stroke-linecap="butt" d="m796.9373 332.95316l-4.8112183 0.41815186l3.9544067 2.7722473z" fill-rule="evenodd"/><path fill="#000000" fill-opacity="0.0" d="m930.27325 370.47244l-78.14172 -37.480316" fill-rule="evenodd"/><path stroke="#ffffff" stroke-width="1.0" stroke-linejoin="round" stroke-linecap="butt" d="m930.2733 370.47244l-72.73187 -34.885468" fill-rule="evenodd"/><path fill="#ffffff" stroke="#ffffff" stroke-width="1.0" stroke-linecap="butt" d="m858.2558 334.0977l-4.8060913 -0.47332764l3.3774414 3.4518738z" fill-rule="evenodd"/><path fill="#000000" fill-opacity="0.0" d="m852.1449 276.13123l75.52753 -48.440933" fill-rule="evenodd"/><path stroke="#ffffff" stroke-width="1.0" stroke-linejoin="round" stroke-linecap="butt" d="m852.14496 276.13123l70.47699 -45.20172" fill-rule="evenodd"/><path fill="#ffffff" stroke="#ffffff" stroke-width="1.0" stroke-linecap="butt" d="m923.51373 232.31985l2.9282227 -3.840332l-4.71167 1.0596466z" fill-rule="evenodd"/><path fill="#000000" fill-opacity="0.0" d="m852.1449 276.13123l-65.165344 -48.661407" fill-rule="evenodd"/><path stroke="#ffffff" stroke-width="1.0" stroke-linejoin="round" stroke-linecap="butt" d="m852.14496 276.13123l-60.35791 -45.071457" fill-rule="evenodd"/><path fill="#ffffff" stroke="#ffffff" stroke-width="1.0" stroke-linecap="butt" d="m792.7754 229.73631l-4.6244507 -1.3917999l2.6478882 4.0387115z" fill-rule="evenodd"/><path fill="#000000" fill-opacity="0.0" d="m930.27325 276.13123l-147.81097 -60.06299" fill-rule="evenodd"/><path stroke="#ffffff" stroke-width="1.0" stroke-linejoin="round" stroke-linecap="butt" d="m930.2733 276.13123l-142.25238 -57.804245" fill-rule="evenodd"/><path fill="#ffffff" stroke="#ffffff" stroke-width="1.0" stroke-linecap="butt" d="m788.6427 216.79675l-4.82605 -0.17816162l3.5823975 3.238617z" fill-rule="evenodd"/><path fill="#000000" fill-opacity="0.0" d="m790.7155 276.13123l132.44092 -59.842514" fill-rule="evenodd"/><path stroke="#ffffff" stroke-width="1.0" stroke-linejoin="round" stroke-linecap="butt" d="m790.7156 276.13123l126.973145 -57.371933" fill-rule="evenodd"/><path fill="#ffffff" stroke="#ffffff" stroke-width="1.0" stroke-linecap="butt" d="m918.36884 220.2645l3.4554443 -3.373825l-4.815674 0.36340332z" fill-rule="evenodd"/><path fill="#000000" fill-opacity="0.0" d="m930.27325 276.13123l-83.370056 -48.661407" fill-rule="evenodd"/><path stroke="#ffffff" stroke-width="1.0" stroke-linejoin="round" stroke-linecap="butt" d="m930.2733 276.13123l-78.18817 -45.63684" fill-rule="evenodd"/><path fill="#ffffff" stroke="#ffffff" stroke-width="1.0" stroke-linecap="butt" d="m852.9177 229.06787l-4.751953 -0.8611145l3.086731 3.7141418z" fill-rule="evenodd"/><path fill="#000000" fill-opacity="0.0" d="m785.0945 18.795275l139.71655 0l0 41.228348l-139.71655 0z" fill-rule="evenodd"/><path fill="#ffffff" d="m823.63635 45.715275l0 -13.359375l1.78125 0l0 11.78125l6.5625 0l0 1.578125l-8.34375 0zm10.250732 -11.46875l0 -1.890625l1.640625 0l0 1.890625l-1.640625 0zm0 11.46875l0 -9.671875l1.640625 0l0 9.671875l-1.640625 0zm4.5354614 0l0 -8.40625l-1.453125 0l0 -1.265625l1.453125 0l0 -1.03125q0 -0.96875 0.171875 -1.453125q0.234375 -0.640625 0.828125 -1.03125q0.59375 -0.390625 1.671875 -0.390625q0.6875 0 1.53125 0.15625l-0.25 1.4375q-0.5 -0.09375 -0.953125 -0.09375q-0.75 0 -1.0625 0.328125q-0.3125 0.3125 -0.3125 1.1875l0 0.890625l1.890625 0l0 1.265625l-1.890625 0l0 8.40625l-1.625 0zm11.417664 -3.109375l1.6875 0.203125q-0.40625 1.484375 -1.484375 2.3125q-1.078125 0.8125 -2.765625 0.8125q-2.125 0 -3.375 -1.296875q-1.234375 -1.3125 -1.234375 -3.671875q0 -2.453125 1.25 -3.796875q1.265625 -1.34375 3.265625 -1.34375q1.9375 0 3.15625 1.328125q1.234375 1.3125 1.234375 3.703125q0 0.15625 0 0.4375l-7.21875 0q0.09375 1.59375 0.90625 2.453125q0.8125 0.84375 2.015625 0.84375q0.90625 0 1.546875 -0.46875q0.640625 -0.484375 1.015625 -1.515625zm-5.390625 -2.65625l5.40625 0q-0.109375 -1.21875 -0.625 -1.828125q-0.78125 -0.953125 -2.03125 -0.953125q-1.125 0 -1.90625 0.765625q-0.765625 0.75 -0.84375 2.015625zm9.094482 5.765625l0 -13.359375l1.640625 0l0 13.359375l-1.640625 0zm3.5822754 -4.84375q0 -2.6875 1.484375 -3.96875q1.25 -1.078125 3.046875 -1.078125q2.0 0 3.265625 1.3125q1.265625 1.296875 1.265625 3.609375q0 1.859375 -0.5625 2.9375q-0.5625 1.0625 -1.640625 1.65625q-1.0625 0.59375 -2.328125 0.59375q-2.03125 0 -3.28125 -1.296875q-1.25 -1.3125 -1.25 -3.765625zm1.6875 0q0 1.859375 0.796875 2.796875q0.8125 0.921875 2.046875 0.921875q1.21875 0 2.03125 -0.921875q0.8125 -0.9375 0.8125 -2.84375q0 -1.796875 -0.8125 -2.71875q-0.8125 -0.921875 -2.03125 -0.921875q-1.234375 0 -2.046875 0.921875q-0.796875 0.90625 -0.796875 2.765625zm9.297607 4.84375l0 -9.671875l1.46875 0l0 1.375q1.0625 -1.59375 3.078125 -1.59375q0.875 0 1.609375 0.3125q0.734375 0.3125 1.09375 0.828125q0.375 0.5 0.515625 1.203125q0.09375 0.453125 0.09375 1.59375l0 5.953125l-1.640625 0l0 -5.890625q0 -1.0 -0.203125 -1.484375q-0.1875 -0.5 -0.671875 -0.796875q-0.484375 -0.296875 -1.140625 -0.296875q-1.046875 0 -1.8125 0.671875q-0.75 0.65625 -0.75 2.515625l0 5.28125l-1.640625 0zm10.063232 0.796875l1.59375 0.234375q0.109375 0.75 0.5625 1.078125q0.609375 0.453125 1.671875 0.453125q1.140625 0 1.75 -0.453125q0.625 -0.453125 0.84375 -1.265625q0.125 -0.5 0.109375 -2.109375q-1.0625 1.265625 -2.671875 1.265625q-2.0 0 -3.09375 -1.4375q-1.09375 -1.4375 -1.09375 -3.453125q0 -1.390625 0.5 -2.5625q0.515625 -1.171875 1.453125 -1.796875q0.953125 -0.640625 2.25 -0.640625q1.703125 0 2.8125 1.375l0 -1.15625l1.515625 0l0 8.359375q0 2.265625 -0.46875 3.203125q-0.453125 0.9375 -1.453125 1.484375q-0.984375 0.546875 -2.453125 0.546875q-1.71875 0 -2.796875 -0.78125q-1.0625 -0.765625 -1.03125 -2.34375zm1.359375 -5.8125q0 1.90625 0.75 2.78125q0.765625 0.875 1.90625 0.875q1.125 0 1.890625 -0.859375q0.765625 -0.875 0.765625 -2.734375q0 -1.78125 -0.796875 -2.671875q-0.78125 -0.90625 -1.890625 -0.90625q-1.09375 0 -1.859375 0.890625q-0.765625 0.875 -0.765625 2.625z" fill-rule="nonzero"/><path fill="#cccccc" d="m764.0091 77.13137l0 0c0 -3.8443222 3.116394 -6.9607697 6.9607544 -6.9607697l27.842224 0l0 0c1.8461304 0 3.6166382 0.7333679 4.921997 2.038765c1.3054199 1.305397 2.0387573 3.0758972 2.0387573 4.9220047l0 42.928856c0 3.8443298 -3.116394 6.9607697 -6.9607544 6.9607697l-27.842224 0c-3.8443604 0 -6.9607544 -3.1164398 -6.9607544 -6.9607697z" fill-rule="evenodd"/><path stroke="#ffffff" stroke-width="1.0" stroke-linejoin="round" stroke-linecap="butt" d="m764.0091 77.13137l0 0c0 -3.8443222 3.116394 -6.9607697 6.9607544 -6.9607697l27.842224 0l0 0c1.8461304 0 3.6166382 0.7333679 4.921997 2.038765c1.3054199 1.305397 2.0387573 3.0758972 2.0387573 4.9220047l0 42.928856c0 3.8443298 -3.116394 6.9607697 -6.9607544 6.9607697l-27.842224 0c-3.8443604 0 -6.9607544 -3.1164398 -6.9607544 -6.9607697z" fill-rule="evenodd"/><path fill="#cccccc" d="m831.2888 77.13137l0 0c0 -3.8443222 3.116394 -6.9607697 6.9607544 -6.9607697l27.842224 0l0 0c1.8461304 0 3.6166382 0.7333679 4.921997 2.038765c1.3054199 1.305397 2.0387573 3.0758972 2.0387573 4.9220047l0 42.928856c0 3.8443298 -3.116394 6.9607697 -6.9607544 6.9607697l-27.842224 0c-3.8443604 0 -6.9607544 -3.1164398 -6.9607544 -6.9607697z" fill-rule="evenodd"/><path stroke="#ffffff" stroke-width="1.0" stroke-linejoin="round" stroke-linecap="butt" d="m831.2888 77.13137l0 0c0 -3.8443222 3.116394 -6.9607697 6.9607544 -6.9607697l27.842224 0l0 0c1.8461304 0 3.6166382 0.7333679 4.921997 2.038765c1.3054199 1.305397 2.0387573 3.0758972 2.0387573 4.9220047l0 42.928856c0 3.8443298 -3.116394 6.9607697 -6.9607544 6.9607697l-27.842224 0c-3.8443604 0 -6.9607544 -3.1164398 -6.9607544 -6.9607697z" fill-rule="evenodd"/><path fill="#cccccc" d="m903.56683 77.13137l0 0c0 -3.8443222 3.116455 -6.9607697 6.9607544 -6.9607697l27.842224 0l0 0c1.8461304 0 3.6166382 0.7333679 4.922058 2.038765c1.3053589 1.305397 2.0387573 3.0758972 2.0387573 4.9220047l0 42.928856c0 3.8443298 -3.116455 6.9607697 -6.9608154 6.9607697l-27.842224 0c-3.8442993 0 -6.9607544 -3.1164398 -6.9607544 -6.9607697z" fill-rule="evenodd"/><path stroke="#ffffff" stroke-width="1.0" stroke-linejoin="round" stroke-linecap="butt" d="m903.56683 77.13137l0 0c0 -3.8443222 3.116455 -6.9607697 6.9607544 -6.9607697l27.842224 0l0 0c1.8461304 0 3.6166382 0.7333679 4.922058 2.038765c1.3053589 1.305397 2.0387573 3.0758972 2.0387573 4.9220047l0 42.928856c0 3.8443298 -3.116455 6.9607697 -6.9608154 6.9607697l-27.842224 0c-3.8442993 0 -6.9607544 -3.1164398 -6.9607544 -6.9607697z" fill-rule="evenodd"/><path fill="#000000" fill-opacity="0.0" d="m782.4593 159.2021l2.425232 -32.18898" fill-rule="evenodd"/><path stroke="#ffffff" stroke-width="1.0" stroke-linejoin="round" stroke-linecap="butt" d="m782.4593 159.2021l1.9744263 -26.205933" fill-rule="evenodd"/><path fill="#ffffff" stroke="#ffffff" stroke-width="1.0" stroke-linecap="butt" d="m786.0808 133.12025l-1.3061523 -4.649353l-1.9879761 4.401169z" fill-rule="evenodd"/><path fill="#000000" fill-opacity="0.0" d="m842.3917 159.2021l9.763733 -32.18898" fill-rule="evenodd"/><path stroke="#ffffff" stroke-width="1.0" stroke-linejoin="round" stroke-linecap="butt" d="m842.3917 159.2021l8.022156 -26.447311" fill-rule="evenodd"/><path fill="#ffffff" stroke="#ffffff" stroke-width="1.0" stroke-linecap="butt" d="m851.9945 133.23424l-0.2633667 -4.822159l-2.8978271 3.8632812z" fill-rule="evenodd"/><path fill="#000000" fill-opacity="0.0" d="m923.17065 159.42389l1.2913208 -32.409454" fill-rule="evenodd"/><path stroke="#ffffff" stroke-width="1.0" stroke-linejoin="round" stroke-linecap="butt" d="m923.1706 159.42389l1.0524902 -26.414215" fill-rule="evenodd"/><path fill="#ffffff" stroke="#ffffff" stroke-width="1.0" stroke-linecap="butt" d="m925.8735 133.07544l-1.4697266 -4.6002655l-1.8311157 4.46875z" fill-rule="evenodd"/><path fill="#000000" fill-opacity="0.0" d="m786.9713 170.61679l-2.0787354 -43.590546" fill-rule="evenodd"/><path stroke="#ffffff" stroke-width="1.0" stroke-linejoin="round" stroke-linecap="butt" d="m786.9713 170.61679l-1.7929077 -37.59735" fill-rule="evenodd"/><path fill="#ffffff" stroke="#ffffff" stroke-width="1.0" stroke-linecap="butt" d="m786.8282 132.94075l-1.8660278 -4.454254l-1.4336548 4.611618z" fill-rule="evenodd"/><path fill="#000000" fill-opacity="0.0" d="m846.8993 170.61679l5.2598267 -43.590546" fill-rule="evenodd"/><path stroke="#ffffff" stroke-width="1.0" stroke-linejoin="round" stroke-linecap="butt" d="m846.8993 170.61679l4.5410767 -37.633743" fill-rule="evenodd"/><path fill="#ffffff" stroke="#ffffff" stroke-width="1.0" stroke-linecap="butt" d="m853.0802 133.18091l-1.0961914 -4.703293l-2.1834717 4.307556z" fill-rule="evenodd"/><path fill="#cccccc" d="m766.09875 177.57446l0 0c0 -3.8426208 3.1150513 -6.957672 6.9576416 -6.957672l27.829834 0l0 0c1.8452759 0 3.6149902 0.7330475 4.9198 2.037857c1.3048096 1.3048096 2.0378418 3.074524 2.0378418 4.919815l0 42.935074c0 3.8426056 -3.1150513 6.957657 -6.9576416 6.957657l-27.829834 0c-3.8425903 0 -6.9576416 -3.1150513 -6.9576416 -6.957657z" fill-rule="evenodd"/><path stroke="#ffffff" stroke-width="1.0" stroke-linejoin="round" stroke-linecap="butt" d="m766.09875 177.57446l0 0c0 -3.8426208 3.1150513 -6.957672 6.9576416 -6.957672l27.829834 0l0 0c1.8452759 0 3.6149902 0.7330475 4.9198 2.037857c1.3048096 1.3048096 2.0378418 3.074524 2.0378418 4.919815l0 42.935074c0 3.8426056 -3.1150513 6.957657 -6.9576416 6.957657l-27.829834 0c-3.8425903 0 -6.9576416 -3.1150513 -6.9576416 -6.957657z" fill-rule="evenodd"/><path fill="#cccccc" d="m826.02673 177.57446l0 0c0 -3.8426208 3.1150513 -6.957672 6.9576416 -6.957672l27.829834 0l0 0c1.8452759 0 3.6149902 0.7330475 4.9198 2.037857c1.3048096 1.3048096 2.0378418 3.074524 2.0378418 4.919815l0 42.935074c0 3.8426056 -3.1150513 6.957657 -6.9576416 6.957657l-27.829834 0c-3.8425903 0 -6.9576416 -3.1150513 -6.9576416 -6.957657z" fill-rule="evenodd"/><path stroke="#ffffff" stroke-width="1.0" stroke-linejoin="round" stroke-linecap="butt" d="m826.02673 177.57446l0 0c0 -3.8426208 3.1150513 -6.957672 6.9576416 -6.957672l27.829834 0l0 0c1.8452759 0 3.6149902 0.7330475 4.9198 2.037857c1.3048096 1.3048096 2.0378418 3.074524 2.0378418 4.919815l0 42.935074c0 3.8426056 -3.1150513 6.957657 -6.9576416 6.957657l-27.829834 0c-3.8425903 0 -6.9576416 -3.1150513 -6.9576416 -6.957657z" fill-rule="evenodd"/><path fill="#cccccc" d="m906.7998 177.79625l0 0c0 -3.8426208 3.1150513 -6.957672 6.9576416 -6.957672l27.829773 0l0 0c1.8452759 0 3.6149902 0.7330475 4.9198 2.037857c1.3048706 1.3048096 2.0379028 3.074524 2.0379028 4.919815l0 42.935074c0 3.8426056 -3.1150513 6.957657 -6.9577026 6.957657l-27.829773 0c-3.8425903 0 -6.9576416 -3.1150513 -6.9576416 -6.957657z" fill-rule="evenodd"/><path stroke="#ffffff" stroke-width="1.0" stroke-linejoin="round" stroke-linecap="butt" d="m906.7998 177.79625l0 0c0 -3.8426208 3.1150513 -6.957672 6.9576416 -6.957672l27.829773 0l0 0c1.8452759 0 3.6149902 0.7330475 4.9198 2.037857c1.3048706 1.3048096 2.0379028 3.074524 2.0379028 4.919815l0 42.935074c0 3.8426056 -3.1150513 6.957657 -6.9577026 6.957657l-27.829773 0c-3.8425903 0 -6.9576416 -3.1150513 -6.9576416 -6.957657z" fill-rule="evenodd"/><path fill="#000000" fill-opacity="0.0" d="m927.67236 170.83858l-3.2087402 -43.81102" fill-rule="evenodd"/><path stroke="#ffffff" stroke-width="1.0" stroke-linejoin="round" stroke-linecap="butt" d="m927.6723 170.83858l-2.7705078 -37.82704" fill-rule="evenodd"/><path fill="#ffffff" stroke="#ffffff" stroke-width="1.0" stroke-linecap="butt" d="m926.5492 132.89088l-1.9788208 -4.4053345l-1.3158569 4.646637z" fill-rule="evenodd"/><path fill="#000000" fill-opacity="0.0" d="m790.7155 181.79002l-5.826782 -54.771652" fill-rule="evenodd"/><path stroke="#ffffff" stroke-width="1.0" stroke-linejoin="round" stroke-linecap="butt" d="m790.7156 181.79002l-5.1921387 -48.805313" fill-rule="evenodd"/><path fill="#ffffff" stroke="#ffffff" stroke-width="1.0" stroke-linecap="butt" d="m787.16595 132.80998l-2.1224976 -4.337906l-1.1624146 4.6873627z" fill-rule="evenodd"/><path fill="#000000" fill-opacity="0.0" d="m852.1449 181.79002l0.03149414 -54.771652" fill-rule="evenodd"/><path stroke="#ffffff" stroke-width="1.0" stroke-linejoin="round" stroke-linecap="butt" d="m852.14496 181.79002l0.028015137 -48.771652" fill-rule="evenodd"/><path fill="#ffffff" stroke="#ffffff" stroke-width="1.0" stroke-linecap="butt" d="m853.8247 133.01932l-1.6491089 -4.5390472l-1.6543579 4.537155z" fill-rule="evenodd"/><path fill="#000000" fill-opacity="0.0" d="m930.27325 181.79002l-5.826721 -54.771652" fill-rule="evenodd"/><path stroke="#ffffff" stroke-width="1.0" stroke-linejoin="round" stroke-linecap="butt" d="m930.2733 181.79002l-5.1921387 -48.805313" fill-rule="evenodd"/><path fill="#ffffff" stroke="#ffffff" stroke-width="1.0" stroke-linecap="butt" d="m926.7237 132.80998l-2.1224976 -4.337906l-1.1624146 4.6873627z" fill-rule="evenodd"/><path fill="#cccccc" d="m761.57745 166.16287l0 0c0 -3.8443298 3.116394 -6.9607697 6.9607544 -6.9607697l27.842224 0l0 0c1.8461304 0 3.6166382 0.7333679 4.921997 2.0387573c1.3054199 1.3054047 2.0387573 3.0758972 2.0387573 4.9220123l0 42.92885c0 3.8443298 -3.116394 6.9607697 -6.9607544 6.9607697l-27.842224 0c-3.8443604 0 -6.9607544 -3.1164398 -6.9607544 -6.9607697z" fill-rule="evenodd"/><path stroke="#ffffff" stroke-width="1.0" stroke-linejoin="round" stroke-linecap="butt" d="m761.57745 166.16287l0 0c0 -3.8443298 3.116394 -6.9607697 6.9607544 -6.9607697l27.842224 0l0 0c1.8461304 0 3.6166382 0.7333679 4.921997 2.0387573c1.3054199 1.3054047 2.0387573 3.0758972 2.0387573 4.9220123l0 42.92885c0 3.8443298 -3.116394 6.9607697 -6.9607544 6.9607697l-27.842224 0c-3.8443604 0 -6.9607544 -3.1164398 -6.9607544 -6.9607697z" fill-rule="evenodd"/><path fill="#cccccc" d="m821.5098 166.16287l0 0c0 -3.8443298 3.116394 -6.9607697 6.9607544 -6.9607697l27.842224 0l0 0c1.8461304 0 3.6166382 0.7333679 4.921997 2.0387573c1.3054199 1.3054047 2.0387573 3.0758972 2.0387573 4.9220123l0 42.92885c0 3.8443298 -3.116394 6.9607697 -6.9607544 6.9607697l-27.842224 0c-3.8443604 0 -6.9607544 -3.1164398 -6.9607544 -6.9607697z" fill-rule="evenodd"/><path stroke="#ffffff" stroke-width="1.0" stroke-linejoin="round" stroke-linecap="butt" d="m821.5098 166.16287l0 0c0 -3.8443298 3.116394 -6.9607697 6.9607544 -6.9607697l27.842224 0l0 0c1.8461304 0 3.6166382 0.7333679 4.921997 2.0387573c1.3054199 1.3054047 2.0387573 3.0758972 2.0387573 4.9220123l0 42.92885c0 3.8443298 -3.116394 6.9607697 -6.9607544 6.9607697l-27.842224 0c-3.8443604 0 -6.9607544 -3.1164398 -6.9607544 -6.9607697z" fill-rule="evenodd"/><path fill="#cccccc" d="m902.28876 166.38466l0 0c0 -3.8443298 3.116455 -6.9607697 6.9607544 -6.9607697l27.842224 0l0 0c1.8461304 0 3.6166382 0.73335266 4.921997 2.0387573c1.3054199 1.3054047 2.0388184 3.0758972 2.0388184 4.9220123l0 42.92885c0 3.8443298 -3.116455 6.9607697 -6.9608154 6.9607697l-27.842224 0c-3.8442993 0 -6.9607544 -3.1164398 -6.9607544 -6.9607697z" fill-rule="evenodd"/><path stroke="#ffffff" stroke-width="1.0" stroke-linejoin="round" stroke-linecap="butt" d="m902.28876 166.38466l0 0c0 -3.8443298 3.116455 -6.9607697 6.9607544 -6.9607697l27.842224 0l0 0c1.8461304 0 3.6166382 0.73335266 4.921997 2.0387573c1.3054199 1.3054047 2.0388184 3.0758972 2.0388184 4.9220123l0 42.92885c0 3.8443298 -3.116455 6.9607697 -6.9608154 6.9607697l-27.842224 0c-3.8442993 0 -6.9607544 -3.1164398 -6.9607544 -6.9607697z" fill-rule="evenodd"/><path fill="#000000" fill-opacity="0.0" d="m548.2336 449.06824l176.8504 0l0 41.228363l-176.8504 0z" fill-rule="evenodd"/><path fill="#ffffff" d="m562.07733 475.98825l0 -11.78125l-4.40625 0l0 -1.578125l10.578125 0l0 1.578125l-4.40625 0l0 11.78125l-1.765625 0z" fill-rule="nonzero"/><path fill="#ffffff" d="m573.2702 482.98825l-1.09375 0l0 -6.96875q-0.40625 0.375 -1.046875 0.75q-0.640625 0.375 -1.140625 0.578125l0 -1.0625q0.90625 -0.4375 1.59375 -1.046875q0.6875 -0.609375 0.96875 -1.1875l0.71875 0l0 8.9375z" fill-rule="nonzero"/><path fill="#ffffff" d="m616.33624 475.98825l0 -11.78125l-4.40625 0l0 -1.578125l10.578125 0l0 1.578125l-4.40625 0l0 11.78125l-1.765625 0z" fill-rule="nonzero"/><path fill="#ffffff" d="m629.1541 481.94138l0 1.046875l-5.890625 0q-0.015625 -0.390625 0.125 -0.765625q0.234375 -0.59375 0.71875 -1.171875q0.5 -0.59375 1.4375 -1.359375q1.453125 -1.1875 1.953125 -1.875q0.515625 -0.703125 0.515625 -1.3125q0 -0.65625 -0.46875 -1.09375q-0.453125 -0.453125 -1.203125 -0.453125q-0.796875 0 -1.265625 0.46875q-0.46875 0.46875 -0.484375 1.3125l-1.125 -0.109375q0.125 -1.265625 0.875 -1.921875q0.75 -0.65625 2.015625 -0.65625q1.28125 0 2.03125 0.71875q0.75 0.703125 0.75 1.75q0 0.53125 -0.21875 1.046875q-0.21875 0.515625 -0.734375 1.09375q-0.5 0.5625 -1.671875 1.5625q-0.984375 0.828125 -1.265625 1.125q-0.28125 0.296875 -0.46875 0.59375l4.375 0z" fill-rule="nonzero"/><path fill="#ffffff" d="m657.40955 475.98825l0 -1.875l1.875 0l0 1.875l-1.875 0zm5.1832886 0l0 -1.875l1.875 0l0 1.875l-1.875 0zm5.1832886 0l0 -1.875l1.875 0l0 1.875l-1.875 0zm23.552246 0l0 -11.78125l-4.40625 0l0 -1.578125l10.578125 0l0 1.578125l-4.40625 0l0 11.78125l-1.765625 0z" fill-rule="nonzero"/><path fill="#ffffff" d="m698.24 480.457l1.0625 -0.140625q0.046875 1.015625 0.375 1.390625q0.34375 0.375 0.953125 0.375q0.4375 0 0.75 -0.203125q0.328125 -0.203125 0.453125 -0.546875q0.125 -0.34375 0.125 -1.109375l0 -6.140625l1.171875 0l0 6.0625q0 1.125 -0.265625 1.75q-0.265625 0.609375 -0.859375 0.9375q-0.578125 0.3125 -1.375 0.3125q-1.171875 0 -1.796875 -0.671875q-0.625 -0.6875 -0.59375 -2.015625z" fill-rule="nonzero"/><path fill="#000000" fill-opacity="0.0" d="m767.94226 449.06824l176.8504 0l0 41.228363l-176.8504 0z" fill-rule="evenodd"/><path fill="#ffffff" d="m781.786 475.98825l0 -11.78125l-4.40625 0l0 -1.578125l10.578125 0l0 1.578125l-4.40625 0l0 11.78125l-1.765625 0z" fill-rule="nonzero"/><path fill="#ffffff" d="m792.9789 482.98825l-1.09375 0l0 -6.96875q-0.40625 0.375 -1.046875 0.75q-0.640625 0.375 -1.140625 0.578125l0 -1.0625q0.90625 -0.4375 1.59375 -1.046875q0.6875 -0.609375 0.96875 -1.1875l0.71875 0l0 8.9375z" fill-rule="nonzero"/><path fill="#ffffff" d="m836.0449 475.98825l0 -11.78125l-4.40625 0l0 -1.578125l10.578125 0l0 1.578125l-4.40625 0l0 11.78125l-1.765625 0z" fill-rule="nonzero"/><path fill="#ffffff" d="m848.8628 481.94138l0 1.046875l-5.890625 0q-0.015625 -0.390625 0.125 -0.765625q0.234375 -0.59375 0.71875 -1.171875q0.5 -0.59375 1.4375 -1.359375q1.453125 -1.1875 1.953125 -1.875q0.515625 -0.703125 0.515625 -1.3125q0 -0.65625 -0.46875 -1.09375q-0.453125 -0.453125 -1.203125 -0.453125q-0.796875 0 -1.265625 0.46875q-0.46875 0.46875 -0.484375 1.3125l-1.125 -0.109375q0.125 -1.265625 0.875 -1.921875q0.75 -0.65625 2.015625 -0.65625q1.28125 0 2.03125 0.71875q0.75 0.703125 0.75 1.75q0 0.53125 -0.21875 1.046875q-0.21875 0.515625 -0.734375 1.09375q-0.5 0.5625 -1.671875 1.5625q-0.984375 0.828125 -1.265625 1.125q-0.28125 0.296875 -0.46875 0.59375l4.375 0z" fill-rule="nonzero"/><path fill="#ffffff" d="m877.1182 475.98825l0 -1.875l1.875 0l0 1.875l-1.875 0zm5.1832886 0l0 -1.875l1.875 0l0 1.875l-1.875 0zm5.1832886 0l0 -1.875l1.875 0l0 1.875l-1.875 0zm23.552246 0l0 -11.78125l-4.40625 0l0 -1.578125l10.578125 0l0 1.578125l-4.40625 0l0 11.78125l-1.765625 0z" fill-rule="nonzero"/><path fill="#ffffff" d="m917.94867 480.457l1.0625 -0.140625q0.046875 1.015625 0.375 1.390625q0.34375 0.375 0.953125 0.375q0.4375 0 0.75 -0.203125q0.328125 -0.203125 0.453125 -0.546875q0.125 -0.34375 0.125 -1.109375l0 -6.140625l1.171875 0l0 6.0625q0 1.125 -0.265625 1.75q-0.265625 0.609375 -0.859375 0.9375q-0.578125 0.3125 -1.375 0.3125q-1.171875 0 -1.796875 -0.671875q-0.625 -0.6875 -0.59375 -2.015625z" fill-rule="nonzero"/><path fill="#000000" fill-opacity="0.0" d="m158.86351 451.43307l176.85039 0l0 41.228333l-176.85039 0z" fill-rule="evenodd"/><path fill="#ffffff" d="m172.70726 478.35306l0 -11.78125l-4.40625 0l0 -1.578125l10.578125 0l0 1.578125l-4.40625 0l0 11.78125l-1.765625 0z" fill-rule="nonzero"/><path fill="#ffffff" d="m183.90012 485.35306l-1.09375 0l0 -6.96875q-0.40625 0.375 -1.046875 0.75q-0.640625 0.375 -1.140625 0.578125l0 -1.0625q0.90625 -0.4375 1.59375 -1.046875q0.6875 -0.609375 0.96875 -1.1875l0.71875 0l0 8.9375z" fill-rule="nonzero"/></g></svg>