<svg id="Layer_1" data-name="Layer 1" xmlns="http://www.w3.org/2000/svg" xmlns:xlink="http://www.w3.org/1999/xlink" viewBox="0 0 585 266"><defs><style>.cls-1,.cls-17,.cls-38,.cls-4,.cls-5,.cls-6{fill:none;}.cls-2,.cls-3{fill:#fff;}.cls-2{stroke:#fff;}.cls-17,.cls-2,.cls-38,.cls-4,.cls-5,.cls-6{stroke-miterlimit:10;}.cls-38,.cls-4{stroke:#ee1e3a;}.cls-4,.cls-5{stroke-width:0.75px;}.cls-17,.cls-5,.cls-6{stroke:#000;}.cls-7{clip-path:url(#clip-path);}.cls-8{clip-path:url(#clip-path-2);}.cls-9{fill:url(#linear-gradient);}.cls-10{clip-path:url(#clip-path-3);}.cls-11{clip-path:url(#clip-path-4);}.cls-12{fill:url(#linear-gradient-2);}.cls-13{clip-path:url(#clip-path-5);}.cls-14{clip-path:url(#clip-path-6);}.cls-15{fill:url(#linear-gradient-3);}.cls-16,.cls-17{font-size:16px;}.cls-16,.cls-17,.cls-66{font-family:ArialMT, Arial;}.cls-18,.cls-36,.cls-66{font-size:18px;}.cls-18,.cls-19,.cls-35{font-family:MyriadPro-Regular, Myriad Pro;}.cls-19{font-size:21px;}.cls-20{clip-path:url(#clip-path-7);}.cls-21{clip-path:url(#clip-path-8);}.cls-22{fill:url(#linear-gradient-4);}.cls-23{clip-path:url(#clip-path-9);}.cls-24{clip-path:url(#clip-path-10);}.cls-25{fill:url(#linear-gradient-5);}.cls-26{clip-path:url(#clip-path-11);}.cls-27{clip-path:url(#clip-path-12);}.cls-28{fill:url(#linear-gradient-6);}.cls-29{clip-path:url(#clip-path-13);}.cls-30{clip-path:url(#clip-path-14);}.cls-31{fill:url(#linear-gradient-7);}.cls-32{clip-path:url(#clip-path-15);}.cls-33{clip-path:url(#clip-path-16);}.cls-34{fill:url(#linear-gradient-8);}.cls-35{font-size:10px;}.cls-36{font-family:Arial-BoldMT, Arial;font-weight:700;}.cls-37{fill:#ee1e3a;}.cls-39{clip-path:url(#clip-path-17);}.cls-40{clip-path:url(#clip-path-18);}.cls-41{fill:url(#linear-gradient-9);}.cls-42{clip-path:url(#clip-path-19);}.cls-43{clip-path:url(#clip-path-20);}.cls-44{fill:url(#linear-gradient-10);}.cls-45{clip-path:url(#clip-path-21);}.cls-46{clip-path:url(#clip-path-22);}.cls-47{fill:url(#linear-gradient-11);}.cls-48{clip-path:url(#clip-path-23);}.cls-49{clip-path:url(#clip-path-24);}.cls-50{fill:url(#linear-gradient-12);}.cls-51{clip-path:url(#clip-path-25);}.cls-52{clip-path:url(#clip-path-26);}.cls-53{fill:url(#linear-gradient-13);}.cls-54{clip-path:url(#clip-path-27);}.cls-55{clip-path:url(#clip-path-28);}.cls-56{fill:url(#linear-gradient-14);}.cls-57{clip-path:url(#clip-path-29);}.cls-58{clip-path:url(#clip-path-30);}.cls-59{fill:url(#linear-gradient-15);}.cls-60{clip-path:url(#clip-path-31);}.cls-61{clip-path:url(#clip-path-32);}.cls-62{fill:url(#linear-gradient-16);}.cls-63{clip-path:url(#clip-path-33);}.cls-64{clip-path:url(#clip-path-34);}.cls-65{fill:url(#linear-gradient-17);}</style><clipPath id="clip-path" transform="translate(0.5 0.5)"><polyline class="cls-1" points="141.04 41.79 187.61 65.52 163.88 112.08 117.32 88.36 141.04 41.79"/></clipPath><clipPath id="clip-path-2" transform="translate(0.5 0.5)"><path class="cls-1" d="M133,76.94a19.43,19.43,0,1,0,19.43-19.43A19.43,19.43,0,0,0,133,76.94"/></clipPath><linearGradient id="linear-gradient" y1="264.65" x2="1" y2="264.65" gradientTransform="translate(10437.87 57.61) rotate(90) scale(38.86)" gradientUnits="userSpaceOnUse"><stop offset="0" stop-color="#578da3"/><stop offset="1" stop-color="#6cacc4"/></linearGradient><clipPath id="clip-path-3" transform="translate(0.5 0.5)"><polyline class="cls-1" points="141.04 110.81 187.61 134.53 163.88 181.09 117.32 157.37 141.04 110.81"/></clipPath><clipPath id="clip-path-4" transform="translate(0.5 0.5)"><path class="cls-1" d="M133,146a19.43,19.43,0,1,0,19.43-19.43A19.43,19.43,0,0,0,133,146"/></clipPath><linearGradient id="linear-gradient-2" x1="-0.03" y1="264.59" x2="0.97" y2="264.59" gradientTransform="translate(10435.53 127.81) rotate(90) scale(38.86)" gradientUnits="userSpaceOnUse"><stop offset="0" stop-color="#84b398"/><stop offset="1" stop-color="#9bd0b0"/></linearGradient><clipPath id="clip-path-5" transform="translate(0.5 0.5)"><polyline class="cls-1" points="141.04 186.28 187.61 210 163.88 256.57 117.32 232.84 141.04 186.28"/></clipPath><clipPath id="clip-path-6" transform="translate(0.5 0.5)"><path class="cls-1" d="M133,221.42A19.43,19.43,0,1,0,152.46,202,19.43,19.43,0,0,0,133,221.42"/></clipPath><linearGradient id="linear-gradient-3" x1="-0.04" y1="264.67" x2="0.96" y2="264.67" gradientTransform="translate(10438.55 203.42) rotate(90) scale(38.86)" gradientUnits="userSpaceOnUse"><stop offset="0" stop-color="#b86328"/><stop offset="1" stop-color="#d2783b"/></linearGradient><clipPath id="clip-path-7" transform="translate(0.5 0.5)"><polyline class="cls-1" points="276.63 38.46 324.19 63.18 300.46 109.75 253.9 86.02 276.63 38.46"/></clipPath><clipPath id="clip-path-8" transform="translate(0.5 0.5)"><path class="cls-1" d="M269.62,74.6c0,10.73,6.7,19.43,17.43,19.43s21.42-8.7,21.42-19.43a19.43,19.43,0,0,0-38.85,0"/></clipPath><linearGradient id="linear-gradient-4" x1="0.06" y1="264.63" x2="1.06" y2="264.63" gradientTransform="translate(10838.37 51.43) rotate(90) scale(39.86)" xlink:href="#linear-gradient"/><clipPath id="clip-path-9" transform="translate(0.5 0.5)"><polyline class="cls-1" points="227.09 110.81 273.66 134.53 249.93 181.09 202.37 156.37 227.09 110.81"/></clipPath><clipPath id="clip-path-10" transform="translate(0.5 0.5)"><path class="cls-1" d="M218.08,145c0,10.73,9.7,20.43,20.43,20.43a19.43,19.43,0,1,0,0-38.86c-10.73,0-20.43,7.7-20.43,18.43"/></clipPath><linearGradient id="linear-gradient-5" x1="0.07" y1="264.64" x2="1.07" y2="264.64" gradientTransform="matrix(0, 39.86, -39.86, 0, 10787.43, 123.17)" xlink:href="#linear-gradient-2"/><clipPath id="clip-path-11" transform="translate(0.5 0.5)"><polyline class="cls-1" points="228.58 183.54 275.14 207.27 251.42 253.83 203.85 229.11 228.58 183.54"/></clipPath><clipPath id="clip-path-12" transform="translate(0.5 0.5)"><path class="cls-1" d="M219.57,217.69c0,10.73,9.7,20.43,20.43,20.43a19.43,19.43,0,0,0,0-38.86c-10.73,0-20.43,7.7-20.43,18.43"/></clipPath><linearGradient id="linear-gradient-6" x1="0.06" y1="264.63" x2="1.06" y2="264.63" gradientTransform="matrix(0, 39.86, -39.86, 0, 10788.83, 195.96)" xlink:href="#linear-gradient-3"/><clipPath id="clip-path-13" transform="translate(0.5 0.5)"><polyline class="cls-1" points="343.21 110.81 389.78 134.53 366.05 181.09 311.49 156.37 343.21 110.81"/></clipPath><clipPath id="clip-path-14" transform="translate(0.5 0.5)"><path class="cls-1" d="M335.2,146a19.43,19.43,0,1,0,19.43-19.43A19.43,19.43,0,0,0,335.2,146"/></clipPath><linearGradient id="linear-gradient-7" x1="0.07" y1="264.66" x2="1.07" y2="264.66" gradientTransform="matrix(0, 44.5, -44.5, 0, 12132.6, 116.78)" xlink:href="#linear-gradient-2"/><clipPath id="clip-path-15" transform="translate(0.5 0.5)"><polyline class="cls-1" points="344.7 182.41 391.26 211.13 367.54 252.7 320.98 233.97 344.7 182.41"/></clipPath><clipPath id="clip-path-16" transform="translate(0.5 0.5)"><path class="cls-1" d="M336.69,217.55a19.43,19.43,0,1,0,19.43-19.43,19.43,19.43,0,0,0-19.43,19.43"/></clipPath><linearGradient id="linear-gradient-8" x1="0.06" y1="264.58" x2="1.06" y2="264.58" gradientTransform="translate(11085.27 195.84) rotate(90) scale(40.55)" xlink:href="#linear-gradient-3"/><clipPath id="clip-path-17" transform="translate(0.5 0.5)"><polyline class="cls-1" points="276.31 110.81 322.87 134.53 299.15 181.09 252.59 157.37 276.31 110.81"/></clipPath><clipPath id="clip-path-18" transform="translate(0.5 0.5)"><path class="cls-1" d="M268.3,146a19.43,19.43,0,1,0,19.43-19.43A19.43,19.43,0,0,0,268.3,146"/></clipPath><linearGradient id="linear-gradient-9" x1="0.08" y1="264.64" x2="1.08" y2="264.64" gradientTransform="translate(10572.53 123.56) rotate(90) scale(38.86)" xlink:href="#linear-gradient-2"/><clipPath id="clip-path-19" transform="translate(0.5 0.5)"><polyline class="cls-1" points="277.8 182.8 324.36 206.53 300.64 253.09 254.07 229.36 277.8 182.8"/></clipPath><clipPath id="clip-path-20" transform="translate(0.5 0.5)"><path class="cls-1" d="M269.79,217.94a19.43,19.43,0,1,0,19.43-19.42,19.43,19.43,0,0,0-19.43,19.42"/></clipPath><linearGradient id="linear-gradient-10" x1="0.07" y1="264.62" x2="1.07" y2="264.62" gradientTransform="translate(10573.26 195.94) rotate(90) scale(38.86)" xlink:href="#linear-gradient-3"/><clipPath id="clip-path-21" transform="translate(0.5 0.5)"><polyline class="cls-1" points="468.18 40.73 515.74 65.45 492.02 112.02 445.45 88.29 468.18 40.73"/></clipPath><clipPath id="clip-path-22" transform="translate(0.5 0.5)"><path class="cls-1" d="M461.17,76.87c0,10.73,6.7,19.43,17.43,19.43S500,87.6,500,76.87a19.43,19.43,0,1,0-38.85,0"/></clipPath><linearGradient id="linear-gradient-11" x1="0.24" y1="264.54" x2="1.24" y2="264.54" gradientTransform="translate(11026.29 46.57) rotate(90) scale(39.86)" xlink:href="#linear-gradient"/><clipPath id="clip-path-23" transform="translate(0.5 0.5)"><polyline class="cls-1" points="418.64 110.81 465.21 134.53 441.48 181.09 393.92 156.37 418.64 110.81"/></clipPath><clipPath id="clip-path-24" transform="translate(0.5 0.5)"><path class="cls-1" d="M409.64,145c0,10.73,9.69,20.43,20.42,20.43a19.43,19.43,0,1,0,0-38.86c-10.73,0-20.42,7.7-20.42,18.43"/></clipPath><linearGradient id="linear-gradient-12" x1="0.22" y1="264.5" x2="1.22" y2="264.5" gradientTransform="translate(10973.33 117.08) rotate(90) scale(39.86)" xlink:href="#linear-gradient-2"/><clipPath id="clip-path-25" transform="translate(0.5 0.5)"><polyline class="cls-1" points="420.13 185.81 466.69 209.54 442.97 256.1 395.41 231.38 420.13 185.81"/></clipPath><clipPath id="clip-path-26" transform="translate(0.5 0.5)"><path class="cls-1" d="M411.12,220c0,10.73,9.7,20.43,20.43,20.43a19.43,19.43,0,1,0,0-38.86c-10.73,0-20.43,7.7-20.43,18.43"/></clipPath><linearGradient id="linear-gradient-13" x1="0.24" y1="264.54" x2="1.24" y2="264.54" gradientTransform="matrix(0, 39.86, -39.86, 0, 10976.75, 191.1)" xlink:href="#linear-gradient-3"/><clipPath id="clip-path-27" transform="translate(0.5 0.5)"><polyline class="cls-1" points="534.76 110.81 581.33 134.53 557.6 181.09 503.04 156.37 534.76 110.81"/></clipPath><clipPath id="clip-path-28" transform="translate(0.5 0.5)"><path class="cls-1" d="M526.76,146a19.43,19.43,0,1,0,19.42-19.43A19.42,19.42,0,0,0,526.76,146"/></clipPath><linearGradient id="linear-gradient-14" x1="0.21" y1="264.53" x2="1.21" y2="264.53" gradientTransform="matrix(0, 44.5, -44.5, 0, 12318.5, 110.68)" xlink:href="#linear-gradient-2"/><clipPath id="clip-path-29" transform="translate(0.5 0.5)"><polyline class="cls-1" points="536.25 184.68 582.82 213.4 559.09 254.97 512.53 236.24 536.25 184.68"/></clipPath><clipPath id="clip-path-30" transform="translate(0.5 0.5)"><path class="cls-1" d="M528.24,219.82a19.43,19.43,0,1,0,19.43-19.43,19.43,19.43,0,0,0-19.43,19.43"/></clipPath><linearGradient id="linear-gradient-15" x1="0.24" y1="264.49" x2="1.24" y2="264.49" gradientTransform="translate(11273.19 190.98) rotate(90) scale(40.55)" xlink:href="#linear-gradient-3"/><clipPath id="clip-path-31" transform="translate(0.5 0.5)"><polyline class="cls-1" points="467.86 110.81 514.43 134.53 490.7 181.09 444.14 157.37 467.86 110.81"/></clipPath><clipPath id="clip-path-32" transform="translate(0.5 0.5)"><path class="cls-1" d="M459.85,146a19.43,19.43,0,1,0,19.43-19.43A19.43,19.43,0,0,0,459.85,146"/></clipPath><linearGradient id="linear-gradient-16" x1="0.23" y1="264.49" x2="1.23" y2="264.49" gradientTransform="matrix(0, 38.86, -38.86, 0, 10758.43, 117.47)" xlink:href="#linear-gradient-2"/><clipPath id="clip-path-33" transform="translate(0.5 0.5)"><polyline class="cls-1" points="469.35 185.07 515.91 208.79 492.19 255.36 445.62 231.63 469.35 185.07"/></clipPath><clipPath id="clip-path-34" transform="translate(0.5 0.5)"><path class="cls-1" d="M461.34,220.21a19.43,19.43,0,1,0,19.43-19.43,19.43,19.43,0,0,0-19.43,19.43"/></clipPath><linearGradient id="linear-gradient-17" x1="0.25" y1="264.53" x2="1.25" y2="264.53" gradientTransform="translate(10761.18 191.08) rotate(90) scale(38.86)" xlink:href="#linear-gradient-3"/></defs><rect class="cls-2" x="0.5" y="0.5" width="584" height="265"/><line class="cls-3" x1="534.14" y1="206.89" x2="445.8" y2="163.64"/><line class="cls-4" x1="534.14" y1="206.89" x2="445.8" y2="163.64"/><line class="cls-3" x1="475.73" y1="201.8" x2="438.68" y2="166.86"/><line class="cls-4" x1="475.73" y1="201.8" x2="438.68" y2="166.86"/><line class="cls-3" x1="434.42" y1="205.66" x2="476.43" y2="168.27"/><line class="cls-5" x1="434.42" y1="205.66" x2="476.43" y2="168.27"/><line class="cls-3" x1="152.96" y1="131.91" x2="152.96" y2="96.24"/><line x1="152.96" y1="131.91" x2="152.96" y2="99.8"/><line class="cls-5" x1="152.96" y1="131.91" x2="152.96" y2="99.8"/><polyline points="155.43 101.22 152.96 96.95 150.49 101.22 155.43 101.22"/><polygon class="cls-6" points="155.43 101.22 152.96 96.95 150.49 101.22 155.43 101.22"/><line class="cls-3" x1="154.45" y1="205.15" x2="154.45" y2="169.71"/><line class="cls-6" x1="154.45" y1="205.15" x2="154.45" y2="169.71"/><line class="cls-3" x1="154.45" y1="205.15" x2="154.45" y2="173.26"/><line class="cls-5" x1="154.45" y1="205.15" x2="154.45" y2="173.26"/><polyline points="156.92 173.98 154.45 169.71 151.98 173.98 156.92 173.98"/><polygon class="cls-6" points="156.92 173.98 154.45 169.71 151.98 173.98 156.92 173.98"/><g class="cls-7"><g class="cls-8"><rect class="cls-9" x="126.33" y="50.81" width="52.26" height="52.26" transform="translate(15.19 178.35) rotate(-63)"/></g></g><g class="cls-10"><g class="cls-11"><rect class="cls-12" x="126.33" y="119.82" width="52.26" height="52.26" transform="translate(-46.3 216.03) rotate(-63)"/></g></g><g class="cls-13"><g class="cls-14"><rect class="cls-15" x="126.33" y="195.29" width="52.26" height="52.26" transform="translate(-113.54 257.24) rotate(-63)"/></g></g><text class="cls-16" transform="translate(159.27 21.25)"> </text><text class="cls-17" transform="translate(159.27 21.25)"> </text><text class="cls-18" transform="translate(144.6 80.44) scale(1.3 1)">w</text><text class="cls-19" transform="translate(148.33 152.61)">v</text><text class="cls-19" transform="translate(148.33 226.71)">u</text><line class="cls-3" x1="240.5" y1="202.42" x2="240.5" y2="166.97"/><line class="cls-6" x1="240.5" y1="202.42" x2="240.5" y2="166.97"/><line class="cls-3" x1="240.5" y1="202.42" x2="240.5" y2="170.53"/><line class="cls-5" x1="240.5" y1="202.42" x2="240.5" y2="170.53"/><polyline points="242.97 171.25 240.5 166.97 238.03 171.25 242.97 171.25"/><polygon class="cls-6" points="242.97 171.25 240.5 166.97 238.03 171.25 242.97 171.25"/><g class="cls-20"><g class="cls-21"><rect class="cls-22" x="262.92" y="48.47" width="52.26" height="52.26" transform="translate(91.85 298.78) rotate(-63)"/></g></g><g class="cls-23"><g class="cls-24"><rect class="cls-25" x="211.65" y="119.37" width="52.71" height="53.15" transform="translate(0.41 292.26) rotate(-63)"/></g></g><g class="cls-26"><g class="cls-27"><rect class="cls-28" x="213.14" y="192.11" width="52.71" height="53.15" transform="translate(-63.59 333.3) rotate(-63)"/></g></g><text class="cls-18" transform="translate(280.36 80.44) scale(1.3 1)">w</text><text class="cls-19" transform="translate(233.38 152.61)">v</text><text class="cls-19" transform="translate(234.38 223.98)">u</text><line class="cls-3" x1="356.62" y1="201.28" x2="356.62" y2="165.84"/><line class="cls-6" x1="356.62" y1="201.28" x2="356.62" y2="165.84"/><line class="cls-3" x1="356.62" y1="201.28" x2="356.62" y2="169.39"/><line class="cls-5" x1="356.62" y1="201.28" x2="356.62" y2="169.39"/><polyline points="359.09 170.11 356.62 165.84 354.15 170.11 359.09 170.11"/><polygon class="cls-6" points="359.09 170.11 356.62 165.84 354.15 170.11 359.09 170.11"/><g class="cls-29"><g class="cls-30"><rect class="cls-31" x="328.5" y="119.82" width="52.26" height="52.26" transform="translate(64.09 396.17) rotate(-63)"/></g></g><g class="cls-32"><g class="cls-33"><rect class="cls-34" x="329.99" y="191.42" width="52.26" height="52.26" transform="translate(1.1 436.59) rotate(-63)"/></g></g><text class="cls-19" transform="translate(350.5 152.61)">v</text><text class="cls-19" transform="translate(350.5 222.84)">u</text><text class="cls-35" transform="translate(241.97 149.38)">1</text><text class="cls-35" transform="translate(359.63 149.38)">B</text><text class="cls-35" transform="translate(362.63 227.78)">B</text><text class="cls-35" transform="translate(246.18 227.6)">1</text><line class="cls-3" x1="240.49" y1="127.31" x2="276.39" y2="93.32"/><line class="cls-5" x1="240.49" y1="127.31" x2="276.39" y2="93.32"/><polyline points="275.97 96.93 277.12 92.13 272.39 93.53 275.97 96.93"/><polygon class="cls-6" points="275.97 96.93 277.12 92.13 272.39 93.53 275.97 96.93"/><line class="cls-3" x1="347.38" y1="127.31" x2="299.68" y2="91.38"/><line class="cls-5" x1="347.38" y1="127.31" x2="299.68" y2="91.38"/><text class="cls-36" transform="translate(120.82 15.73)">A. Single<tspan x="0" y="21.6" xml:space="preserve"> Learner </tspan></text><text class="cls-36" transform="translate(232.14 15.92)">B. Ensembling<tspan x="0" y="21.6" xml:space="preserve">    Decisions </tspan></text><text class="cls-36" transform="translate(416.86 17.48)"><tspan xml:space="preserve"> C. Ensembling</tspan><tspan x="0" y="21.6">Representations </tspan></text><polyline class="cls-37" points="443.37 167.89 438.5 167.08 440.24 171.7 443.37 167.89"/><polygon class="cls-38" points="443.37 167.89 438.5 167.08 440.24 171.7 443.37 167.89"/><line class="cls-3" x1="289.72" y1="201.68" x2="289.72" y2="166.23"/><line class="cls-6" x1="289.72" y1="201.68" x2="289.72" y2="166.23"/><line class="cls-3" x1="289.72" y1="201.68" x2="289.72" y2="169.78"/><line class="cls-5" x1="289.72" y1="201.68" x2="289.72" y2="169.78"/><polyline points="292.19 170.5 289.72 166.23 287.25 170.5 292.19 170.5"/><polygon class="cls-6" points="292.19 170.5 289.72 166.23 287.25 170.5 292.19 170.5"/><g class="cls-39"><g class="cls-40"><rect class="cls-41" x="261.6" y="119.82" width="52.26" height="52.26" transform="translate(27.56 336.56) rotate(-63)"/></g></g><g class="cls-42"><g class="cls-43"><rect class="cls-44" x="263.09" y="191.81" width="52.26" height="52.26" transform="translate(-35.77 377.19) rotate(-63)"/></g></g><line x1="288.23" y1="126.64" x2="288.23" y2="94.53"/><line class="cls-5" x1="288.23" y1="126.64" x2="288.23" y2="94.53"/><text class="cls-19" transform="translate(283.6 152.61)">v</text><text class="cls-19" transform="translate(283.6 223.23)">u</text><text class="cls-35" transform="translate(295.08 226.99)">2</text><text class="cls-35" transform="translate(292.19 149.38)">2</text><text class="cls-36" transform="translate(311.21 223.15)">. . .</text><text class="cls-36" transform="translate(309.87 150.78)">. . .</text><polyline points="290.7 99.08 288.23 94.81 285.76 99.08 290.7 99.08"/><polygon class="cls-6" points="290.7 99.08 288.23 94.81 285.76 99.08 290.7 99.08"/><polyline points="305.01 92.49 300.13 91.76 301.94 96.35 305.01 92.49"/><polygon class="cls-6" points="305.01 92.49 300.13 91.76 301.94 96.35 305.01 92.49"/><line class="cls-3" x1="424.05" y1="204.69" x2="424.05" y2="169.24"/><line class="cls-6" x1="424.05" y1="204.69" x2="424.05" y2="169.24"/><line class="cls-3" x1="424.05" y1="204.69" x2="424.05" y2="172.79"/><line class="cls-5" x1="424.05" y1="204.69" x2="424.05" y2="172.79"/><polyline points="434.52 173.52 432.05 169.24 429.58 173.52 434.52 173.52"/><polygon class="cls-6" points="434.52 173.52 432.05 169.24 429.58 173.52 434.52 173.52"/><g class="cls-45"><g class="cls-46"><rect class="cls-47" x="454.47" y="50.74" width="52.26" height="52.26" transform="translate(194.42 470.69) rotate(-63)"/></g></g><g class="cls-48"><g class="cls-49"><rect class="cls-50" x="403.21" y="119.37" width="52.71" height="53.15" transform="translate(105 462.93) rotate(-63)"/></g></g><g class="cls-51"><g class="cls-52"><rect class="cls-53" x="404.69" y="194.38" width="52.71" height="53.15" transform="translate(38.98 505.21) rotate(-63)"/></g></g><text class="cls-18" transform="translate(471.92 82.71) scale(1.3 1)">w</text><text class="cls-19" transform="translate(424.93 152.61)">v</text><text class="cls-19" transform="translate(425.93 226.25)">u</text><line class="cls-3" x1="548.17" y1="203.55" x2="548.17" y2="168.11"/><line class="cls-6" x1="548.17" y1="203.55" x2="548.17" y2="168.11"/><line class="cls-3" x1="548.17" y1="203.55" x2="548.17" y2="171.66"/><line class="cls-5" x1="548.17" y1="203.55" x2="548.17" y2="171.66"/><polyline points="550.64 172.38 548.17 168.1 545.7 172.38 550.64 172.38"/><polygon class="cls-6" points="550.64 172.38 548.17 168.1 545.7 172.38 550.64 172.38"/><g class="cls-54"><g class="cls-55"><rect class="cls-56" x="520.05" y="119.82" width="52.26" height="52.26" transform="translate(168.68 566.84) rotate(-63)"/></g></g><g class="cls-57"><g class="cls-58"><rect class="cls-59" x="521.54" y="193.69" width="52.26" height="52.26" transform="translate(103.67 608.5) rotate(-63)"/></g></g><text class="cls-19" transform="translate(542.06 152.61)">v</text><text class="cls-19" transform="translate(542.06 225.11)">u</text><text class="cls-35" transform="translate(433.52 149.38)">1</text><text class="cls-35" transform="translate(551.18 149.38)">B</text><text class="cls-35" transform="translate(554.18 230.05)">B</text><text class="cls-35" transform="translate(437.73 229.87)">1</text><line class="cls-3" x1="432.04" y1="129.58" x2="467.94" y2="95.58"/><line class="cls-5" x1="432.04" y1="129.58" x2="467.94" y2="95.58"/><polyline points="467.52 99.2 468.67 94.4 463.94 95.8 467.52 99.2"/><polygon class="cls-6" points="467.52 99.2 468.67 94.4 463.94 95.8 467.52 99.2"/><line class="cls-3" x1="538.93" y1="129.58" x2="491.23" y2="93.65"/><line class="cls-5" x1="538.93" y1="129.58" x2="491.23" y2="93.65"/><line class="cls-3" x1="481.27" y1="203.94" x2="481.27" y2="168.5"/><line class="cls-6" x1="481.27" y1="203.94" x2="481.27" y2="168.5"/><polyline points="483.74 172.77 481.27 168.5 478.8 172.77 483.74 172.77"/><polygon class="cls-6" points="483.74 172.77 481.27 168.5 478.8 172.77 483.74 172.77"/><line class="cls-3" x1="481.27" y1="203.94" x2="481.27" y2="172.05"/><line class="cls-5" x1="481.27" y1="203.94" x2="481.27" y2="172.05"/><g class="cls-60"><g class="cls-61"><rect class="cls-62" x="453.15" y="119.82" width="52.26" height="52.26" transform="translate(132.15 507.23) rotate(-63)"/></g></g><g class="cls-63"><g class="cls-64"><rect class="cls-65" x="454.64" y="194.08" width="52.26" height="52.26" transform="translate(66.79 549.11) rotate(-63)"/></g></g><line x1="479.78" y1="128.91" x2="479.78" y2="96.8"/><line class="cls-5" x1="479.78" y1="128.91" x2="479.78" y2="96.8"/><text class="cls-19" transform="translate(475.15 152.61)">v</text><text class="cls-19" transform="translate(475.15 225.5)">u</text><text class="cls-35" transform="translate(486.63 229.26)">2</text><text class="cls-35" transform="translate(483.74 149.38)">2</text><text class="cls-36" transform="translate(502.76 225.42)">. . .</text><text class="cls-36" transform="translate(501.42 150.78)">. . .</text><polyline points="482.25 101.35 479.78 97.08 477.31 101.35 482.25 101.35"/><polygon class="cls-6" points="482.25 101.35 479.78 97.08 477.31 101.35 482.25 101.35"/><polyline points="496.57 94.76 491.69 94.03 493.49 98.62 496.57 94.76"/><polygon class="cls-6" points="496.57 94.76 491.69 94.03 493.49 98.62 496.57 94.76"/><polyline points="475.43 172.17 476.67 167.39 471.91 168.7 475.43 172.17"/><polygon class="cls-6" points="475.43 172.17 476.67 167.39 471.91 168.7 475.43 172.17"/><polyline class="cls-37" points="449.84 162.98 444.9 163.07 447.44 167.3 449.84 162.98"/><polygon class="cls-38" points="449.84 162.98 444.9 163.07 447.44 167.3 449.84 162.98"/><line class="cls-3" x1="443.37" y1="205.66" x2="532.26" y2="162.01"/><line class="cls-5" x1="443.37" y1="205.66" x2="532.26" y2="162.01"/><polyline points="529.86 166.23 532.34 161.97 527.41 161.95 529.86 166.23"/><polygon class="cls-6" points="529.86 166.23 532.34 161.97 527.41 161.95 529.86 166.23"/><line class="cls-3" x1="491.45" y1="203.88" x2="540.72" y2="167.34"/><line class="cls-5" x1="491.45" y1="203.88" x2="540.72" y2="167.34"/><polyline points="539.68 171.63 540.93 166.85 536.17 168.16 539.68 171.63"/><polygon class="cls-6" points="539.68 171.63 540.93 166.85 536.17 168.16 539.68 171.63"/><text class="cls-66" transform="translate(2 233.38)">Encoder</text><text class="cls-66" transform="translate(2 88.61)">Decider</text><text class="cls-66" transform="translate(2 140.45)">Internal<tspan x="0" y="21.6">Representation</tspan></text><line class="cls-3" x1="538.56" y1="203.44" x2="487.56" y2="167.09"/><line class="cls-4" x1="538.56" y1="203.44" x2="487.56" y2="167.09"/><polyline class="cls-37" points="492.41 167.74 487.54 166.93 489.27 171.56 492.41 167.74"/><polygon class="cls-38" points="492.41 167.74 487.54 166.93 489.27 171.56 492.41 167.74"/></svg>