<svg id="Layer_1" data-name="Layer 1" xmlns="http://www.w3.org/2000/svg" xmlns:xlink="http://www.w3.org/1999/xlink" viewBox="0 0 1136.56 934.19"><defs><style>.cls-1,.cls-75{fill:none;}.cls-2{stroke:#231f20;}.cls-2,.cls-21,.cls-23,.cls-24,.cls-27,.cls-3,.cls-7,.cls-70,.cls-75,.cls-77,.cls-78,.cls-85{stroke-miterlimit:10;}.cls-22,.cls-3{fill:#f1f2f2;}.cls-3{stroke:#f1f2f2;}.cls-27,.cls-3,.cls-75,.cls-77{stroke-width:0.75px;}.cls-4{fill:url(#linear-gradient);}.cls-5{fill:url(#linear-gradient-2);}.cls-6{fill:url(#linear-gradient-3);}.cls-20,.cls-21,.cls-23,.cls-24,.cls-25,.cls-26,.cls-27,.cls-7,.cls-70,.cls-71,.cls-85{fill:#fff;}.cls-21,.cls-23,.cls-24,.cls-27,.cls-7,.cls-70,.cls-85{stroke:#fff;}.cls-8{clip-path:url(#clip-path);}.cls-9{fill:url(#linear-gradient-4);}.cls-10{clip-path:url(#clip-path-2);}.cls-11{fill:url(#linear-gradient-5);}.cls-12{clip-path:url(#clip-path-3);}.cls-13{fill:url(#linear-gradient-6);}.cls-14{clip-path:url(#clip-path-4);}.cls-15{fill:url(#linear-gradient-7);}.cls-16{clip-path:url(#clip-path-5);}.cls-17{fill:url(#linear-gradient-8);}.cls-18{clip-path:url(#clip-path-6);}.cls-19{fill:url(#linear-gradient-9);}.cls-20,.cls-21,.cls-22,.cls-23,.cls-25,.cls-72,.cls-73,.cls-74{font-size:26.71px;}.cls-20,.cls-21,.cls-22{font-family:Arial-BoldMT, Arial;font-weight:700;}.cls-23,.cls-24,.cls-25,.cls-70,.cls-71,.cls-72,.cls-73,.cls-74{font-family:ArialMT, Arial;}.cls-24{font-size:15.57px;}.cls-28{clip-path:url(#clip-path-7);}.cls-29{fill:url(#linear-gradient-10);}.cls-30{clip-path:url(#clip-path-8);}.cls-31{fill:url(#linear-gradient-11);}.cls-32{clip-path:url(#clip-path-9);}.cls-33{fill:url(#linear-gradient-12);}.cls-34{clip-path:url(#clip-path-10);}.cls-35{fill:url(#linear-gradient-13);}.cls-36{clip-path:url(#clip-path-11);}.cls-37{fill:url(#linear-gradient-14);}.cls-38{clip-path:url(#clip-path-12);}.cls-39{fill:url(#linear-gradient-15);}.cls-40{clip-path:url(#clip-path-13);}.cls-41{fill:url(#linear-gradient-16);}.cls-42{clip-path:url(#clip-path-14);}.cls-43{fill:url(#linear-gradient-17);}.cls-44{clip-path:url(#clip-path-15);}.cls-45{fill:url(#linear-gradient-18);}.cls-46{clip-path:url(#clip-path-16);}.cls-47{fill:url(#linear-gradient-19);}.cls-48{clip-path:url(#clip-path-17);}.cls-49{fill:url(#linear-gradient-20);}.cls-50{clip-path:url(#clip-path-18);}.cls-51{fill:url(#linear-gradient-21);}.cls-52{clip-path:url(#clip-path-19);}.cls-53{fill:url(#linear-gradient-22);}.cls-54{clip-path:url(#clip-path-20);}.cls-55{fill:url(#linear-gradient-23);}.cls-56{clip-path:url(#clip-path-21);}.cls-57{fill:url(#linear-gradient-24);}.cls-58{clip-path:url(#clip-path-22);}.cls-59{fill:url(#linear-gradient-25);}.cls-60{clip-path:url(#clip-path-23);}.cls-61{fill:url(#linear-gradient-26);}.cls-62{clip-path:url(#clip-path-24);}.cls-63{fill:url(#linear-gradient-27);}.cls-64{clip-path:url(#clip-path-25);}.cls-65{fill:url(#linear-gradient-28);}.cls-66{clip-path:url(#clip-path-26);}.cls-67{fill:url(#linear-gradient-29);}.cls-68{clip-path:url(#clip-path-27);}.cls-69{fill:url(#linear-gradient-30);}.cls-70,.cls-71{font-size:26.71px;}.cls-72{fill:#295860;}.cls-73{fill:#96c;}.cls-74{fill:#2b7a4b;}.cls-75{stroke:#f33;}.cls-76{fill:#f33;}.cls-77,.cls-78{fill:#ed1c24;stroke:#ed1c24;}.cls-79{clip-path:url(#clip-path-28);}.cls-80{fill:url(#linear-gradient-31);}.cls-81{clip-path:url(#clip-path-29);}.cls-82{fill:url(#linear-gradient-32);}.cls-83{clip-path:url(#clip-path-30);}.cls-84{fill:url(#linear-gradient-33);}.cls-85{font-size:48px;font-family:MyriadPro-Regular, Myriad Pro;}.cls-86{letter-spacing:-0.01em;}.cls-87{letter-spacing:0em;}.cls-88{letter-spacing:0.01em;}</style><linearGradient id="linear-gradient" x1="-120.3" y1="604.45" x2="-120.3" y2="604.45" gradientTransform="matrix(34.63, 17.64, 17.64, -34.63, -6714.3, 23333.85)" gradientUnits="userSpaceOnUse"><stop offset="0" stop-color="#568da3"/><stop offset="1" stop-color="#6cacc4"/></linearGradient><linearGradient id="linear-gradient-2" x1="-119.74" y1="603.35" x2="-119.74" y2="603.35" gradientTransform="matrix(34.63, 17.64, 17.64, -34.63, -6714.3, 23405.5)" gradientUnits="userSpaceOnUse"><stop offset="0" stop-color="#84b397"/><stop offset="1" stop-color="#9bd1b1"/></linearGradient><linearGradient id="linear-gradient-3" x1="-118.72" y1="601.36" x2="-118.72" y2="601.36" gradientTransform="matrix(34.63, 17.64, 17.64, -34.63, -6714.3, 23535.61)" gradientUnits="userSpaceOnUse"><stop offset="0" stop-color="#b86328"/><stop offset="1" stop-color="#d3793c"/></linearGradient><clipPath id="clip-path" transform="translate(511.73 9.99)"><path class="cls-1" d="M-195.57,634.84c0,17.92,14.12,32.44,31.54,32.44s31.54-14.52,31.54-32.44S-146.6,602.41-164,602.41s-31.54,14.52-31.54,32.44"/></clipPath><linearGradient id="linear-gradient-4" x1="-125.35" y1="599.09" x2="-119.01" y2="599.09" gradientTransform="matrix(34.63, 17.64, 17.64, -34.63, -6128.97, 23545.6)" xlink:href="#linear-gradient-3"/><clipPath id="clip-path-2" transform="translate(511.73 9.99)"><path class="cls-1" d="M-116,634.84c0,17.92,14.12,32.44,31.55,32.44s31.54-14.52,31.54-32.44-14.12-32.44-31.54-32.44S-116,616.93-116,634.84"/></clipPath><linearGradient id="linear-gradient-5" x1="-119.16" y1="601.05" x2="-117.5" y2="601.05" gradientTransform="matrix(34.63, 17.64, 17.64, -34.63, -6079.97, 23545.6)" xlink:href="#linear-gradient-3"/><clipPath id="clip-path-3" transform="translate(511.73 9.99)"><path class="cls-1" d="M-5.7,634.84c0,17.92,14.12,32.44,31.54,32.44s31.55-14.52,31.55-32.44-14.12-32.44-31.55-32.44S-5.7,616.93-5.7,634.84"/></clipPath><linearGradient id="linear-gradient-6" x1="-118.19" y1="601.55" x2="-116.53" y2="601.55" gradientTransform="matrix(34.63, 17.64, 17.64, -34.63, -6012.03, 23545.6)" xlink:href="#linear-gradient-3"/><clipPath id="clip-path-4" transform="translate(511.73 9.99)"><path class="cls-1" d="M-210.18,298c0,17.91,14.12,32.44,31.54,32.44S-147.1,315.9-147.1,298s-14.12-32.44-31.54-32.44-31.54,14.52-31.54,32.44"/></clipPath><linearGradient id="linear-gradient-7" x1="-127.06" y1="602.13" x2="-120.72" y2="602.13" gradientTransform="matrix(34.63, 17.64, 17.64, -34.63, -6137.97, 23343.84)" xlink:href="#linear-gradient"/><clipPath id="clip-path-5" transform="translate(511.73 9.99)"><path class="cls-1" d="M-130.64,298c0,17.91,14.12,32.44,31.55,32.44S-67.55,315.9-67.55,298s-14.12-32.44-31.54-32.44-31.55,14.52-31.55,32.44"/></clipPath><linearGradient id="linear-gradient-8" x1="-120.86" y1="604.08" x2="-119.21" y2="604.08" gradientTransform="matrix(34.63, 17.64, 17.64, -34.63, -6088.97, 23343.84)" xlink:href="#linear-gradient"/><clipPath id="clip-path-6" transform="translate(511.73 9.99)"><path class="cls-1" d="M-20.32,298c0,17.91,14.12,32.44,31.54,32.44S42.77,315.9,42.77,298s-14.12-32.44-31.55-32.44S-20.32,280.07-20.32,298"/></clipPath><linearGradient id="linear-gradient-9" x1="-119.89" y1="604.58" x2="-118.24" y2="604.58" gradientTransform="matrix(34.63, 17.64, 17.64, -34.63, -6021.03, 23343.84)" xlink:href="#linear-gradient"/><clipPath id="clip-path-7" transform="translate(511.73 9.99)"><path class="cls-1" d="M-195.57,515.38c0,17.92,14.12,32.44,31.54,32.44s31.54-14.52,31.54-32.44S-146.6,482.94-164,482.94s-31.54,14.52-31.54,32.44"/></clipPath><linearGradient id="linear-gradient-10" x1="-125.91" y1="600.19" x2="-119.57" y2="600.19" gradientTransform="matrix(34.63, 17.64, 17.64, -34.63, -6128.97, 23474.04)" xlink:href="#linear-gradient-2"/><clipPath id="clip-path-8" transform="translate(511.73 9.99)"><path class="cls-1" d="M-116,515.38c0,17.92,14.12,32.44,31.55,32.44s31.54-14.52,31.54-32.44-14.12-32.44-31.54-32.44S-116,497.46-116,515.38"/></clipPath><linearGradient id="linear-gradient-11" x1="-119.72" y1="602.15" x2="-118.06" y2="602.15" gradientTransform="matrix(34.63, 17.64, 17.64, -34.63, -6079.97, 23474.04)" xlink:href="#linear-gradient-2"/><clipPath id="clip-path-9" transform="translate(511.73 9.99)"><path class="cls-1" d="M-5.7,515.38c0,17.92,14.12,32.44,31.54,32.44s31.55-14.52,31.55-32.44-14.12-32.44-31.55-32.44S-5.7,497.46-5.7,515.38"/></clipPath><linearGradient id="linear-gradient-12" x1="-118.74" y1="602.64" x2="-117.09" y2="602.64" gradientTransform="matrix(34.63, 17.64, 17.64, -34.63, -6012.03, 23474.04)" xlink:href="#linear-gradient-2"/><clipPath id="clip-path-10" transform="translate(511.73 9.99)"><path class="cls-1" d="M-200.48,414.81c0,17.91,14.12,32.43,31.54,32.43s31.55-14.52,31.55-32.43-14.12-32.44-31.55-32.44-31.54,14.52-31.54,32.44"/></clipPath><linearGradient id="linear-gradient-13" x1="-116.8" y1="604.85" x2="-115.14" y2="604.85" gradientTransform="matrix(34.63, 17.64, 17.64, -34.63, -6313.2, 23415.48)" xlink:href="#linear-gradient-2"/><clipPath id="clip-path-11" transform="translate(511.73 9.99)"><path class="cls-1" d="M-125.28,414.81c0,17.91,14.12,32.43,31.55,32.43s31.54-14.52,31.54-32.43-14.12-32.44-31.54-32.44-31.55,14.52-31.55,32.44"/></clipPath><linearGradient id="linear-gradient-14" x1="-116.13" y1="605.19" x2="-114.48" y2="605.19" gradientTransform="matrix(34.63, 17.64, 17.64, -34.63, -6266.88, 23415.48)" xlink:href="#linear-gradient-2"/><clipPath id="clip-path-12" transform="translate(511.73 9.99)"><path class="cls-1" d="M-20.85,414.81c0,17.91,14.12,32.43,31.54,32.43s31.55-14.52,31.55-32.43-14.12-32.44-31.55-32.44-31.54,14.52-31.54,32.44"/></clipPath><linearGradient id="linear-gradient-15" x1="-115.21" y1="605.66" x2="-113.56" y2="605.66" gradientTransform="matrix(34.63, 17.64, 17.64, -34.63, -6202.57, 23415.48)" xlink:href="#linear-gradient-2"/><clipPath id="clip-path-13" transform="translate(511.73 9.99)"><path class="cls-1" d="M108.72,432.3c0,17.92,14.12,32.44,31.54,32.44s31.54-14.52,31.54-32.44-14.12-32.44-31.54-32.44-31.54,14.52-31.54,32.44"/></clipPath><linearGradient id="linear-gradient-16" x1="-109.97" y1="603.29" x2="-108.29" y2="603.29" gradientTransform="matrix(18.84, 33.99, 33.99, -18.84, -17797.73, 15518)" gradientUnits="userSpaceOnUse"><stop offset="0" stop-color="#bf85c7"/><stop offset="0.49" stop-color="#bf85c7"/><stop offset="0.64" stop-color="#c290c9"/><stop offset="0.91" stop-color="#caaecf"/><stop offset="1" stop-color="#cdbad1"/></linearGradient><clipPath id="clip-path-14" transform="translate(511.73 9.99)"><path class="cls-1" d="M108.72,637.2c0,17.92,14.12,32.44,31.54,32.44s31.54-14.52,31.54-32.44-14.12-32.44-31.54-32.44-31.54,14.52-31.54,32.44"/></clipPath><linearGradient id="linear-gradient-17" x1="-112.85" y1="604.19" x2="-111.2" y2="604.19" gradientTransform="matrix(34.63, 17.64, 17.64, -34.63, -6128.97, 23545.6)" xlink:href="#linear-gradient-3"/><clipPath id="clip-path-15" transform="translate(511.73 9.99)"><path class="cls-1" d="M188.27,637.2c0,17.92,14.12,32.44,31.55,32.44s31.54-14.52,31.54-32.44-14.12-32.44-31.54-32.44-31.55,14.52-31.55,32.44"/></clipPath><linearGradient id="linear-gradient-18" x1="-112.15" y1="604.55" x2="-110.5" y2="604.55" gradientTransform="matrix(34.63, 17.64, 17.64, -34.63, -6079.97, 23545.6)" xlink:href="#linear-gradient-3"/><clipPath id="clip-path-16" transform="translate(511.73 9.99)"><path class="cls-1" d="M298.58,637.2c0,17.92,14.12,32.44,31.54,32.44s31.55-14.52,31.55-32.44-14.12-32.44-31.55-32.44-31.54,14.52-31.54,32.44"/></clipPath><linearGradient id="linear-gradient-19" x1="-111.18" y1="605.05" x2="-109.53" y2="605.05" gradientTransform="matrix(34.63, 17.64, 17.64, -34.63, -6012.03, 23545.6)" xlink:href="#linear-gradient-3"/><clipPath id="clip-path-17" transform="translate(511.73 9.99)"><path class="cls-1" d="M100.95,416.31c0,17.92,14.12,32.44,31.55,32.44S164,434.23,164,416.31s-14.12-32.44-31.54-32.44-31.55,14.52-31.55,32.44"/></clipPath><linearGradient id="linear-gradient-20" x1="-110.15" y1="603.3" x2="-108.47" y2="603.3" gradientTransform="matrix(18.84, 33.99, 33.99, -18.84, -17802.52, 15508.42)" xlink:href="#linear-gradient-16"/><clipPath id="clip-path-18" transform="translate(511.73 9.99)"><path class="cls-1" d="M94.11,300.34c0,17.91,14.12,32.44,31.54,32.44s31.54-14.52,31.54-32.44-14.12-32.44-31.54-32.44-31.54,14.52-31.54,32.44"/></clipPath><linearGradient id="linear-gradient-21" x1="-114.56" y1="607.23" x2="-112.91" y2="607.23" gradientTransform="matrix(34.63, 17.64, 17.64, -34.63, -6137.97, 23343.84)" xlink:href="#linear-gradient"/><clipPath id="clip-path-19" transform="translate(511.73 9.99)"><path class="cls-1" d="M173.65,300.34c0,17.91,14.12,32.44,31.55,32.44s31.54-14.52,31.54-32.44-14.12-32.44-31.54-32.44-31.55,14.52-31.55,32.44"/></clipPath><linearGradient id="linear-gradient-22" x1="-113.86" y1="607.58" x2="-112.21" y2="607.58" gradientTransform="matrix(34.63, 17.64, 17.64, -34.63, -6088.97, 23343.84)" xlink:href="#linear-gradient"/><clipPath id="clip-path-20" transform="translate(511.73 9.99)"><path class="cls-1" d="M284,300.34c0,17.91,14.12,32.44,31.54,32.44s31.55-14.52,31.55-32.44-14.12-32.44-31.55-32.44S284,282.43,284,300.34"/></clipPath><linearGradient id="linear-gradient-23" x1="-112.89" y1="608.08" x2="-111.24" y2="608.08" gradientTransform="matrix(34.63, 17.64, 17.64, -34.63, -6021.03, 23343.84)" xlink:href="#linear-gradient"/><clipPath id="clip-path-21" transform="translate(511.73 9.99)"><path class="cls-1" d="M93.17,400.33c0,17.92,14.12,32.44,31.54,32.44s31.54-14.52,31.54-32.44-14.12-32.43-31.54-32.43-31.54,14.52-31.54,32.43"/></clipPath><linearGradient id="linear-gradient-24" x1="-114.1" y1="606.3" x2="-112.45" y2="606.3" gradientTransform="matrix(34.63, 17.64, 17.64, -34.63, -6138.54, 23403.73)" gradientUnits="userSpaceOnUse"><stop offset="0" stop-color="#bf85c7"/><stop offset="0.1" stop-color="#c18ec9"/><stop offset="0.44" stop-color="#c8a6cd"/><stop offset="0.74" stop-color="#ccb5d0"/><stop offset="1" stop-color="#cdbad1"/></linearGradient><clipPath id="clip-path-22" transform="translate(511.73 9.99)"><path class="cls-1" d="M188.27,432.3c0,17.92,14.12,32.44,31.55,32.44s31.54-14.52,31.54-32.44-14.12-32.44-31.54-32.44-31.55,14.52-31.55,32.44"/></clipPath><linearGradient id="linear-gradient-25" x1="-109.58" y1="603.98" x2="-107.91" y2="603.98" gradientTransform="matrix(18.84, 33.99, 33.99, -18.84, -17748.74, 15518)" xlink:href="#linear-gradient-16"/><clipPath id="clip-path-23" transform="translate(511.73 9.99)"><path class="cls-1" d="M180.49,416.31c0,17.92,14.12,32.44,31.55,32.44s31.55-14.52,31.55-32.44S229.46,383.88,212,383.88s-31.55,14.52-31.55,32.44"/></clipPath><linearGradient id="linear-gradient-26" x1="-109.77" y1="603.99" x2="-108.09" y2="603.99" gradientTransform="matrix(18.84, 33.99, 33.99, -18.84, -17753.53, 15508.42)" xlink:href="#linear-gradient-16"/><clipPath id="clip-path-24" transform="translate(511.73 9.99)"><path class="cls-1" d="M172.72,400.33c0,17.92,14.12,32.44,31.55,32.44s31.55-14.52,31.55-32.44-14.12-32.43-31.55-32.43-31.55,14.52-31.55,32.43"/></clipPath><linearGradient id="linear-gradient-27" x1="-113.4" y1="606.66" x2="-111.75" y2="606.66" gradientTransform="matrix(34.63, 17.64, 17.64, -34.63, -6089.55, 23403.73)" xlink:href="#linear-gradient-24"/><clipPath id="clip-path-25" transform="translate(511.73 9.99)"><path class="cls-1" d="M298.58,432.3c0,17.92,14.12,32.44,31.54,32.44s31.55-14.52,31.55-32.44-14.12-32.44-31.55-32.44-31.54,14.52-31.54,32.44"/></clipPath><linearGradient id="linear-gradient-28" x1="-109.06" y1="604.93" x2="-107.38" y2="604.93" gradientTransform="matrix(18.84, 33.99, 33.99, -18.84, -17680.8, 15518)" xlink:href="#linear-gradient-16"/><clipPath id="clip-path-26" transform="translate(511.73 9.99)"><path class="cls-1" d="M290.81,416.31c0,17.92,14.12,32.44,31.54,32.44s31.55-14.52,31.55-32.44-14.12-32.44-31.55-32.44-31.54,14.52-31.54,32.44"/></clipPath><linearGradient id="linear-gradient-29" x1="-109.24" y1="604.95" x2="-107.56" y2="604.95" gradientTransform="matrix(18.84, 33.99, 33.99, -18.84, -17685.59, 15508.42)" xlink:href="#linear-gradient-16"/><clipPath id="clip-path-27" transform="translate(511.73 9.99)"><path class="cls-1" d="M283,400.33c0,17.92,14.12,32.44,31.54,32.44s31.55-14.52,31.55-32.44S332,367.89,314.58,367.89,283,382.41,283,400.33"/></clipPath><linearGradient id="linear-gradient-30" x1="-112.43" y1="607.15" x2="-110.78" y2="607.15" gradientTransform="matrix(34.63, 17.64, 17.64, -34.63, -6021.6, 23403.73)" xlink:href="#linear-gradient-24"/><clipPath id="clip-path-28" transform="translate(511.73 9.99)"><path class="cls-1" d="M108.72,517.73c0,17.92,14.12,32.44,31.54,32.44s31.54-14.52,31.54-32.44-14.12-32.44-31.54-32.44-31.54,14.52-31.54,32.44"/></clipPath><linearGradient id="linear-gradient-31" x1="-113.41" y1="605.29" x2="-111.76" y2="605.29" gradientTransform="matrix(34.63, 17.64, 17.64, -34.63, -6128.97, 23474.04)" xlink:href="#linear-gradient-2"/><clipPath id="clip-path-29" transform="translate(511.73 9.99)"><path class="cls-1" d="M188.27,517.73c0,17.92,14.12,32.44,31.55,32.44s31.54-14.52,31.54-32.44-14.12-32.44-31.54-32.44-31.55,14.52-31.55,32.44"/></clipPath><linearGradient id="linear-gradient-32" x1="-112.71" y1="605.65" x2="-111.06" y2="605.65" gradientTransform="matrix(34.63, 17.64, 17.64, -34.63, -6079.97, 23474.04)" xlink:href="#linear-gradient-2"/><clipPath id="clip-path-30" transform="translate(511.73 9.99)"><path class="cls-1" d="M298.58,517.73c0,17.92,14.12,32.44,31.54,32.44s31.55-14.52,31.55-32.44-14.12-32.44-31.55-32.44-31.54,14.52-31.54,32.44"/></clipPath><linearGradient id="linear-gradient-33" x1="-111.74" y1="606.15" x2="-110.09" y2="606.15" gradientTransform="matrix(34.63, 17.64, 17.64, -34.63, -6012.03, 23474.04)" xlink:href="#linear-gradient-2"/></defs><title>learning_schema_simple</title><rect class="cls-2" x="155.13" y="0.5" width="980.93" height="933.19"/><line class="cls-3" x1="522.43" y1="397.62" x2="522.43" y2="344.01"/><line class="cls-3" x1="413.84" y1="401.38" x2="413.84" y2="347.77"/><line class="cls-3" x1="337.8" y1="397.62" x2="337.8" y2="344.01"/><path class="cls-4" d="M-215.1,280.59" transform="translate(511.73 9.99)"/><path class="cls-5" d="M-215.1,400.21" transform="translate(511.73 9.99)"/><path class="cls-6" d="M-215.1,617.45" transform="translate(511.73 9.99)"/><polygon class="cls-7" points="341.81 346.51 337.8 339.38 333.79 346.51 341.81 346.51"/><polygon class="cls-7" points="417.85 348.18 413.84 341.05 409.83 348.18 417.85 348.18"/><polygon class="cls-7" points="526.29 346.51 522.28 339.38 518.27 346.51 526.29 346.51"/><g class="cls-8"><polygon class="cls-9" points="329.17 586.15 404.77 625.76 366.25 703.51 14.61 663.9 329.17 586.15"/></g><g class="cls-10"><polygon class="cls-11" points="408.71 586.15 484.32 625.76 445.8 703.51 370.19 663.9 408.71 586.15"/></g><g class="cls-12"><polygon class="cls-13" points="519.03 586.15 594.64 625.76 556.12 703.51 480.51 663.9 519.03 586.15"/></g><g class="cls-14"><polygon class="cls-15" points="314.55 249.3 390.16 288.91 351.63 366.65 0 327.04 314.55 249.3"/></g><g class="cls-16"><polygon class="cls-17" points="394.1 249.3 469.71 288.91 431.18 366.65 355.58 327.04 394.1 249.3"/></g><g class="cls-18"><polygon class="cls-19" points="504.42 249.29 580.03 288.91 541.5 366.65 465.9 327.04 504.42 249.29"/></g><text class="cls-20" transform="translate(471.1 527.73) scale(0.97 1)">...</text><text class="cls-21" transform="translate(473.13 719.32) scale(0.97 1)">...</text><text class="cls-20" transform="translate(471.13 646.2) scale(0.97 1)">...</text><text class="cls-22" transform="translate(455.9 310.54) scale(0.97 1)">...</text><text class="cls-23" transform="translate(344.78 721.08) scale(0.97 1)">T</text><text class="cls-24" transform="translate(360.65 729.98) scale(0.97 1)">1</text><text class="cls-23" transform="translate(423.41 721.08) scale(0.97 1)">T</text><text class="cls-24" transform="translate(439.28 729.98) scale(0.97 1)">2</text><text class="cls-23" transform="translate(527.65 721.08) scale(0.97 1)">T</text><text class="cls-24" transform="translate(543.52 729.98) scale(0.97 1)">j</text><text class="cls-25" transform="translate(374.34 249.13) scale(0.97 1)">ProgNN</text><path class="cls-26" d="M-170.43,429.14" transform="translate(511.73 9.99)"/><path class="cls-26" d="M25.07,483" transform="translate(511.73 9.99)"/><path class="cls-7" d="M-165.61,482.82v0Z" transform="translate(511.73 9.99)"/><path class="cls-7" d="M-86.25,482.82v0Z" transform="translate(511.73 9.99)"/><polygon class="cls-7" points="429.04 464.22 425.03 457.09 421.02 464.22 429.04 464.22"/><polygon class="cls-7" points="537.24 462.55 533.23 455.42 529.22 462.55 537.24 462.55"/><line class="cls-7" x1="347.63" y1="492.97" x2="418.92" y2="456.74"/><line class="cls-27" x1="347.63" y1="492.97" x2="413.75" y2="459.37"/><polygon class="cls-7" points="414.47 463.6 418.92 456.74 410.92 456.21 414.47 463.6"/><line class="cls-7" x1="427.03" y1="500.22" x2="509.91" y2="460.41"/><line class="cls-7" x1="348.93" y1="492.97" x2="527.27" y2="441.23"/><polygon points="521.67 447.13 527.26 441.23 519.5 439.2 521.67 447.13"/><path class="cls-26" d="M-164,602.7v0Z" transform="translate(511.73 9.99)"/><line class="cls-27" x1="347.75" y1="612.69" x2="347.75" y2="565.31"/><polygon class="cls-7" points="351.75 566.51 347.75 559.38 343.74 566.51 351.75 566.51"/><path class="cls-26" d="M25.07,602.7v0Z" transform="translate(511.73 9.99)"/><line class="cls-27" x1="536.8" y1="612.69" x2="536.8" y2="565.31"/><polygon class="cls-7" points="540.81 566.51 536.8 559.38 532.79 566.51 540.81 566.51"/><path class="cls-26" d="M-86.25,602.7v0Z" transform="translate(511.73 9.99)"/><line class="cls-27" x1="425.49" y1="612.69" x2="425.49" y2="565.31"/><polygon class="cls-7" points="429.5 566.51 425.49 559.38 421.48 566.51 429.5 566.51"/><line class="cls-26" x1="347.63" y1="612.84" x2="419.14" y2="558.75"/><line class="cls-27" x1="347.63" y1="612.84" x2="414.49" y2="562.27"/><polygon class="cls-7" points="415.92 566.3 419.14 558.75 411.17 559.66 415.92 566.3"/><line class="cls-26" x1="424.93" y1="613.44" x2="527.72" y2="559.22"/><line class="cls-27" x1="424.93" y1="613.44" x2="522.59" y2="561.93"/><polygon class="cls-7" points="523.38 566.15 527.73 559.22 519.72 558.81 523.38 566.15"/><line class="cls-26" x1="348.93" y1="612.84" x2="516.29" y2="553.11"/><line class="cls-27" x1="348.93" y1="612.84" x2="510.85" y2="555.06"/><polygon class="cls-7" points="511.05 559.34 516.29 553.11 508.42 551.56 511.05 559.34"/><g class="cls-28"><polygon class="cls-29" points="329.17 466.69 404.77 506.3 366.25 584.05 14.61 544.43 329.17 466.69"/></g><g class="cls-30"><polygon class="cls-31" points="408.71 466.69 484.32 506.3 445.8 584.05 370.19 544.43 408.71 466.69"/></g><g class="cls-32"><polygon class="cls-33" points="519.03 466.69 594.64 506.3 556.12 584.05 480.51 544.43 519.03 466.69"/></g><g class="cls-34"><polygon class="cls-35" points="324.25 366.12 399.86 405.73 361.33 483.48 285.73 443.86 324.25 366.12"/></g><g class="cls-36"><polygon class="cls-37" points="399.46 366.12 475.06 405.73 436.54 483.48 360.93 443.86 399.46 366.12"/></g><g class="cls-38"><polygon class="cls-39" points="503.89 366.12 579.49 405.73 540.97 483.48 465.36 443.86 503.89 366.12"/></g><text class="cls-20" transform="translate(459.53 428.81) scale(0.97 1)">...</text><line class="cls-27" x1="346.4" y1="491.98" x2="346.4" y2="461.75"/><polygon class="cls-7" points="350.41 464.32 346.4 457.19 342.39 464.32 350.41 464.32"/><line class="cls-27" x1="425.49" y1="493.73" x2="425.49" y2="463.5"/><line class="cls-27" x1="533.23" y1="492.82" x2="533.23" y2="462.58"/><polygon class="cls-7" points="494.69 454.71 500.58 449.12 492.93 446.67 494.69 454.71"/><g class="cls-40"><polygon class="cls-41" points="668.71 382.34 710.29 459.47 635.28 502.23 593.7 425.1 668.71 382.34"/></g><line class="cls-26" x1="638.08" y1="401.27" x2="638.08" y2="341.73"/><line class="cls-3" x1="638.08" y1="401.27" x2="638.08" y2="347.66"/><polygon class="cls-7" points="642.09 348.87 638.08 341.73 634.07 348.87 642.09 348.87"/><line class="cls-26" x1="713.05" y1="401.27" x2="713.05" y2="341.73"/><line class="cls-3" x1="713.05" y1="401.27" x2="713.05" y2="347.66"/><polygon class="cls-7" points="717.06 348.87 713.05 341.73 709.04 348.87 717.06 348.87"/><line class="cls-26" x1="826.57" y1="401.27" x2="826.57" y2="341.73"/><line class="cls-3" x1="826.57" y1="401.27" x2="826.57" y2="347.66"/><polygon class="cls-7" points="830.58 348.87 826.57 341.73 822.56 348.87 830.58 348.87"/><g class="cls-42"><polygon class="cls-43" points="633.45 588.51 709.06 628.12 670.54 705.86 594.93 666.25 633.45 588.51"/></g><g class="cls-44"><polygon class="cls-45" points="713 588.51 788.61 628.12 750.08 705.87 674.48 666.25 713 588.51"/></g><g class="cls-46"><polygon class="cls-47" points="823.32 588.51 898.93 628.12 860.4 705.87 784.8 666.25 823.32 588.51"/></g><g class="cls-48"><polygon class="cls-49" points="660.94 366.36 702.52 443.49 627.51 486.25 585.93 409.11 660.94 366.36"/></g><g class="cls-50"><polygon class="cls-51" points="618.84 251.65 694.45 291.26 655.92 369.01 580.32 329.4 618.84 251.65"/></g><g class="cls-52"><polygon class="cls-53" points="698.39 251.65 773.99 291.26 735.47 369.01 659.87 329.4 698.39 251.65"/></g><g class="cls-54"><polygon class="cls-55" points="808.71 251.65 884.32 291.26 845.79 369.01 770.18 329.4 808.71 251.65"/></g><g class="cls-56"><polygon class="cls-57" points="617.91 351.64 693.51 391.25 654.99 469 579.39 429.38 617.91 351.64"/></g><g class="cls-58"><polygon class="cls-59" points="748.26 382.34 789.84 459.47 714.83 502.23 673.25 425.1 748.26 382.34"/></g><g class="cls-60"><polygon class="cls-61" points="740.49 366.36 782.07 443.49 707.05 486.25 665.47 409.11 740.49 366.36"/></g><g class="cls-62"><polygon class="cls-63" points="697.46 351.64 773.07 391.25 734.54 469 658.94 429.38 697.46 351.64"/></g><g class="cls-64"><polygon class="cls-65" points="858.58 382.34 900.16 459.47 825.15 502.23 783.57 425.1 858.58 382.34"/></g><g class="cls-66"><polygon class="cls-67" points="850.81 366.36 892.39 443.49 817.38 486.25 775.79 409.11 850.81 366.36"/></g><g class="cls-68"><polygon class="cls-69" points="807.78 351.64 883.38 391.25 844.86 469 769.26 429.38 807.78 351.64"/></g><text class="cls-20" transform="translate(770.5 432.76) scale(0.97 1)">...</text><text class="cls-20" transform="translate(775.39 530.08) scale(0.97 1)">...</text><text class="cls-21" transform="translate(777.42 721.68) scale(0.97 1)">...</text><text class="cls-20" transform="translate(775.41 648.56) scale(0.97 1)">...</text><text class="cls-22" transform="translate(760.19 312.89) scale(0.97 1)">...</text><text class="cls-70" transform="translate(649.07 723.44) scale(0.97 1)">T</text><text class="cls-24" transform="translate(664.94 732.33) scale(0.97 1)">1</text><text class="cls-70" transform="translate(727.7 723.44) scale(0.97 1)">T</text><text class="cls-24" transform="translate(743.57 732.33) scale(0.97 1)">2</text><text class="cls-70" transform="translate(831.93 723.44) scale(0.97 1)">T</text><text class="cls-24" transform="translate(847.8 732.33) scale(0.97 1)">j</text><text class="cls-71" transform="translate(655.62 255.22) scale(0.97 1)">ProgLearn</text><text class="cls-72" transform="translate(881.81 327.33) scale(0.97 1)">Decider</text><text class="cls-73" transform="translate(881.81 435.82) scale(0.97 1)">Voters</text><text class="cls-74" transform="translate(881.81 540.65) scale(0.97 1)">Transformers</text><line class="cls-26" x1="730.13" y1="496.23" x2="650.97" y2="458.62"/><line class="cls-75" x1="730.13" y1="496.23" x2="656.21" y2="461.11"/><polygon class="cls-76" points="658.96 457.88 650.97 458.62 655.59 465.36 658.96 457.88"/><line class="cls-26" x1="841.09" y1="495.32" x2="723.43" y2="442.64"/><line class="cls-75" x1="841.09" y1="495.32" x2="728.71" y2="445.01"/><polygon class="cls-76" points="731.39 441.71 723.43 442.64 728.19 449.27 731.39 441.71"/><line class="cls-26" x1="841.09" y1="495.32" x2="645.59" y2="441.49"/><line class="cls-75" x1="841.09" y1="495.32" x2="651.17" y2="443.02"/><polygon class="cls-76" points="653.34 439.35 645.59 441.49 651.26 447.31 653.34 439.35"/><path class="cls-26" d="M140.3,485.18v0Z" transform="translate(511.73 9.99)"/><line class="cls-27" x1="652.03" y1="495.17" x2="652.03" y2="479.94"/><polygon class="cls-7" points="656.04 481.14 652.03 474 648.02 481.14 656.04 481.14"/><path class="cls-26" d="M218,485.18v0Z" transform="translate(511.73 9.99)"/><line class="cls-27" x1="729.77" y1="495.17" x2="729.77" y2="479.94"/><polygon class="cls-7" points="733.78 481.14 729.77 474 725.77 481.14 733.78 481.14"/><path class="cls-26" d="M330.12,485.18v0Z" transform="translate(511.73 9.99)"/><line class="cls-27" x1="841.85" y1="495.17" x2="841.85" y2="479.94"/><polygon class="cls-7" points="845.86 481.14 841.85 474 837.84 481.14 845.86 481.14"/><line class="cls-26" x1="651.92" y1="495.32" x2="723.2" y2="459.09"/><line class="cls-27" x1="651.92" y1="495.32" x2="718.04" y2="461.72"/><polygon class="cls-7" points="718.76 465.95 723.21 459.1 715.21 458.56 718.76 465.95"/><line class="cls-26" x1="729.22" y1="495.92" x2="842.39" y2="458.68"/><line class="cls-27" x1="729.22" y1="495.92" x2="836.89" y2="460.49"/><polygon class="cls-7" points="837 464.78 842.39 458.68 834.56 456.93 837 464.78"/><line class="cls-26" x1="653.22" y1="495.32" x2="831.56" y2="443.58"/><line class="cls-27" x1="653.22" y1="495.32" x2="826" y2="445.19"/><polygon class="cls-7" points="825.96 449.49 831.55 443.58 823.79 441.55 825.96 449.49"/><line class="cls-26" x1="730.13" y1="616.11" x2="658.2" y2="560.48"/><line class="cls-77" x1="730.13" y1="616.11" x2="662.81" y2="564.04"/><polygon class="cls-78" points="666.16 561.48 658.2 560.48 661.34 568.06 666.16 561.48"/><line class="cls-26" x1="841.09" y1="615.2" x2="669.78" y2="557.35"/><line class="cls-77" x1="841.09" y1="615.2" x2="675.26" y2="559.2"/><polygon class="cls-78" points="677.63 555.66 669.78 557.35 675.13 563.49 677.63 555.66"/><line class="cls-26" x1="841.09" y1="615.2" x2="738.06" y2="562.36"/><line class="cls-77" x1="841.09" y1="615.2" x2="743.22" y2="565.01"/><polygon class="cls-78" points="746.05 561.86 738.05 562.36 742.48 569.23 746.05 561.86"/><path class="cls-26" d="M140.3,605.06v0Z" transform="translate(511.73 9.99)"/><line class="cls-27" x1="652.03" y1="615.04" x2="652.03" y2="567.67"/><polygon class="cls-7" points="656.04 568.87 652.03 561.73 648.02 568.87 656.04 568.87"/><path class="cls-26" d="M329.36,605.06v0Z" transform="translate(511.73 9.99)"/><line class="cls-27" x1="841.09" y1="615.04" x2="841.09" y2="567.67"/><polygon class="cls-7" points="845.1 568.87 841.09 561.73 837.08 568.87 845.1 568.87"/><path class="cls-26" d="M218,605.06v0Z" transform="translate(511.73 9.99)"/><line class="cls-27" x1="729.77" y1="615.04" x2="729.77" y2="567.67"/><polygon class="cls-7" points="733.78 568.87 729.77 561.73 725.77 568.87 733.78 568.87"/><line class="cls-26" x1="651.92" y1="615.2" x2="723.43" y2="561.11"/><line class="cls-27" x1="651.92" y1="615.2" x2="718.78" y2="564.62"/><polygon class="cls-7" points="720.21 568.65 723.42 561.11 715.46 562.02 720.21 568.65"/><line class="cls-26" x1="729.22" y1="615.8" x2="832.01" y2="561.58"/><line class="cls-27" x1="729.22" y1="615.8" x2="826.88" y2="564.28"/><polygon class="cls-7" points="827.67 568.5 832.01 561.58 824.01 561.17 827.67 568.5"/><line class="cls-26" x1="653.22" y1="615.2" x2="820.58" y2="555.47"/><line class="cls-27" x1="653.22" y1="615.2" x2="815.13" y2="557.41"/><polygon class="cls-7" points="815.34 561.7 820.58 555.47 812.71 553.91 815.34 561.7"/><g class="cls-79"><polygon class="cls-80" points="633.46 469.04 709.06 508.66 670.54 586.4 594.93 546.79 633.46 469.04"/></g><g class="cls-81"><polygon class="cls-82" points="713 469.04 788.61 508.66 750.09 586.4 674.48 546.79 713 469.04"/></g><g class="cls-83"><polygon class="cls-84" points="823.32 469.04 898.93 508.66 860.4 586.4 784.8 546.79 823.32 469.04"/></g><polygon class="cls-7" points="506.03 458.6 511.67 464.46 513.78 456.51 506.03 458.6"/><text class="cls-85" transform="translate(440.55 147.5) scale(0.97 1)"><tspan class="cls-86">L</tspan><tspan x="21.98" y="0">ea</tspan><tspan class="cls-87" x="69.17" y="0">r</tspan><tspan x="85.05" y="0">ning </tspan><tspan class="cls-88" x="186.57" y="0">S</tspan><tspan x="210.52" y="0">chemas</tspan></text></svg>